<?xml version="1.0" encoding="UTF-8"?>
<svg xmlns="http://www.w3.org/2000/svg" viewBox="0 0 1000 2500">
  <defs>
    <filter id="glow">
      <feGaussianBlur stdDeviation="3" result="coloredBlur"/>
      <feMerge>
        <feMergeNode in="coloredBlur"/>
        <feMergeNode in="SourceGraphic"/>
      </feMerge>
    </filter>
    <filter id="orangeGlow" x="-100%" y="-100%" width="300%" height="300%">
    <feGaussianBlur in="SourceGraphic" stdDeviation="4"/>
    </filter>
  </defs>

  <!-- Black Background -->
  <rect width="100%" height="100%" fill="black"/>

  <!-- White/Blue Stars -->
    <circle cx="55.8" cy="1663.0" r="2.7" fill="rgb(189,189,255)" opacity="0.86"/>
    <circle cx="331.6" cy="956.0" r="1.9" fill="rgb(179,179,255)" opacity="0.92"/>
    <circle cx="740.6" cy="2068.8" r="2.3" fill="rgb(206,206,255)" opacity="0.77"/>
    <circle cx="109.5" cy="2490.6" r="1.2" fill="rgb(209,209,255)" opacity="0.84"/>
    <circle cx="514.2" cy="619.3" r="2.7" fill="rgb(153,153,255)" opacity="0.94"/>
    <circle cx="574.4" cy="617.3" r="2.7" fill="rgb(153,153,255)" opacity="0.85"/>
    <circle cx="125.9" cy="949.0" r="3.0" fill="rgb(251,251,255)" opacity="0.79"/>
    <circle cx="717.9" cy="1052.5" r="2.8" fill="rgb(183,183,255)" opacity="0.75"/>
    <circle cx="862.3" cy="43.7" r="2.6" fill="rgb(148,148,255)" opacity="0.95"/>
    <circle cx="239.5" cy="662.8" r="2.2" fill="rgb(197,197,255)" opacity="0.92"/>
    <circle cx="408.7" cy="2000.2" r="2.4" fill="rgb(143,143,255)" opacity="0.89"/>
    <circle cx="307.8" cy="2083.9" r="1.9" fill="rgb(184,184,255)" opacity="0.92"/>
    <circle cx="139.2" cy="54.2" r="2.4" fill="rgb(148,148,255)" opacity="0.89"/>
    <circle cx="244.7" cy="1160.1" r="1.7" fill="rgb(241,241,255)" opacity="0.83"/>
    <circle cx="193.7" cy="402.0" r="2.4" fill="rgb(162,162,255)" opacity="0.75"/>
    <circle cx="250.8" cy="1449.8" r="1.3" fill="rgb(168,168,255)" opacity="0.85"/>
    <circle cx="988.7" cy="2211.4" r="2.7" fill="rgb(200,200,255)" opacity="0.80"/>
    <circle cx="662.4" cy="1347.1" r="2.8" fill="rgb(234,234,255)" opacity="0.85"/>
    <circle cx="829.1" cy="446.2" r="2.8" fill="rgb(178,178,255)" opacity="0.86"/>
    <circle cx="573.9" cy="608.8" r="1.7" fill="rgb(169,169,255)" opacity="0.78"/>
    <circle cx="101.3" cy="544.4" r="1.4" fill="rgb(249,249,255)" opacity="0.81"/>
    <circle cx="970.7" cy="10.1" r="2.7" fill="rgb(194,194,255)" opacity="0.87"/>
    <circle cx="993.4" cy="566.7" r="1.3" fill="rgb(235,235,255)" opacity="0.82"/>
    <circle cx="202.8" cy="1550.9" r="1.7" fill="rgb(233,233,255)" opacity="0.85"/>
    <circle cx="711.8" cy="427.3" r="1.8" fill="rgb(158,158,255)" opacity="0.75"/>
    <circle cx="855.1" cy="224.9" r="1.2" fill="rgb(216,216,255)" opacity="0.92"/>
    <circle cx="313.7" cy="666.5" r="2.9" fill="rgb(230,230,255)" opacity="0.81"/>
    <circle cx="31.9" cy="1996.7" r="2.8" fill="rgb(232,232,255)" opacity="0.88"/>
    <circle cx="176.4" cy="962.4" r="1.2" fill="rgb(148,148,255)" opacity="0.86"/>
    <circle cx="3.1" cy="1205.9" r="2.7" fill="rgb(236,236,255)" opacity="0.86"/>
    <circle cx="54.8" cy="1338.0" r="1.4" fill="rgb(169,169,255)" opacity="0.89"/>
    <circle cx="694.9" cy="1463.6" r="1.3" fill="rgb(155,155,255)" opacity="0.76"/>
    <circle cx="392.4" cy="1634.9" r="2.2" fill="rgb(172,172,255)" opacity="0.83"/>
    <circle cx="481.1" cy="407.0" r="2.1" fill="rgb(153,153,255)" opacity="0.80"/>
    <circle cx="566.4" cy="766.1" r="2.2" fill="rgb(235,235,255)" opacity="0.86"/>
    <circle cx="104.7" cy="1043.7" r="2.7" fill="rgb(248,248,255)" opacity="0.75"/>
    <circle cx="987.3" cy="430.2" r="2.8" fill="rgb(177,177,255)" opacity="0.83"/>
    <circle cx="534.5" cy="232.6" r="2.9" fill="rgb(194,194,255)" opacity="0.81"/>
    <circle cx="921.8" cy="2127.2" r="1.2" fill="rgb(179,179,255)" opacity="0.82"/>
    <circle cx="81.1" cy="367.9" r="1.9" fill="rgb(164,164,255)" opacity="0.92"/>
    <circle cx="40.0" cy="706.2" r="2.1" fill="rgb(151,151,255)" opacity="0.89"/>
    <circle cx="87.7" cy="1678.4" r="1.5" fill="rgb(184,184,255)" opacity="0.87"/>
    <circle cx="968.7" cy="698.6" r="1.3" fill="rgb(230,230,255)" opacity="0.94"/>
    <circle cx="178.6" cy="2323.0" r="1.9" fill="rgb(209,209,255)" opacity="0.86"/>
    <circle cx="696.3" cy="142.8" r="1.7" fill="rgb(206,206,255)" opacity="0.83"/>
    <circle cx="664.6" cy="227.1" r="2.0" fill="rgb(144,144,255)" opacity="0.88"/>
    <circle cx="661.4" cy="1249.9" r="2.1" fill="rgb(239,239,255)" opacity="0.76"/>
    <circle cx="168.6" cy="1089.6" r="2.2" fill="rgb(239,239,255)" opacity="0.76"/>
    <circle cx="868.5" cy="1600.4" r="1.9" fill="rgb(229,229,255)" opacity="0.90"/>
    <circle cx="262.1" cy="961.3" r="1.5" fill="rgb(184,184,255)" opacity="0.76"/>
    <circle cx="952.4" cy="1082.4" r="1.1" fill="rgb(171,171,255)" opacity="0.82"/>
    <circle cx="48.4" cy="649.5" r="2.0" fill="rgb(203,203,255)" opacity="0.78"/>
    <circle cx="77.0" cy="1219.7" r="2.1" fill="rgb(222,222,255)" opacity="0.94"/>
    <circle cx="242.5" cy="1773.9" r="2.4" fill="rgb(186,186,255)" opacity="0.86"/>
    <circle cx="60.7" cy="1220.0" r="2.1" fill="rgb(249,249,255)" opacity="0.85"/>
    <circle cx="757.0" cy="2412.3" r="1.7" fill="rgb(217,217,255)" opacity="0.92"/>
    <circle cx="40.9" cy="2274.4" r="1.7" fill="rgb(215,215,255)" opacity="0.89"/>
    <circle cx="681.5" cy="1890.2" r="2.8" fill="rgb(162,162,255)" opacity="0.93"/>
    <circle cx="308.6" cy="2157.4" r="2.8" fill="rgb(222,222,255)" opacity="0.89"/>
    <circle cx="893.1" cy="1589.1" r="1.7" fill="rgb(144,144,255)" opacity="0.92"/>
    <circle cx="182.4" cy="2223.5" r="2.4" fill="rgb(189,189,255)" opacity="0.94"/>
    <circle cx="180.9" cy="4.7" r="2.4" fill="rgb(212,212,255)" opacity="0.91"/>
    <circle cx="82.8" cy="2151.9" r="2.4" fill="rgb(225,225,255)" opacity="0.89"/>
    <circle cx="589.0" cy="946.1" r="1.9" fill="rgb(215,215,255)" opacity="0.82"/>
    <circle cx="940.9" cy="1866.8" r="1.5" fill="rgb(243,243,255)" opacity="0.89"/>
    <circle cx="985.7" cy="2425.0" r="2.0" fill="rgb(245,245,255)" opacity="0.78"/>
    <circle cx="256.5" cy="1759.8" r="1.3" fill="rgb(144,144,255)" opacity="0.86"/>
    <circle cx="850.9" cy="409.5" r="2.1" fill="rgb(209,209,255)" opacity="0.81"/>
    <circle cx="49.8" cy="1616.9" r="2.8" fill="rgb(243,243,255)" opacity="0.88"/>
    <circle cx="857.3" cy="2321.4" r="1.7" fill="rgb(253,253,255)" opacity="0.81"/>
    <circle cx="447.2" cy="838.2" r="1.4" fill="rgb(192,192,255)" opacity="0.95"/>
    <circle cx="676.3" cy="1191.1" r="1.7" fill="rgb(147,147,255)" opacity="0.80"/>
    <circle cx="825.5" cy="2344.7" r="2.3" fill="rgb(156,156,255)" opacity="0.84"/>
    <circle cx="947.7" cy="2354.1" r="2.5" fill="rgb(217,217,255)" opacity="0.95"/>
    <circle cx="3.1" cy="1531.5" r="2.5" fill="rgb(212,212,255)" opacity="0.92"/>
    <circle cx="183.0" cy="436.7" r="1.4" fill="rgb(208,208,255)" opacity="0.82"/>
    <circle cx="789.6" cy="372.0" r="1.6" fill="rgb(218,218,255)" opacity="0.78"/>
    <circle cx="91.0" cy="1380.4" r="2.1" fill="rgb(204,204,255)" opacity="0.78"/>
    <circle cx="344.8" cy="2485.8" r="1.1" fill="rgb(142,142,255)" opacity="0.87"/>
    <circle cx="606.4" cy="1728.4" r="2.9" fill="rgb(172,172,255)" opacity="0.88"/>
    <circle cx="621.3" cy="2334.8" r="1.9" fill="rgb(156,156,255)" opacity="0.82"/>
    <circle cx="713.6" cy="340.7" r="2.0" fill="rgb(235,235,255)" opacity="0.88"/>
    <circle cx="173.3" cy="357.5" r="1.6" fill="rgb(214,214,255)" opacity="0.81"/>
    <circle cx="126.4" cy="1872.6" r="2.0" fill="rgb(248,248,255)" opacity="0.76"/>
    <circle cx="667.9" cy="2130.8" r="2.9" fill="rgb(174,174,255)" opacity="0.80"/>
    <circle cx="112.6" cy="1364.8" r="1.0" fill="rgb(208,208,255)" opacity="0.78"/>
    <circle cx="272.2" cy="1027.4" r="1.8" fill="rgb(178,178,255)" opacity="0.88"/>
    <circle cx="19.5" cy="598.5" r="1.5" fill="rgb(197,197,255)" opacity="0.79"/>
    <circle cx="295.1" cy="1276.2" r="1.9" fill="rgb(229,229,255)" opacity="0.86"/>
    <circle cx="834.2" cy="1417.8" r="2.0" fill="rgb(175,175,255)" opacity="0.86"/>
    <circle cx="530.2" cy="910.9" r="1.1" fill="rgb(190,190,255)" opacity="0.93"/>
    <circle cx="36.4" cy="1353.0" r="1.4" fill="rgb(218,218,255)" opacity="0.89"/>
    <circle cx="899.6" cy="2482.2" r="2.1" fill="rgb(225,225,255)" opacity="0.76"/>
    <circle cx="535.1" cy="1225.2" r="1.3" fill="rgb(150,150,255)" opacity="0.76"/>
    <circle cx="413.6" cy="1710.3" r="1.5" fill="rgb(168,168,255)" opacity="0.90"/>
    <circle cx="791.3" cy="565.0" r="1.6" fill="rgb(153,153,255)" opacity="0.91"/>
    <circle cx="656.3" cy="1408.8" r="2.1" fill="rgb(143,143,255)" opacity="0.83"/>
    <circle cx="957.2" cy="194.9" r="2.7" fill="rgb(140,140,255)" opacity="0.87"/>
    <circle cx="115.3" cy="1062.2" r="2.9" fill="rgb(195,195,255)" opacity="0.79"/>
    <circle cx="448.9" cy="2151.2" r="1.9" fill="rgb(147,147,255)" opacity="0.79"/>
    <circle cx="783.4" cy="1036.9" r="1.0" fill="rgb(189,189,255)" opacity="0.76"/>
    <circle cx="912.2" cy="864.9" r="1.8" fill="rgb(147,147,255)" opacity="0.83"/>
    <circle cx="80.4" cy="1976.7" r="2.0" fill="rgb(151,151,255)" opacity="0.94"/>
    <circle cx="845.8" cy="2142.2" r="1.0" fill="rgb(185,185,255)" opacity="0.92"/>
    <circle cx="149.5" cy="2368.3" r="1.2" fill="rgb(154,154,255)" opacity="0.84"/>
    <circle cx="37.0" cy="1041.8" r="1.9" fill="rgb(173,173,255)" opacity="0.85"/>
    <circle cx="689.8" cy="2434.1" r="1.6" fill="rgb(143,143,255)" opacity="0.76"/>
    <circle cx="99.6" cy="1950.7" r="1.9" fill="rgb(205,205,255)" opacity="0.81"/>
    <circle cx="353.3" cy="1517.5" r="2.0" fill="rgb(248,248,255)" opacity="0.87"/>
    <circle cx="454.9" cy="977.1" r="1.6" fill="rgb(207,207,255)" opacity="0.79"/>
    <circle cx="854.2" cy="1210.0" r="1.9" fill="rgb(177,177,255)" opacity="0.91"/>
    <circle cx="796.7" cy="1080.5" r="2.7" fill="rgb(143,143,255)" opacity="0.92"/>
    <circle cx="214.4" cy="2276.6" r="1.2" fill="rgb(232,232,255)" opacity="0.86"/>
    <circle cx="517.0" cy="540.0" r="2.8" fill="rgb(225,225,255)" opacity="0.82"/>
    <circle cx="226.5" cy="1914.4" r="2.9" fill="rgb(250,250,255)" opacity="0.86"/>
    <circle cx="175.0" cy="1202.9" r="1.6" fill="rgb(146,146,255)" opacity="0.93"/>
    <circle cx="142.9" cy="1294.0" r="1.3" fill="rgb(250,250,255)" opacity="0.76"/>
    <circle cx="795.3" cy="2278.2" r="1.6" fill="rgb(210,210,255)" opacity="0.92"/>
    <circle cx="10.8" cy="1877.3" r="1.2" fill="rgb(163,163,255)" opacity="0.89"/>
    <circle cx="55.3" cy="2309.9" r="1.0" fill="rgb(251,251,255)" opacity="0.91"/>
    <circle cx="153.5" cy="52.9" r="1.6" fill="rgb(174,174,255)" opacity="0.85"/>
    <circle cx="925.2" cy="1391.2" r="1.7" fill="rgb(216,216,255)" opacity="0.81"/>
    <circle cx="111.9" cy="1037.0" r="1.1" fill="rgb(157,157,255)" opacity="0.93"/>
    <circle cx="928.0" cy="386.5" r="2.3" fill="rgb(218,218,255)" opacity="0.94"/>
    <circle cx="208.5" cy="968.5" r="2.4" fill="rgb(239,239,255)" opacity="0.84"/>
    <circle cx="535.4" cy="467.6" r="2.8" fill="rgb(217,217,255)" opacity="0.88"/>
    <circle cx="512.1" cy="1907.1" r="1.0" fill="rgb(209,209,255)" opacity="0.76"/>
    <circle cx="311.0" cy="130.4" r="2.7" fill="rgb(212,212,255)" opacity="0.87"/>
    <circle cx="407.1" cy="2179.2" r="2.9" fill="rgb(238,238,255)" opacity="0.91"/>
    <circle cx="651.3" cy="59.0" r="1.0" fill="rgb(193,193,255)" opacity="0.77"/>
    <circle cx="311.8" cy="1144.9" r="1.6" fill="rgb(220,220,255)" opacity="0.87"/>
    <circle cx="869.5" cy="855.2" r="1.7" fill="rgb(144,144,255)" opacity="0.94"/>
    <circle cx="126.8" cy="500.8" r="1.8" fill="rgb(246,246,255)" opacity="0.84"/>
    <circle cx="47.4" cy="464.7" r="1.9" fill="rgb(222,222,255)" opacity="0.85"/>
    <circle cx="328.9" cy="1451.1" r="1.3" fill="rgb(255,255,255)" opacity="0.85"/>
    <circle cx="161.9" cy="1557.1" r="2.4" fill="rgb(207,207,255)" opacity="0.90"/>
    <circle cx="906.6" cy="271.1" r="2.9" fill="rgb(146,146,255)" opacity="0.84"/>
    <circle cx="167.0" cy="1653.2" r="2.4" fill="rgb(174,174,255)" opacity="0.77"/>
    <circle cx="815.3" cy="647.9" r="2.6" fill="rgb(185,185,255)" opacity="0.81"/>
    <circle cx="836.4" cy="536.1" r="2.1" fill="rgb(163,163,255)" opacity="0.95"/>
    <circle cx="228.5" cy="660.1" r="3.0" fill="rgb(215,215,255)" opacity="0.82"/>
    <circle cx="477.6" cy="792.9" r="2.9" fill="rgb(224,224,255)" opacity="0.84"/>
    <circle cx="729.0" cy="1040.7" r="1.6" fill="rgb(227,227,255)" opacity="0.86"/>
    <circle cx="155.8" cy="1642.1" r="1.7" fill="rgb(209,209,255)" opacity="0.89"/>
    <circle cx="645.0" cy="1093.7" r="2.4" fill="rgb(240,240,255)" opacity="0.90"/>
    <circle cx="214.9" cy="1720.3" r="2.2" fill="rgb(235,235,255)" opacity="0.92"/>
    <circle cx="953.0" cy="893.0" r="2.6" fill="rgb(143,143,255)" opacity="0.81"/>
    <circle cx="153.2" cy="324.8" r="2.6" fill="rgb(205,205,255)" opacity="0.94"/>
    <circle cx="860.4" cy="1935.1" r="2.3" fill="rgb(199,199,255)" opacity="0.89"/>
    <circle cx="409.9" cy="2263.5" r="1.0" fill="rgb(155,155,255)" opacity="0.76"/>
    <circle cx="367.5" cy="2463.7" r="2.3" fill="rgb(178,178,255)" opacity="0.83"/>
    <circle cx="560.8" cy="288.9" r="2.4" fill="rgb(238,238,255)" opacity="0.78"/>
    <circle cx="303.0" cy="1175.0" r="2.8" fill="rgb(233,233,255)" opacity="0.90"/>
    <circle cx="727.4" cy="1872.1" r="1.7" fill="rgb(199,199,255)" opacity="0.83"/>
    <circle cx="380.0" cy="808.9" r="2.9" fill="rgb(144,144,255)" opacity="0.80"/>
    <circle cx="346.2" cy="49.2" r="1.0" fill="rgb(176,176,255)" opacity="0.75"/>
    <circle cx="35.5" cy="2212.6" r="2.3" fill="rgb(178,178,255)" opacity="0.75"/>
    <circle cx="275.5" cy="1639.0" r="2.1" fill="rgb(140,140,255)" opacity="0.95"/>
    <circle cx="649.9" cy="672.9" r="2.4" fill="rgb(239,239,255)" opacity="0.83"/>
    <circle cx="395.7" cy="727.7" r="1.7" fill="rgb(201,201,255)" opacity="0.83"/>
    <circle cx="336.6" cy="199.0" r="2.3" fill="rgb(225,225,255)" opacity="0.94"/>
    <circle cx="885.0" cy="1209.7" r="1.4" fill="rgb(232,232,255)" opacity="0.88"/>
    <circle cx="927.1" cy="901.7" r="1.3" fill="rgb(240,240,255)" opacity="0.79"/>
    <circle cx="150.9" cy="2094.2" r="1.8" fill="rgb(223,223,255)" opacity="0.77"/>
    <circle cx="678.9" cy="1198.7" r="1.3" fill="rgb(156,156,255)" opacity="0.76"/>
    <circle cx="672.8" cy="1848.9" r="1.6" fill="rgb(148,148,255)" opacity="0.82"/>
    <circle cx="346.3" cy="88.0" r="1.8" fill="rgb(198,198,255)" opacity="0.93"/>
    <circle cx="117.8" cy="1731.2" r="1.5" fill="rgb(188,188,255)" opacity="0.76"/>
    <circle cx="272.3" cy="224.2" r="2.9" fill="rgb(175,175,255)" opacity="0.80"/>
    <circle cx="897.9" cy="1456.2" r="1.5" fill="rgb(205,205,255)" opacity="0.89"/>
    <circle cx="113.2" cy="853.7" r="1.4" fill="rgb(237,237,255)" opacity="0.79"/>
    <circle cx="791.9" cy="1511.2" r="2.7" fill="rgb(160,160,255)" opacity="0.92"/>
    <circle cx="982.0" cy="1941.9" r="2.9" fill="rgb(192,192,255)" opacity="0.87"/>
    <circle cx="541.5" cy="1420.8" r="1.1" fill="rgb(208,208,255)" opacity="0.92"/>
    <circle cx="214.8" cy="447.0" r="2.3" fill="rgb(146,146,255)" opacity="0.84"/>
    <circle cx="844.5" cy="2060.0" r="2.5" fill="rgb(209,209,255)" opacity="0.91"/>
    <circle cx="544.7" cy="1865.5" r="2.9" fill="rgb(152,152,255)" opacity="0.83"/>
    <circle cx="842.5" cy="880.6" r="1.6" fill="rgb(194,194,255)" opacity="0.87"/>
    <circle cx="366.6" cy="1867.1" r="2.1" fill="rgb(243,243,255)" opacity="0.91"/>
    <circle cx="392.7" cy="300.9" r="1.2" fill="rgb(202,202,255)" opacity="0.95"/>
    <circle cx="81.8" cy="542.9" r="2.3" fill="rgb(198,198,255)" opacity="0.94"/>
    <circle cx="720.3" cy="913.2" r="1.4" fill="rgb(168,168,255)" opacity="0.83"/>
    <circle cx="526.2" cy="1145.6" r="2.5" fill="rgb(177,177,255)" opacity="0.86"/>
    <circle cx="873.3" cy="2382.3" r="2.0" fill="rgb(239,239,255)" opacity="0.85"/>
    <circle cx="968.1" cy="1425.5" r="1.6" fill="rgb(168,168,255)" opacity="0.94"/>
    <circle cx="352.4" cy="1174.8" r="2.5" fill="rgb(219,219,255)" opacity="0.93"/>
    <circle cx="786.4" cy="2180.7" r="1.4" fill="rgb(176,176,255)" opacity="0.77"/>
    <circle cx="450.4" cy="591.8" r="1.9" fill="rgb(141,141,255)" opacity="0.79"/>
    <circle cx="223.0" cy="1070.4" r="1.9" fill="rgb(147,147,255)" opacity="0.76"/>
    <circle cx="19.5" cy="1848.4" r="1.5" fill="rgb(170,170,255)" opacity="0.84"/>
    <circle cx="771.9" cy="3.6" r="2.0" fill="rgb(208,208,255)" opacity="0.82"/>
    <circle cx="763.1" cy="1178.2" r="1.6" fill="rgb(204,204,255)" opacity="0.78"/>
    <circle cx="931.3" cy="1393.1" r="2.2" fill="rgb(244,244,255)" opacity="0.82"/>
    <circle cx="333.5" cy="535.2" r="2.8" fill="rgb(162,162,255)" opacity="0.89"/>
    <circle cx="887.2" cy="2403.7" r="1.7" fill="rgb(147,147,255)" opacity="0.76"/>
    <circle cx="239.3" cy="2182.5" r="1.8" fill="rgb(146,146,255)" opacity="0.78"/>
    <circle cx="855.7" cy="1403.2" r="2.2" fill="rgb(224,224,255)" opacity="0.92"/>
    <circle cx="170.4" cy="2161.9" r="2.6" fill="rgb(193,193,255)" opacity="0.88"/>
    <circle cx="425.8" cy="705.3" r="2.7" fill="rgb(205,205,255)" opacity="0.93"/>
    <circle cx="760.9" cy="862.3" r="2.9" fill="rgb(184,184,255)" opacity="0.77"/>
    <circle cx="708.8" cy="1468.9" r="1.0" fill="rgb(189,189,255)" opacity="0.76"/>
    <circle cx="278.5" cy="2206.3" r="2.0" fill="rgb(249,249,255)" opacity="0.81"/>
    <circle cx="729.8" cy="59.6" r="1.9" fill="rgb(193,193,255)" opacity="0.90"/>
    <circle cx="46.6" cy="473.9" r="1.0" fill="rgb(191,191,255)" opacity="0.85"/>
    <circle cx="411.4" cy="678.3" r="1.1" fill="rgb(206,206,255)" opacity="0.76"/>
    <circle cx="496.7" cy="1635.3" r="2.6" fill="rgb(174,174,255)" opacity="0.85"/>
    <circle cx="447.8" cy="1206.8" r="1.1" fill="rgb(158,158,255)" opacity="0.78"/>
    <circle cx="867.6" cy="2158.1" r="2.5" fill="rgb(226,226,255)" opacity="0.75"/>
    <circle cx="464.4" cy="1231.4" r="2.7" fill="rgb(146,146,255)" opacity="0.78"/>
    <circle cx="523.9" cy="1310.3" r="2.9" fill="rgb(206,206,255)" opacity="0.86"/>
    <circle cx="722.7" cy="651.3" r="2.1" fill="rgb(203,203,255)" opacity="0.91"/>
    <circle cx="741.5" cy="1629.0" r="2.1" fill="rgb(243,243,255)" opacity="0.89"/>
    <circle cx="51.4" cy="486.6" r="1.2" fill="rgb(205,205,255)" opacity="0.79"/>
    <circle cx="224.7" cy="1368.4" r="2.6" fill="rgb(204,204,255)" opacity="0.90"/>
    <circle cx="21.0" cy="1542.8" r="1.4" fill="rgb(165,165,255)" opacity="0.88"/>
    <circle cx="581.3" cy="979.6" r="1.8" fill="rgb(224,224,255)" opacity="0.93"/>
    <circle cx="212.2" cy="202.7" r="1.9" fill="rgb(167,167,255)" opacity="0.85"/>
    <circle cx="326.1" cy="2177.8" r="2.8" fill="rgb(142,142,255)" opacity="0.92"/>
    <circle cx="59.6" cy="1921.9" r="1.9" fill="rgb(232,232,255)" opacity="0.86"/>
    <circle cx="316.2" cy="539.7" r="1.3" fill="rgb(191,191,255)" opacity="0.85"/>
    <circle cx="916.2" cy="1005.5" r="1.9" fill="rgb(226,226,255)" opacity="0.84"/>
    <circle cx="546.1" cy="1124.2" r="1.2" fill="rgb(234,234,255)" opacity="0.82"/>
    <circle cx="34.7" cy="1841.1" r="2.2" fill="rgb(197,197,255)" opacity="0.87"/>
    <circle cx="387.8" cy="625.6" r="2.7" fill="rgb(253,253,255)" opacity="0.92"/>
    <circle cx="937.2" cy="2319.3" r="2.5" fill="rgb(234,234,255)" opacity="0.79"/>
    <circle cx="634.2" cy="2385.4" r="2.0" fill="rgb(214,214,255)" opacity="0.87"/>
    <circle cx="883.3" cy="772.5" r="1.5" fill="rgb(208,208,255)" opacity="0.83"/>
    <circle cx="685.7" cy="2441.5" r="1.6" fill="rgb(146,146,255)" opacity="0.77"/>
    <circle cx="376.8" cy="1505.7" r="2.6" fill="rgb(147,147,255)" opacity="0.91"/>
    <circle cx="954.6" cy="170.2" r="2.2" fill="rgb(236,236,255)" opacity="0.85"/>
    <circle cx="343.3" cy="1747.9" r="1.8" fill="rgb(158,158,255)" opacity="0.76"/>
    <circle cx="911.0" cy="588.8" r="3.0" fill="rgb(174,174,255)" opacity="0.95"/>
    <circle cx="251.2" cy="362.9" r="2.1" fill="rgb(162,162,255)" opacity="0.78"/>
    <circle cx="267.3" cy="2213.9" r="1.1" fill="rgb(206,206,255)" opacity="0.76"/>
    <circle cx="933.4" cy="757.3" r="2.3" fill="rgb(230,230,255)" opacity="0.76"/>
    <circle cx="428.7" cy="1817.0" r="2.3" fill="rgb(165,165,255)" opacity="0.83"/>
    <circle cx="990.7" cy="1812.8" r="2.4" fill="rgb(230,230,255)" opacity="0.88"/>
    <circle cx="608.2" cy="902.6" r="2.8" fill="rgb(237,237,255)" opacity="0.90"/>
    <circle cx="682.7" cy="2319.2" r="1.2" fill="rgb(159,159,255)" opacity="0.82"/>
    <circle cx="505.3" cy="1335.7" r="1.0" fill="rgb(185,185,255)" opacity="0.80"/>
    <circle cx="602.1" cy="2495.6" r="1.2" fill="rgb(212,212,255)" opacity="0.94"/>
    <circle cx="947.1" cy="128.3" r="2.5" fill="rgb(207,207,255)" opacity="0.94"/>
    <circle cx="945.0" cy="1376.1" r="1.6" fill="rgb(223,223,255)" opacity="0.85"/>
    <circle cx="710.3" cy="1951.1" r="2.9" fill="rgb(227,227,255)" opacity="0.93"/>
    <circle cx="833.6" cy="1739.6" r="1.6" fill="rgb(228,228,255)" opacity="0.93"/>
    <circle cx="462.0" cy="899.7" r="1.5" fill="rgb(221,221,255)" opacity="0.80"/>
    <circle cx="315.1" cy="517.4" r="1.0" fill="rgb(169,169,255)" opacity="0.88"/>
    <circle cx="749.7" cy="1667.4" r="1.7" fill="rgb(194,194,255)" opacity="0.90"/>
    <circle cx="246.4" cy="2488.8" r="1.4" fill="rgb(199,199,255)" opacity="0.82"/>
    <circle cx="6.8" cy="1112.8" r="2.2" fill="rgb(186,186,255)" opacity="0.93"/>
    <circle cx="277.4" cy="1398.1" r="1.3" fill="rgb(237,237,255)" opacity="0.88"/>
    <circle cx="398.3" cy="507.7" r="2.0" fill="rgb(190,190,255)" opacity="0.89"/>
    <circle cx="224.3" cy="1939.4" r="1.4" fill="rgb(199,199,255)" opacity="0.82"/>
    <circle cx="225.4" cy="2494.6" r="2.1" fill="rgb(225,225,255)" opacity="0.87"/>
    <circle cx="334.7" cy="356.7" r="1.6" fill="rgb(158,158,255)" opacity="0.80"/>
    <circle cx="801.1" cy="577.6" r="1.8" fill="rgb(232,232,255)" opacity="0.75"/>
    <circle cx="5.6" cy="1942.0" r="1.3" fill="rgb(143,143,255)" opacity="0.77"/>
    <circle cx="174.6" cy="1063.4" r="2.2" fill="rgb(142,142,255)" opacity="0.94"/>
    <circle cx="670.6" cy="136.3" r="1.7" fill="rgb(186,186,255)" opacity="0.82"/>
    <circle cx="925.8" cy="1439.6" r="2.9" fill="rgb(148,148,255)" opacity="0.88"/>
    <circle cx="515.8" cy="612.7" r="1.8" fill="rgb(139,139,255)" opacity="0.82"/>
    <circle cx="154.2" cy="1788.0" r="2.9" fill="rgb(145,145,255)" opacity="0.86"/>
    <circle cx="774.8" cy="809.3" r="1.8" fill="rgb(243,243,255)" opacity="0.77"/>
    <circle cx="688.4" cy="2270.8" r="2.6" fill="rgb(207,207,255)" opacity="0.95"/>
    <circle cx="116.9" cy="2320.6" r="2.4" fill="rgb(199,199,255)" opacity="0.75"/>
    <circle cx="425.1" cy="1611.7" r="1.6" fill="rgb(219,219,255)" opacity="0.95"/>
    <circle cx="237.4" cy="922.9" r="2.8" fill="rgb(192,192,255)" opacity="0.80"/>
    <circle cx="441.0" cy="1824.7" r="1.7" fill="rgb(183,183,255)" opacity="0.81"/>
    <circle cx="353.3" cy="125.7" r="2.8" fill="rgb(243,243,255)" opacity="0.93"/>
    <circle cx="144.5" cy="284.2" r="1.3" fill="rgb(210,210,255)" opacity="0.77"/>
    <circle cx="951.3" cy="820.4" r="1.4" fill="rgb(158,158,255)" opacity="0.79"/>
    <circle cx="608.2" cy="234.4" r="1.9" fill="rgb(249,249,255)" opacity="0.86"/>
    <circle cx="700.6" cy="844.8" r="1.9" fill="rgb(245,245,255)" opacity="0.77"/>
    <circle cx="515.2" cy="2089.3" r="1.6" fill="rgb(166,166,255)" opacity="0.82"/>
    <circle cx="105.4" cy="342.4" r="2.8" fill="rgb(147,147,255)" opacity="0.80"/>
    <circle cx="869.4" cy="1068.0" r="2.9" fill="rgb(160,160,255)" opacity="0.82"/>
    <circle cx="87.7" cy="793.4" r="1.5" fill="rgb(233,233,255)" opacity="0.77"/>
    <circle cx="354.4" cy="1581.1" r="2.5" fill="rgb(199,199,255)" opacity="0.82"/>
    <circle cx="284.6" cy="180.7" r="1.4" fill="rgb(238,238,255)" opacity="0.87"/>
    <circle cx="750.2" cy="484.7" r="1.4" fill="rgb(145,145,255)" opacity="0.84"/>
    <circle cx="96.7" cy="1373.7" r="2.1" fill="rgb(194,194,255)" opacity="0.86"/>
    <circle cx="661.9" cy="2147.8" r="2.5" fill="rgb(165,165,255)" opacity="0.82"/>
    <circle cx="986.7" cy="1355.1" r="1.7" fill="rgb(232,232,255)" opacity="0.80"/>
    <circle cx="510.9" cy="656.6" r="1.2" fill="rgb(197,197,255)" opacity="0.76"/>
    <circle cx="9.2" cy="1202.5" r="1.0" fill="rgb(152,152,255)" opacity="0.76"/>
    <circle cx="279.8" cy="842.5" r="2.8" fill="rgb(209,209,255)" opacity="0.85"/>
    <circle cx="390.7" cy="2260.0" r="3.0" fill="rgb(212,212,255)" opacity="0.83"/>
    <circle cx="111.5" cy="386.0" r="2.9" fill="rgb(249,249,255)" opacity="0.82"/>
    <circle cx="376.5" cy="1824.1" r="1.8" fill="rgb(203,203,255)" opacity="0.76"/>
    <circle cx="335.8" cy="1026.4" r="1.9" fill="rgb(145,145,255)" opacity="0.92"/>
    <circle cx="79.2" cy="529.2" r="1.1" fill="rgb(145,145,255)" opacity="0.92"/>
    <circle cx="597.6" cy="2098.7" r="3.0" fill="rgb(201,201,255)" opacity="0.75"/>
    <circle cx="849.4" cy="2335.1" r="1.7" fill="rgb(161,161,255)" opacity="0.95"/>
    <circle cx="393.9" cy="2424.6" r="2.5" fill="rgb(198,198,255)" opacity="0.90"/>
    <circle cx="967.9" cy="1889.7" r="2.1" fill="rgb(209,209,255)" opacity="0.80"/>
    <circle cx="841.3" cy="1659.0" r="2.0" fill="rgb(185,185,255)" opacity="0.92"/>
    <circle cx="24.8" cy="2304.4" r="1.0" fill="rgb(207,207,255)" opacity="0.91"/>
    <circle cx="889.4" cy="497.3" r="1.1" fill="rgb(143,143,255)" opacity="0.86"/>
    <circle cx="607.2" cy="2377.4" r="1.8" fill="rgb(167,167,255)" opacity="0.77"/>
    <circle cx="475.0" cy="1855.8" r="1.2" fill="rgb(148,148,255)" opacity="0.87"/>
    <circle cx="213.7" cy="715.3" r="1.2" fill="rgb(208,208,255)" opacity="0.92"/>
    <circle cx="742.1" cy="1362.3" r="2.5" fill="rgb(230,230,255)" opacity="0.85"/>
    <circle cx="972.3" cy="1074.8" r="2.5" fill="rgb(169,169,255)" opacity="0.90"/>
    <circle cx="742.3" cy="1864.1" r="2.9" fill="rgb(216,216,255)" opacity="0.95"/>
    <circle cx="330.4" cy="1680.7" r="1.5" fill="rgb(236,236,255)" opacity="0.94"/>
    <circle cx="332.3" cy="498.2" r="2.1" fill="rgb(243,243,255)" opacity="0.88"/>
    <circle cx="579.9" cy="1897.6" r="2.6" fill="rgb(150,150,255)" opacity="0.80"/>
    <circle cx="956.7" cy="1547.1" r="1.3" fill="rgb(205,205,255)" opacity="0.78"/>
    <circle cx="941.1" cy="1157.3" r="1.5" fill="rgb(180,180,255)" opacity="0.88"/>
    <circle cx="850.6" cy="1722.8" r="1.2" fill="rgb(180,180,255)" opacity="0.87"/>
    <circle cx="62.3" cy="2350.8" r="1.9" fill="rgb(155,155,255)" opacity="0.84"/>
    <circle cx="527.7" cy="390.2" r="1.8" fill="rgb(169,169,255)" opacity="0.79"/>
    <circle cx="610.9" cy="1018.4" r="1.4" fill="rgb(159,159,255)" opacity="0.83"/>
    <circle cx="295.5" cy="1032.9" r="1.7" fill="rgb(155,155,255)" opacity="0.94"/>
    <circle cx="389.9" cy="565.7" r="1.6" fill="rgb(209,209,255)" opacity="0.79"/>
    <circle cx="376.8" cy="1132.5" r="1.1" fill="rgb(183,183,255)" opacity="0.86"/>
    <circle cx="987.5" cy="1429.9" r="1.0" fill="rgb(156,156,255)" opacity="0.94"/>
    <circle cx="803.4" cy="1766.1" r="1.8" fill="rgb(247,247,255)" opacity="0.88"/>
    <circle cx="754.0" cy="1469.8" r="1.2" fill="rgb(248,248,255)" opacity="0.91"/>
    <circle cx="919.8" cy="1255.7" r="1.2" fill="rgb(193,193,255)" opacity="0.88"/>
    <circle cx="175.9" cy="960.0" r="1.7" fill="rgb(203,203,255)" opacity="0.94"/>
    <circle cx="488.9" cy="1094.0" r="2.9" fill="rgb(245,245,255)" opacity="0.79"/>
    <circle cx="624.1" cy="2105.7" r="2.5" fill="rgb(244,244,255)" opacity="0.81"/>
    <circle cx="470.8" cy="1598.4" r="2.7" fill="rgb(173,173,255)" opacity="0.91"/>
    <circle cx="678.4" cy="705.2" r="2.0" fill="rgb(211,211,255)" opacity="0.91"/>
    <circle cx="573.5" cy="2060.6" r="1.6" fill="rgb(186,186,255)" opacity="0.93"/>
    <circle cx="83.6" cy="1955.0" r="2.7" fill="rgb(215,215,255)" opacity="0.76"/>
    <circle cx="742.0" cy="82.9" r="1.2" fill="rgb(147,147,255)" opacity="0.83"/>
    <circle cx="141.2" cy="2164.5" r="1.7" fill="rgb(179,179,255)" opacity="0.77"/>
    <circle cx="278.1" cy="6.6" r="2.2" fill="rgb(157,157,255)" opacity="0.84"/>
    <circle cx="992.9" cy="2481.5" r="1.5" fill="rgb(145,145,255)" opacity="0.75"/>
    <circle cx="13.4" cy="595.9" r="1.9" fill="rgb(170,170,255)" opacity="0.81"/>
    <circle cx="402.1" cy="791.7" r="2.7" fill="rgb(187,187,255)" opacity="0.78"/>
    <circle cx="971.1" cy="490.6" r="2.4" fill="rgb(150,150,255)" opacity="0.80"/>
    <circle cx="313.5" cy="2297.7" r="2.2" fill="rgb(178,178,255)" opacity="0.80"/>
    <circle cx="735.5" cy="1399.7" r="1.2" fill="rgb(140,140,255)" opacity="0.83"/>
    <circle cx="816.3" cy="698.9" r="2.8" fill="rgb(185,185,255)" opacity="0.80"/>
    <circle cx="198.1" cy="2481.1" r="1.3" fill="rgb(212,212,255)" opacity="0.86"/>
    <circle cx="667.9" cy="1961.4" r="1.9" fill="rgb(198,198,255)" opacity="0.78"/>
    <circle cx="265.3" cy="924.8" r="1.3" fill="rgb(145,145,255)" opacity="0.95"/>
    <circle cx="964.4" cy="1786.2" r="1.3" fill="rgb(147,147,255)" opacity="0.85"/>
    <circle cx="649.4" cy="2064.2" r="2.3" fill="rgb(227,227,255)" opacity="0.86"/>
    <circle cx="692.2" cy="434.6" r="2.8" fill="rgb(152,152,255)" opacity="0.95"/>
    <circle cx="428.6" cy="399.4" r="2.7" fill="rgb(228,228,255)" opacity="0.90"/>
    <circle cx="958.7" cy="1835.4" r="2.7" fill="rgb(251,251,255)" opacity="0.89"/>
    <circle cx="224.6" cy="8.4" r="2.0" fill="rgb(174,174,255)" opacity="0.76"/>
    <circle cx="187.9" cy="36.0" r="1.8" fill="rgb(162,162,255)" opacity="0.82"/>
    <circle cx="845.3" cy="1671.0" r="2.4" fill="rgb(212,212,255)" opacity="0.79"/>
    <circle cx="466.1" cy="502.6" r="1.6" fill="rgb(187,187,255)" opacity="0.87"/>
    <circle cx="231.3" cy="849.7" r="2.2" fill="rgb(200,200,255)" opacity="0.82"/>
    <circle cx="378.1" cy="864.7" r="1.5" fill="rgb(143,143,255)" opacity="0.85"/>
    <circle cx="781.0" cy="101.3" r="2.3" fill="rgb(170,170,255)" opacity="0.91"/>
    <circle cx="660.7" cy="216.1" r="1.8" fill="rgb(227,227,255)" opacity="0.82"/>
    <circle cx="202.1" cy="2269.3" r="2.9" fill="rgb(202,202,255)" opacity="0.78"/>
    <circle cx="362.2" cy="1139.5" r="2.2" fill="rgb(149,149,255)" opacity="0.81"/>
    <circle cx="38.9" cy="2002.5" r="1.2" fill="rgb(232,232,255)" opacity="0.95"/>
    <circle cx="488.8" cy="1697.7" r="1.3" fill="rgb(220,220,255)" opacity="0.95"/>
    <circle cx="821.4" cy="2255.6" r="1.7" fill="rgb(225,225,255)" opacity="0.89"/>
    <circle cx="92.0" cy="365.9" r="1.5" fill="rgb(226,226,255)" opacity="0.84"/>
    <circle cx="704.4" cy="164.4" r="1.5" fill="rgb(206,206,255)" opacity="0.77"/>
    <circle cx="179.2" cy="1676.0" r="1.6" fill="rgb(143,143,255)" opacity="0.85"/>
    <circle cx="654.6" cy="24.3" r="2.7" fill="rgb(139,139,255)" opacity="0.86"/>
    <circle cx="69.8" cy="2169.1" r="1.4" fill="rgb(248,248,255)" opacity="0.76"/>
    <circle cx="741.1" cy="442.3" r="2.6" fill="rgb(143,143,255)" opacity="0.80"/>
    <circle cx="734.2" cy="1941.6" r="2.9" fill="rgb(239,239,255)" opacity="0.90"/>
    <circle cx="890.8" cy="828.1" r="1.3" fill="rgb(235,235,255)" opacity="0.92"/>
    <circle cx="85.3" cy="123.0" r="1.4" fill="rgb(189,189,255)" opacity="0.89"/>
    <circle cx="683.5" cy="301.7" r="1.1" fill="rgb(212,212,255)" opacity="0.87"/>
    <circle cx="204.8" cy="2019.7" r="1.7" fill="rgb(231,231,255)" opacity="0.81"/>
    <circle cx="607.2" cy="410.2" r="2.2" fill="rgb(201,201,255)" opacity="0.79"/>
    <circle cx="881.9" cy="915.0" r="2.8" fill="rgb(165,165,255)" opacity="0.75"/>
    <circle cx="859.6" cy="1305.3" r="3.0" fill="rgb(172,172,255)" opacity="0.87"/>
    <circle cx="959.6" cy="2130.9" r="1.7" fill="rgb(220,220,255)" opacity="0.88"/>
    <circle cx="202.7" cy="1541.0" r="2.1" fill="rgb(224,224,255)" opacity="0.83"/>
    <circle cx="439.1" cy="1701.4" r="2.0" fill="rgb(210,210,255)" opacity="0.86"/>
    <circle cx="199.7" cy="1586.9" r="1.0" fill="rgb(146,146,255)" opacity="0.95"/>
    <circle cx="467.5" cy="1136.1" r="2.3" fill="rgb(254,254,255)" opacity="0.82"/>
    <circle cx="15.4" cy="1038.2" r="1.5" fill="rgb(235,235,255)" opacity="0.90"/>
    <circle cx="16.1" cy="1723.9" r="2.5" fill="rgb(145,145,255)" opacity="0.77"/>
    <circle cx="847.7" cy="169.3" r="2.0" fill="rgb(159,159,255)" opacity="0.85"/>
  <!-- Orange/Red Stars with Enhanced Halos -->
    <g transform="rotate(330.6834158693188 662.0606217116375 2424.766666997266)" filter="url(#orangeGlow)">
      <ellipse cx="662.1" cy="2424.8" rx="9.1" ry="2.2" fill="rgb(255,123,0)" opacity="0.67"/>
      <ellipse cx="662.1" cy="2424.8" rx="2.7" ry="0.6" fill="white" opacity="0.80"/>
    </g>
    <g transform="rotate(56.60544018037244 35.57676164972978 16.276198441472765)" filter="url(#orangeGlow)">
      <ellipse cx="35.6" cy="16.3" rx="15.7" ry="5.0" fill="rgb(255,105,0)" opacity="0.71"/>
      <ellipse cx="35.6" cy="16.3" rx="4.7" ry="1.5" fill="white" opacity="0.80"/>
    </g>
    <g transform="rotate(239.45905354307948 394.9291113366903 706.4927965761641)" filter="url(#orangeGlow)">
      <ellipse cx="394.9" cy="706.5" rx="5.5" ry="1.9" fill="rgb(255,118,0)" opacity="0.81"/>
      <ellipse cx="394.9" cy="706.5" rx="1.7" ry="0.6" fill="white" opacity="0.80"/>
    </g>
    <g transform="rotate(166.86431215102164 80.16811591368422 1158.0493787190098)" filter="url(#orangeGlow)">
      <ellipse cx="80.2" cy="1158.0" rx="6.7" ry="1.7" fill="rgb(255,190,0)" opacity="0.77"/>
      <ellipse cx="80.2" cy="1158.0" rx="2.0" ry="0.5" fill="white" opacity="0.80"/>
    </g>
    <g transform="rotate(216.29720131673758 212.90883244202564 130.31542688079435)" filter="url(#orangeGlow)">
      <ellipse cx="212.9" cy="130.3" rx="11.9" ry="2.3" fill="rgb(255,12,0)" opacity="0.80"/>
      <ellipse cx="212.9" cy="130.3" rx="3.6" ry="0.7" fill="white" opacity="0.80"/>
    </g>
    <g transform="rotate(258.6327796116363 307.507991367151 1601.5739875116712)" filter="url(#orangeGlow)">
      <ellipse cx="307.5" cy="1601.6" rx="3.9" ry="1.5" fill="rgb(255,71,0)" opacity="0.91"/>
      <ellipse cx="307.5" cy="1601.6" rx="1.2" ry="0.4" fill="white" opacity="0.80"/>
    </g>
    <g transform="rotate(3.4057471324073063 606.5493773201737 69.51524426794393)" filter="url(#orangeGlow)">
      <ellipse cx="606.5" cy="69.5" rx="15.8" ry="4.3" fill="rgb(255,186,0)" opacity="0.94"/>
      <ellipse cx="606.5" cy="69.5" rx="4.7" ry="1.3" fill="white" opacity="0.80"/>
    </g>
    <g transform="rotate(271.4578983034951 12.552631056613194 504.7970375261734)" filter="url(#orangeGlow)">
      <ellipse cx="12.6" cy="504.8" rx="11.3" ry="3.3" fill="rgb(255,100,0)" opacity="0.61"/>
      <ellipse cx="12.6" cy="504.8" rx="3.4" ry="1.0" fill="white" opacity="0.80"/>
    </g>
    <g transform="rotate(68.47345170059207 46.965452127814224 1109.5700896406083)" filter="url(#orangeGlow)">
      <ellipse cx="47.0" cy="1109.6" rx="6.1" ry="2.7" fill="rgb(255,129,0)" opacity="0.91"/>
      <ellipse cx="47.0" cy="1109.6" rx="1.8" ry="0.8" fill="white" opacity="0.80"/>
    </g>
    <g transform="rotate(339.93897897478485 334.5881013783359 582.4775683268191)" filter="url(#orangeGlow)">
      <ellipse cx="334.6" cy="582.5" rx="8.8" ry="3.7" fill="rgb(255,16,0)" opacity="0.91"/>
      <ellipse cx="334.6" cy="582.5" rx="2.6" ry="1.1" fill="white" opacity="0.80"/>
    </g>
    <g transform="rotate(42.64140491163268 273.13317997849873 1967.9699360896966)" filter="url(#orangeGlow)">
      <ellipse cx="273.1" cy="1968.0" rx="16.7" ry="5.0" fill="rgb(255,83,0)" opacity="0.64"/>
      <ellipse cx="273.1" cy="1968.0" rx="5.0" ry="1.5" fill="white" opacity="0.80"/>
    </g>
    <g transform="rotate(6.466326143116747 492.15028663144346 1388.917163663264)" filter="url(#orangeGlow)">
      <ellipse cx="492.2" cy="1388.9" rx="16.2" ry="4.5" fill="rgb(255,93,0)" opacity="0.50"/>
      <ellipse cx="492.2" cy="1388.9" rx="4.9" ry="1.4" fill="white" opacity="0.80"/>
    </g>
    <g transform="rotate(97.41842462555091 711.6045116635728 548.2568348004673)" filter="url(#orangeGlow)">
      <ellipse cx="711.6" cy="548.3" rx="6.2" ry="2.7" fill="rgb(255,105,0)" opacity="0.69"/>
      <ellipse cx="711.6" cy="548.3" rx="1.9" ry="0.8" fill="white" opacity="0.80"/>
    </g>
    <g transform="rotate(131.91110025787376 209.24847087659626 2365.347618747863)" filter="url(#orangeGlow)">
      <ellipse cx="209.2" cy="2365.3" rx="9.7" ry="2.7" fill="rgb(255,0,0)" opacity="0.84"/>
      <ellipse cx="209.2" cy="2365.3" rx="2.9" ry="0.8" fill="white" opacity="0.80"/>
    </g>
    <g transform="rotate(112.98222421262783 803.7043593465263 1715.479413153413)" filter="url(#orangeGlow)">
      <ellipse cx="803.7" cy="1715.5" rx="8.2" ry="4.7" fill="rgb(255,0,0)" opacity="0.96"/>
      <ellipse cx="803.7" cy="1715.5" rx="2.5" ry="1.4" fill="white" opacity="0.80"/>
    </g>
    <g transform="rotate(202.32057088019582 344.92261730257513 731.8208812701499)" filter="url(#orangeGlow)">
      <ellipse cx="344.9" cy="731.8" rx="16.0" ry="4.8" fill="rgb(255,59,0)" opacity="0.67"/>
      <ellipse cx="344.9" cy="731.8" rx="4.8" ry="1.4" fill="white" opacity="0.80"/>
    </g>
    <g transform="rotate(89.09669469648094 426.48544570608914 1172.4881702116425)" filter="url(#orangeGlow)">
      <ellipse cx="426.5" cy="1172.5" rx="13.8" ry="3.1" fill="rgb(255,99,0)" opacity="0.54"/>
      <ellipse cx="426.5" cy="1172.5" rx="4.1" ry="0.9" fill="white" opacity="0.80"/>
    </g>
    <g transform="rotate(177.28000567784073 813.5313077901841 986.3809299417472)" filter="url(#orangeGlow)">
      <ellipse cx="813.5" cy="986.4" rx="7.0" ry="1.4" fill="rgb(255,75,0)" opacity="0.62"/>
      <ellipse cx="813.5" cy="986.4" rx="2.1" ry="0.4" fill="white" opacity="0.80"/>
    </g>
    <g transform="rotate(217.24723736990902 888.4774728469367 2050.99963553206)" filter="url(#orangeGlow)">
      <ellipse cx="888.5" cy="2051.0" rx="11.8" ry="4.4" fill="rgb(255,122,0)" opacity="0.92"/>
      <ellipse cx="888.5" cy="2051.0" rx="3.5" ry="1.3" fill="white" opacity="0.80"/>
    </g>
    <g transform="rotate(239.40896427667812 928.8672582314579 1662.9116080850426)" filter="url(#orangeGlow)">
      <ellipse cx="928.9" cy="1662.9" rx="14.0" ry="3.6" fill="rgb(255,8,0)" opacity="0.83"/>
      <ellipse cx="928.9" cy="1662.9" rx="4.2" ry="1.1" fill="white" opacity="0.80"/>
    </g>
</svg>