<?xml version="1.0" encoding="UTF-8"?>
<svg width="1000" height="1000" viewBox="-500 -500 1000 1000" xmlns="http://www.w3.org/2000/svg">
    <rect width="1000" height="1000" x="-500" y="-500" fill="black" />
            <g transform="translate(218.20173977927314, -75.51695675342312)">
                <?xml version="1.0" encoding="UTF-8"?>
<svg width="1000" height="1000" viewBox="-500 -500 1000 1000" xmlns="http://www.w3.org/2000/svg">
    <defs>
        <filter id="galaxyBlur">
            <feGaussianBlur in="SourceGraphic" stdDeviation="2" />
        </filter>
    </defs>
            <path d="M 2.4968154542632734,0.0 L 8.303263416425366,1.251594303721611 L 19.671281140547002,2.167824924509623 L 24.563831217887167,2.5031886074432226 L 17.17446568628374,2.1678249245096235 L 3.978652192518211,1.251594303721611 L -2.4968154542632734,3.065521915767463e-16 L 3.978652192518216,-1.2515943037216115 L 17.174465686283718,-2.1678249245096226 L 24.563831217887167,-2.5031886074432226 L 19.671281140547002,-2.167824924509623 L 8.303263416425379,-1.2515943037216124 L 2.4968154542632734,-6.131043831534926e-16 Z" fill="rgb(208, 56, 47)" opacity="1" filter="url(#galaxyBlur)" />
            <path d="M 4.993630908526547,0.0 L 28.88844244179431,2.503188607443222 L 76.18830910792474,4.335649849019246 L 98.25532487154867,5.006377214886445 L 71.19467819939823,4.335649849019247 L 20.23921999398,2.503188607443222 L -4.993630908526547,6.131043831534926e-16 L 20.23921999398002,-2.503188607443223 L 71.19467819939815,-4.335649849019245 L 98.25532487154867,-5.006377214886445 L 76.18830910792474,-4.335649849019246 L 28.88844244179436,-2.503188607443225 L 4.993630908526547,-1.2262087663069852e-15 Z" fill="rgb(208, 56, 47)" opacity="0.5" filter="url(#galaxyBlur)" />
            <path d="M 9.987261817053094,0.0 L 106.90454731936293,5.006377214886444 L 299.7596055231724,8.671299698038492 L 393.02129948619466,10.01275442977289 L 289.77234370611944,8.671299698038494 L 89.60610242373431,5.006377214886444 L -9.987261817053094,1.2262087663069852e-15 L 89.60610242373438,-5.006377214886446 L 289.77234370611916,-8.67129969803849 L 393.02129948619466,-10.01275442977289 L 299.7596055231724,-8.671299698038492 L 106.90454731936313,-5.00637721488645 L 9.987261817053094,-2.4524175326139705e-15 Z" fill="white" opacity="0.1" filter="url(#galaxyBlur)" />
            <path d="M 1.2484077271316367,0.0 L 2.616392257094736,0.6257971518608055 L 5.22992221691966,1.0839124622548115 L 6.140957804471792,1.2515943037216113 L 3.9815144897880255,1.0839124622548117 L 0.45408664514115826,0.6257971518608055 L -1.2484077271316367,1.5327609578837315e-16 L 0.4540866451411596,-0.6257971518608058 L 3.98151448978802,-1.0839124622548113 L 6.140957804471792,-1.2515943037216113 L 5.22992221691966,-1.0839124622548115 L 2.6163922570947387,-0.6257971518608062 L 1.2484077271316367,-3.065521915767463e-16 Z" fill="white" opacity="0.5" filter="url(#galaxyBlur)" />
</svg>
            </g>
            <g transform="translate(-15.709703887270043, -152.89504636767762)">
                <?xml version="1.0" encoding="UTF-8"?>
<svg width="1000" height="1000" viewBox="-500 -500 1000 1000" xmlns="http://www.w3.org/2000/svg">
    <defs>
        <filter id="galaxyBlur">
            <feGaussianBlur in="SourceGraphic" stdDeviation="2" />
        </filter>
    </defs>
            <path d="M 2.492824488248833,0.0 L 4.8886156179747555,1.25359808311064 L 9.435711096050385,2.1712955722185807 L 10.919065135901297,2.5071961662212807 L 6.942886607801556,2.171295572218581 L 0.5709169499758899,1.25359808311064 L -2.492824488248833,3.0704297597974065e-16 L 0.5709169499758935,-1.2535980831106406 L 6.942886607801549,-2.1712955722185803 L 10.919065135901297,-2.5071961662212807 L 9.435711096050385,-2.1712955722185807 L 4.888615617974761,-1.2535980831106415 L 2.492824488248833,-6.140859519594813e-16 Z" fill="rgb(241, 121, 14)" opacity="1" filter="url(#galaxyBlur)" />
            <path d="M 4.985648976497666,0.0 L 15.236763803900155,2.50719616622128 L 35.25001989595271,4.342591144437161 L 43.67626054360519,5.014392332442561 L 30.264370919455057,4.342591144437162 L 6.601366467902425,2.50719616622128 L -4.985648976497666,6.140859519594813e-16 L 6.601366467902438,-2.507196166221281 L 30.264370919455033,-4.3425911444371605 L 43.67626054360519,-5.014392332442561 L 35.25001989595271,-4.342591144437161 L 15.23676380390018,-2.507196166221283 L 4.985648976497666,-1.2281719039189626e-15 Z" fill="rgb(241, 121, 14)" opacity="0.5" filter="url(#galaxyBlur)" />
            <path d="M 9.971297952995332,0.0 L 52.31165787960289,5.01439233244256 L 136.01443060731316,8.685182288874323 L 174.70504217442075,10.028784664885123 L 126.0431326543179,8.685182288874325 L 35.04086320760743,5.01439233244256 L -9.971297952995332,1.2281719039189626e-15 L 35.04086320760748,-5.014392332442562 L 126.0431326543178,-8.685182288874321 L 174.70504217442075,-10.028784664885123 L 136.01443060731316,-8.685182288874323 L 52.31165787960299,-5.014392332442566 L 9.971297952995332,-2.4563438078379252e-15 Z" fill="white" opacity="0.1" filter="url(#galaxyBlur)" />
            <path d="M 1.2464122441244165,0.0 L 1.761866237993547,0.62679904155532 L 2.6705308350437007,1.0856477861092904 L 2.7297662839753243,1.2535980831106404 L 1.424118590919285,1.0856477861092906 L -0.39698309600588566,0.62679904155532 L -1.2464122441244165,1.5352148798987033e-16 L -0.39698309600588466,-0.6267990415553203 L 1.4241185909192828,-1.0856477861092901 L 2.729766283975324,-1.2535980831106404 L 2.6705308350437007,-1.0856477861092904 L 1.7618662379935481,-0.6267990415553207 L 1.2464122441244165,-3.0704297597974065e-16 Z" fill="white" opacity="0.5" filter="url(#galaxyBlur)" />
</svg>
            </g>
            <g transform="translate(198.2989940069223, -0.6316453455792634)">
                <?xml version="1.0" encoding="UTF-8"?>
<svg width="1000" height="1000" viewBox="-500 -500 1000 1000" xmlns="http://www.w3.org/2000/svg">
    <defs>
        <filter id="galaxyBlur">
            <feGaussianBlur in="SourceGraphic" stdDeviation="2" />
        </filter>
    </defs>
            <path d="M 2.4956842813147913,0.0 L 6.694759763931172,1.252161590869847 L 14.848143470118554,2.1688074946728486 L 18.13373510594822,2.5043231817396943 L 12.352459188803772,2.168807494672849 L 2.3721077890429343,1.252161590869847 L -2.4956842813147913,3.066911368548032e-16 L 2.3721077890429383,-1.2521615908698474 L 12.352459188803758,-2.168807494672848 L 18.13373510594822,-2.5043231817396943 L 14.848143470118554,-2.1688074946728486 L 6.694759763931181,-1.2521615908698482 L 2.4956842813147913,-6.133822737096064e-16 Z" fill="rgb(219, 77, 36)" opacity="1" filter="url(#galaxyBlur)" />
            <path d="M 4.9913685626295825,0.0 L 22.45638708083645,2.504323181739694 L 56.89688959915943,4.337614989345697 L 72.53494042379288,5.0086463634793885 L 51.90552103652988,4.337614989345698 L 13.811083131059974,2.504323181739694 L -4.9913685626295825,6.133822737096064e-16 L 13.81108313105999,-2.5043231817396947 L 51.90552103652983,-4.337614989345696 L 72.53494042379288,-5.0086463634793885 L 56.89688959915943,-4.337614989345697 L 22.456387080836485,-2.5043231817396965 L 4.9913685626295825,-1.2267645474192128e-15 Z" fill="rgb(219, 77, 36)" opacity="0.5" filter="url(#galaxyBlur)" />
            <path d="M 9.982737125259165,0.0 L 81.18024437356932,5.008646363479388 L 222.59618983400813,8.675229978691394 L 290.1397616951715,10.017292726958777 L 212.6134527087491,8.675229978691396 L 63.88963647401637,5.008646363479388 L -9.982737125259165,1.2267645474192128e-15 L 63.88963647401643,-5.008646363479389 L 212.6134527087489,-8.675229978691393 L 290.1397616951715,-10.017292726958777 L 222.59618983400813,-8.675229978691394 L 81.18024437356948,-5.008646363479393 L 9.982737125259165,-2.4535290948384255e-15 Z" fill="white" opacity="0.1" filter="url(#galaxyBlur)" />
            <path d="M 1.2478421406573956,0.0 L 2.2140214378438223,0.6260807954349235 L 4.023996402693988,1.0844037473364243 L 4.533433776487055,1.2521615908698471 L 2.776154262036594,1.0844037473364245 L 0.052695450399703914,0.6260807954349235 L -1.2478421406573956,1.533455684274016e-16 L 0.052695450399705024,-0.6260807954349237 L 2.7761542620365907,-1.084403747336424 L 4.533433776487055,-1.2521615908698471 L 4.023996402693988,-1.0844037473364243 L 2.2140214378438245,-0.6260807954349241 L 1.2478421406573956,-3.066911368548032e-16 Z" fill="white" opacity="0.5" filter="url(#galaxyBlur)" />
</svg>
            </g>
            <g transform="translate(-122.87954185960534, 210.10515984233587)">
                <?xml version="1.0" encoding="UTF-8"?>
<svg width="1000" height="1000" viewBox="-500 -500 1000 1000" xmlns="http://www.w3.org/2000/svg">
    <defs>
        <filter id="galaxyBlur">
            <feGaussianBlur in="SourceGraphic" stdDeviation="2" />
        </filter>
    </defs>
            <path d="M 2.4971337796544217,0.0 L 8.9846904408719,1.2514347551024951 L 21.71489434295597,2.167548578195037 L 27.288436604171675,2.5028695102049907 L 19.217760563301557,2.1675485781950377 L 4.659527861213935,1.2514347551024951 L -2.4971337796544217,3.0651311343560457e-16 L 4.65952786121394,-1.2514347551024956 L 19.217760563301535,-2.1675485781950368 L 27.288436604171675,-2.5028695102049907 L 21.71489434295597,-2.167548578195037 L 8.984690440871912,-1.2514347551024965 L 2.4971337796544217,-6.130262268712091e-16 Z" fill="rgb(252, 144, 3)" opacity="1" filter="url(#galaxyBlur)" />
            <path d="M 4.9942675593088435,0.0 L 31.613599183829635,2.5028695102049903 L 84.36244359216946,4.335097156390074 L 109.1537464166867,5.005739020409981 L 79.36817603286065,4.335097156390075 L 22.9632740245137,2.5028695102049903 L -4.9942675593088435,6.130262268712091e-16 L 22.963274024513723,-2.502869510204991 L 79.36817603286057,-4.3350971563900735 L 109.1537464166867,-5.005739020409981 L 84.36244359216946,-4.335097156390074 L 31.613599183829688,-2.502869510204993 L 4.9942675593088435,-1.2260524537424183e-15 Z" fill="rgb(252, 144, 3)" opacity="0.5" filter="url(#galaxyBlur)" />
            <path d="M 9.988535118617687,0.0 L 117.8040715760026,5.0057390204099805 L 332.455506809369,8.670194312780149 L 436.6149856667468,10.011478040819963 L 322.4669716907514,8.67019431278015 L 100.50342125737075,5.0057390204099805 L -9.988535118617687,1.2260524537424183e-15 L 100.50342125737082,-5.005739020409982 L 322.4669716907511,-8.670194312780147 L 436.6149856667468,-10.011478040819963 L 332.455506809369,-8.670194312780149 L 117.80407157600283,-5.005739020409986 L 9.988535118617687,-2.4521049074848366e-15 Z" fill="white" opacity="0.1" filter="url(#galaxyBlur)" />
            <path d="M 1.2485668898272109,0.0 L 2.7868179326752207,0.6257173775512476 L 5.740865308195795,1.0837742890975186 L 6.822109151042919,1.2514347551024954 L 4.492298418368586,1.0837742890975188 L 0.624236642846238,0.6257173775512476 L -1.2485668898272109,1.5325655671780229e-16 L 0.6242366428462394,-0.6257173775512478 L 4.4922984183685815,-1.0837742890975184 L 6.822109151042919,-1.2514347551024954 L 5.740865308195795,-1.0837742890975186 L 2.7868179326752234,-0.6257173775512482 L 1.2485668898272109,-3.0651311343560457e-16 Z" fill="white" opacity="0.5" filter="url(#galaxyBlur)" />
</svg>
            </g>
        <g><?xml version="1.0" encoding="UTF-8"?>
<svg width="1000" height="1000" viewBox="-500 -500 1000 1000" xmlns="http://www.w3.org/2000/svg">
    <defs>
        <filter id="spike-blur">
            <feGaussianBlur in="SourceGraphic" stdDeviation="1" />
        </filter>
    </defs>
            <path d="M -1.2246467991473533e-15 -20.0
                      L 0.0 0.0
                      L 0.0 0.0" fill="rgb(255,200,200)" opacity="1" filter="url(#spike-blur)" />
            <path d="M 17.320508075688775 -9.999999999999998
                      L 0.0 0.0
                      L -0.0 0.0" fill="rgb(255,200,200)" opacity="1" filter="url(#spike-blur)" />
            <path d="M 17.32050807568877 10.000000000000002
                      L -0.0 0.0
                      L 0.0 -0.0" fill="rgb(255,200,200)" opacity="1" filter="url(#spike-blur)" />
            <path d="M 3.673940397442059e-15 20.0
                      L -0.0 0.0
                      L 0.0 -0.0" fill="rgb(255,200,200)" opacity="1" filter="url(#spike-blur)" />
            <path d="M -17.320508075688767 10.000000000000009
                      L 0.0 -0.0
                      L 0.0 0.0" fill="rgb(255,200,200)" opacity="1" filter="url(#spike-blur)" />
            <path d="M -17.32050807568877 -10.0
                      L 0.0 0.0
                      L 0.0 0.0" fill="rgb(255,200,200)" opacity="1" filter="url(#spike-blur)" />
        <circle cx="0" cy="0" r="0.0" fill="rgb(255, 252, 247)" filter="url(#spike-blur)" />
        <circle cx="0" cy="0" r="0.0" fill="rgb(255, 247, 236)" opacity="0.6" filter="url(#spike-blur)" />
        </svg></g>
        </svg>