<?xml version="1.0" encoding="UTF-8" standalone="no"?>
<!-- Created with Inkscape (http://www.inkscape.org/) -->

<svg
   width="210mm"
   height="297mm"
   viewBox="0 0 210 297"
   version="1.1"
   id="svg5"
   xml:space="preserve"
   inkscape:version="1.2 (dc2aeda, 2022-05-15)"
   sodipodi:docname="about.svg"
   xmlns:inkscape="http://www.inkscape.org/namespaces/inkscape"
   xmlns:sodipodi="http://sodipodi.sourceforge.net/DTD/sodipodi-0.dtd"
   xmlns="http://www.w3.org/2000/svg"
   xmlns:svg="http://www.w3.org/2000/svg"><sodipodi:namedview
     id="namedview7"
     pagecolor="#ffffff"
     bordercolor="#000000"
     borderopacity="0.25"
     inkscape:showpageshadow="2"
     inkscape:pageopacity="0.0"
     inkscape:pagecheckerboard="0"
     inkscape:deskcolor="#d1d1d1"
     inkscape:document-units="mm"
     showgrid="false"
     inkscape:zoom="0.18307029"
     inkscape:cx="-980.49773"
     inkscape:cy="1152.5628"
     inkscape:window-width="1390"
     inkscape:window-height="972"
     inkscape:window-x="0"
     inkscape:window-y="25"
     inkscape:window-maximized="0"
     inkscape:current-layer="layer1" /><defs
     id="defs2" /><g
     inkscape:label="Layer 1"
     inkscape:groupmode="layer"
     id="layer1"><path
       style="fill:#ffffff;stroke-width:0.352778"
       d="m -94.397633,295.74779 c 0,-0.2587 0.105834,-0.36453 0.235197,-0.23518 0.129328,0.12935 0.129328,0.34102 0,0.47037 -0.129363,0.12935 -0.235197,0.0235 -0.235197,-0.23519 z m 25.752778,-20.28472 c 0,-0.097 0.07938,-0.17639 0.176389,-0.17639 0.09701,0 0.176389,0.0794 0.176389,0.17639 0,0.097 -0.07937,0.17639 -0.176389,0.17639 -0.09701,0 -0.176389,-0.0794 -0.176389,-0.17639 z M -517.18866,240.16234 c -0.53665,-0.27842 -1.35864,-0.50621 -1.82663,-0.50621 -0.86803,0 -3.55014,-2.3671 -4.32712,-3.81892 -0.21702,-0.40549 -0.38745,-1.73618 -0.37874,-2.95709 0.009,-1.22091 0.005,-2.84187 -0.009,-3.60215 -0.0134,-0.76028 0.10818,-1.47465 0.27014,-1.5875 0.95884,-0.66809 1.95534,-2.7337 2.03083,-4.20969 0.1075,-2.1015 0.0548,-1.92836 0.87549,-2.87466 0.38805,-0.44743 0.70555,-1.08243 0.70555,-1.41111 0,-1.11996 2.11238,-2.82222 3.50217,-2.82222 0.37924,0 0.78764,-0.15875 0.90755,-0.35278 0.11992,-0.19403 0.60554,-0.35278 1.07916,-0.35278 0.47362,0 0.86112,-0.13362 0.86112,-0.29693 0,-0.16332 0.64733,-0.49088 1.43852,-0.72793 l 1.43853,-0.43099 0.63133,0.72793 0.63132,0.72792 h 1.48313 c 1.36257,0 2.49044,-0.58745 2.49149,-1.29771 2.4e-4,-0.15938 0.41089,-0.76604 0.91256,-1.34812 0.50167,-0.58208 1.17071,-1.49489 1.48674,-2.02847 0.31604,-0.53358 0.69914,-0.97014 0.85133,-0.97014 0.15219,0 0.27672,-0.23812 0.27672,-0.52917 0,-0.29104 0.15875,-0.52916 0.35278,-0.52916 0.19402,0 0.35277,-0.17982 0.35277,-0.39959 0,-0.21978 0.29835,-0.65835 0.663,-0.97461 0.36899,-0.32003 0.73717,-1.2172 0.83027,-2.02318 0.15718,-1.36071 1.18282,-3.26971 1.76993,-3.29432 0.14552,-0.006 0.26458,-0.39295 0.26458,-0.85969 0,-0.85385 1.35918,-3.81242 1.85208,-4.03148 0.14553,-0.0647 0.26459,-0.33949 0.26459,-0.61069 0,-0.27119 0.46762,-1.48828 1.03916,-2.70463 0.57155,-1.21634 1.2453,-2.72747 1.49723,-3.35806 0.25194,-0.63059 0.57806,-1.14653 0.72472,-1.14653 0.14667,0 0.26667,-1.11125 0.26667,-2.46945 0,-1.41111 0.15119,-2.46944 0.35277,-2.46944 0.19403,0 0.35278,-0.47625 0.35278,-1.05833 0,-0.58209 0.15875,-1.05834 0.35278,-1.05834 0.19403,0 0.35278,-0.7587 0.35278,-1.68601 v -1.68601 l -0.70555,-0.50853 c -0.38805,-0.2797 -0.70555,-0.6938 -0.70555,-0.92024 0,-0.2476 -0.45699,-0.37612 -1.14653,-0.32245 -1.29854,0.10108 -3.08681,0.8538 -3.08681,1.29931 0,0.16289 -0.3175,0.29615 -0.70555,0.29615 -0.38806,0 -0.70556,0.12 -0.70556,0.26667 0,0.14666 -0.47625,0.47747 -1.05833,0.73512 -0.58208,0.25766 -1.05833,0.66335 -1.05833,0.90154 0,0.23819 -0.27782,0.74171 -0.61737,1.11893 -0.54065,0.60063 -0.97533,1.33293 -2.70822,4.56247 -0.20822,0.38805 -0.45796,0.78493 -0.55497,0.88194 -0.42137,0.42137 -1.05833,1.79859 -1.05833,2.28827 0,0.29367 -0.15875,0.53395 -0.35278,0.53395 -0.19403,0 -0.35278,0.70501 -0.35278,1.56668 0,0.86168 -0.15875,1.6648 -0.35278,1.78471 -0.19402,0.11992 -0.35337,0.80398 -0.35409,1.52013 -10e-4,1.37901 -1.06699,3.46367 -2.16348,4.23251 -0.36158,0.25354 -0.65743,0.6901 -0.65743,0.97014 0,0.28005 -0.15875,0.50917 -0.35277,0.50917 -0.19403,0 -0.35278,0.56606 -0.35278,1.25791 0,1.51967 -0.45353,2.43172 -1.96199,3.94556 l -1.14246,1.14653 -1.88736,-0.008 -1.88736,-0.008 -0.88194,-0.68989 c -0.48507,-0.37942 -1.12983,-0.69339 -1.43279,-0.69771 -0.57895,-0.008 -1.36173,-0.6627 -2.75901,-2.30672 l -0.84041,-0.98881 0.19286,-2.54999 0.19285,-2.54998 -0.49897,-0.96177 c -0.5929,-1.14281 -0.64448,-2.35841 -0.12224,-2.88065 l 0.37675,-0.37674 -0.81772,-2.35128 -0.81771,-2.35127 0.42439,-0.26353 c 0.23341,-0.14494 0.53538,-0.95761 0.67103,-1.80594 l 0.24664,-1.54242 -0.52097,-0.38729 c -0.58252,-0.43304 -1.46208,-2.68034 -1.04905,-2.68034 0.37682,0 0.40319,-2.57091 0.031,-3.02157 -0.17228,-0.20861 -0.1838,-1.17603 -0.0259,-2.17493 0.17078,-1.0804 0.14697,-2.04478 -0.0596,-2.41394 -0.18922,-0.33811 -0.35671,-2.85189 -0.3722,-5.58618 -0.0155,-2.73429 -0.16397,-5.06738 -0.32993,-5.18462 -0.33366,-0.2357 -0.36057,-11.25934 -0.0296,-12.12185 0.12984,-0.33836 0.009,-0.54137 -0.32142,-0.54137 -0.99806,0 -1.37526,-2.68403 -0.42827,-3.04742 0.71394,-0.27397 0.66581,-0.71596 -0.17639,-1.61996 -0.73093,-0.78455 -0.99424,-3.09373 -0.35279,-3.09373 0.20717,0 0.35278,-1.22214 0.35278,-2.96087 v -2.96087 l -0.48665,-0.18674 c -0.68509,-0.2629 -1.20312,-3.80896 -1.00646,-6.88957 0.0942,-1.47518 0.004,-2.91854 -0.20906,-3.35139 -0.20595,-0.41816 -0.44481,-1.39528 -0.53082,-2.1714 -0.086,-0.77611 -0.2621,-1.7294 -0.39134,-2.11843 -0.15632,-0.47056 0.007,-0.96749 0.48912,-1.48456 0.77701,-0.83402 0.94355,-1.51228 0.37132,-1.51228 -0.19403,0 -0.35278,-0.30813 -0.35278,-0.68474 0,-0.3766 -0.17907,-0.79541 -0.39794,-0.93068 -0.26277,-0.1624 -0.32578,-0.93625 -0.18552,-2.27825 l 0.21242,-2.03232 -0.52003,-0.43159 c -0.5924,-0.49165 -0.73843,-3.87298 -0.16726,-3.87298 0.56964,0 0.40674,-0.65159 -0.35278,-1.41111 l -0.70555,-0.70556 -0.0418,-1.67569 c -0.0507,-2.03212 -0.087,-1.78076 0.46168,-3.19087 l 0.45232,-1.1624 -0.41607,-0.25715 -0.41606,-0.25713 -0.0805,-6.606158 c -0.0443,-3.63338 -0.21206,-6.60615 -0.37283,-6.60615 -0.48131,0 -0.3419,-3.44583 0.14868,-3.67477 l 0.44097,-0.20579 -0.44097,-0.20578 c -0.2567,-0.1198 -0.44097,-0.86739 -0.44097,-1.78909 0,-0.93701 -0.216,-1.7993 -0.52917,-2.11247 -0.64442,-0.64441 -0.6632,-0.98809 -0.0882,-1.61374 0.24253,-0.26389 0.66104,-0.86334 0.93001,-1.33209 l 0.48903,-0.85228 -0.40084,-0.13362 c -1.82818,-0.60939 1.64516,-3.60259 4.18048,-3.60259 0.77875,0 1.4159,-0.15875 1.4159,-0.35278 0,-0.62991 2.51427,-0.37273 3.88439,0.39732 1.28233,0.72071 2.11284,1.88841 2.11284,2.97067 0,0.28191 0.15875,0.51256 0.35277,0.51256 0.19403,0 0.35278,0.84148 0.35278,1.86995 0,1.80095 0.59735,3.76603 1.14653,3.77175 0.42251,0.004 0.31101,6.51799 -0.11893,6.94793 l -0.38352,0.38352 0.38352,0.23702 c 0.21093,0.13037 0.38351,0.75154 0.38351,1.38038 0,0.62884 0.16496,1.3083 0.36657,1.50992 0.24569,0.24568 0.259,1.05256 0.0404,2.4468 -0.19125,1.21964 -0.19696,2.42017 -0.0138,2.90195 0.17183,0.45194 0.31242,1.93749 0.31242,3.301218 v 2.47951 l -0.70556,0.1845 -0.70555,0.18451 0.002,1.81094 c 0.002,1.92429 0.56605,4.45677 0.99259,4.45677 0.31131,0 1.12196,3.36352 1.12196,4.65524 0,0.51172 0.15738,0.98332 0.34974,1.048 0.44202,0.14862 0.50959,1.32682 0.22515,3.9259 l -0.22373,2.04443 0.53099,1.02682 c 0.29204,0.56475 0.50807,1.54976 0.48005,2.18891 -0.16532,3.77161 0.15123,15.11841 0.42651,15.28854 0.18038,0.11148 0.32796,0.98707 0.32796,1.94576 0,0.95869 0.15875,1.74307 0.35278,1.74307 0.19403,0 0.35278,0.635 0.35278,1.41111 0,0.77611 0.15875,1.41111 0.35277,1.41111 0.19403,0 0.35278,0.62563 0.35278,1.39029 0,0.76466 -0.15875,1.48841 -0.35278,1.60832 -0.19402,0.11992 -0.35277,0.92304 -0.35277,1.78471 0,0.86168 0.15875,1.56668 0.35277,1.56668 0.19403,0 0.35278,0.72481 0.35278,1.61069 0,0.88588 0.17048,1.92924 0.37884,2.31857 l 0.37884,0.70787 -0.43411,1.69381 -0.43411,1.6938 0.76083,0.81665 c 0.41845,0.44916 0.76082,1.17036 0.76082,1.60268 0,0.43231 0.19844,0.85789 0.44097,0.94572 l 0.44098,0.15969 -0.45293,0.76601 c -0.24911,0.4213 -0.37147,0.89778 -0.27193,1.05885 0.0995,0.16107 0.25619,1.28484 0.3481,2.49726 0.20373,2.68754 0.28022,2.77785 1.40237,1.6557 0.4906,-0.49059 1.2146,-0.99438 1.60888,-1.11952 0.39429,-0.12515 0.7169,-0.34136 0.7169,-0.48048 0,-0.59616 4.02841,-2.50403 5.31334,-2.51642 0.30296,-0.003 0.87622,-0.30845 1.27391,-0.67896 1.72932,-1.61112 5.68991,-2.76537 6.26971,-1.82723 0.23302,0.37704 0.86412,0.32123 1.60692,-0.1421 0.81062,-0.50562 7.94258,-0.21064 9.12104,0.37725 0.55177,0.27526 1.50338,1.30509 2.1147,2.28849 l 1.11149,1.78801 v 1.54405 1.54406 l 0.66458,0.46549 c 0.36552,0.25602 1.00052,1.0636 1.41111,1.79463 l 0.74653,1.32912 v 2.30552 c 0,1.26804 0.17988,2.64164 0.39974,3.05244 l 0.39974,0.74692 -0.75252,0.60935 -0.75252,0.60936 v 2.83305 c 0,1.55817 -0.15875,2.93116 -0.35277,3.05107 -0.19403,0.11992 -0.35278,0.99304 -0.35278,1.94028 0,0.94724 -0.15875,1.82036 -0.35278,1.94028 -0.19403,0.11991 -0.35278,0.60553 -0.35278,1.07915 0,0.47362 -0.15875,0.86113 -0.35278,0.86113 -0.19402,0 -0.35277,0.57369 -0.35277,1.27488 0,1.17131 -1.23007,4.03431 -1.85209,4.31076 -0.14552,0.0647 -0.26458,0.36823 -0.26458,0.67457 0,0.68401 -1.68506,3.61756 -2.07796,3.61756 -0.37156,0 -1.25231,2.18679 -1.77605,4.40973 -0.36244,1.5383 -2.1179,4.36233 -2.9239,4.7037 -0.15271,0.0647 -0.27765,0.31084 -0.27765,0.54703 0,0.62598 -0.83708,2.32802 -1.14652,2.33124 -0.14552,0.001 -0.26964,0.35994 -0.27581,0.7965 -0.0139,0.98656 -0.41846,1.53417 -3.60965,4.88652 -3.18746,3.34844 -3.43415,3.66764 -3.43697,4.4472 -0.002,0.6602 -3.59756,4.6892 -4.18429,4.6892 -0.32834,0 -1.46106,1.25352 -2.50589,2.77314 -0.28536,0.41505 -0.72408,0.75463 -0.97492,0.75463 -0.80928,0 -1.85788,0.82163 -4.9916,3.91112 l -3.07253,3.02917 -1.78217,0.21107 -1.78217,0.21108 z m 7.57159,-69.10068 c 0,-0.37235 -0.67702,-0.52878 -0.87839,-0.20296 -0.12187,0.19719 0.0259,0.35853 0.3284,0.35853 0.30249,0 0.54999,-0.07 0.54999,-0.15557 z m 114.94064,67.28152 c -0.23939,-0.28844 -0.79897,-0.66273 -1.2435,-0.83174 -0.44454,-0.16902 -0.80825,-0.51512 -0.80825,-0.76913 0,-0.25401 -0.47625,-0.74317 -1.05834,-1.08701 l -1.05833,-0.62517 v -1.57997 c 0,-0.91156 -0.26118,-1.97753 -0.61736,-2.5197 l -0.61736,-0.93972 -0.23893,-4.95689 c -0.42216,-8.75846 -0.71392,-12.35606 -1.03427,-12.75334 -0.18963,-0.23518 -0.0954,-0.82423 0.23913,-1.49482 0.30365,-0.60868 0.45273,-1.26746 0.33129,-1.46396 -0.12145,-0.1965 -0.013,-0.3597 0.24098,-0.36267 l 0.4618,-0.005 -0.46833,-0.29691 -0.46832,-0.2969 0.19432,-2.96089 c 0.10688,-1.62849 0.29188,-4.04142 0.41112,-5.36208 l 0.21679,-2.40119 -0.69454,-0.60238 -0.69455,-0.60237 v -3.2868 c 0,-1.95393 -0.16009,-3.44688 -0.39477,-3.68157 -0.21713,-0.21713 -0.39478,-0.69187 -0.39478,-1.05498 0,-0.36311 -0.22399,-0.88419 -0.49776,-1.15796 -0.27377,-0.27377 -0.42369,-0.78102 -0.33316,-1.12722 0.0905,-0.3462 -0.31758,-1.34119 -0.90692,-2.21107 -0.58935,-0.86988 -1.07443,-1.78004 -1.07796,-2.02258 -0.004,-0.24253 -0.16517,-0.44097 -0.3592,-0.44097 -0.19403,0 -0.35278,-0.23813 -0.35278,-0.52917 0,-0.29104 -0.24578,-0.52916 -0.54619,-0.52916 -0.30041,0 -1.64212,-1.11125 -2.98158,-2.46945 l -2.43539,-2.46944 h -0.89897 c -0.49444,0 -0.90022,0.11906 -0.90173,0.26458 -0.005,0.45636 -1.85049,1.14653 -3.06619,1.14653 -0.64041,0 -1.16439,-0.17042 -1.16439,-0.3787 0,-0.25751 -0.98781,-0.3089 -3.08681,-0.16058 -1.69774,0.11997 -5.70487,0.28702 -8.90473,0.37123 -3.19986,0.0842 -6.2558,0.31522 -6.79097,0.51335 -0.53517,0.19814 -1.4493,0.53826 -2.03138,0.75583 -0.9981,0.37306 -1.55072,1.72109 -0.70555,1.72109 0.19402,0 0.35277,0.51744 0.35277,1.14986 0,0.7678 0.23443,1.29627 0.70556,1.59049 0.43793,0.27349 0.70555,0.82269 0.70555,1.44787 0,0.61937 0.36021,1.36744 0.93542,1.94265 1.43981,1.4398 1.88681,2.58522 1.88681,4.83484 0,1.4117 0.22335,2.46328 0.70555,3.32179 0.38806,0.6909 0.70556,1.56886 0.70556,1.95101 0,0.38215 0.11999,0.69482 0.26666,0.69482 0.14666,0 0.48034,0.51594 0.7415,1.14653 0.26117,0.63059 0.79157,1.85225 1.17868,2.7148 l 0.70383,1.56826 -0.19593,2.66507 c -0.70161,9.54378 -1.71458,16.59979 -2.38309,16.59979 -0.17141,0 -0.31165,0.1993 -0.31165,0.44289 0,0.24358 -0.59886,1.07866 -1.33079,1.85571 -0.73194,0.77706 -1.60899,1.99911 -1.94902,2.71566 -0.34003,0.71656 -0.81294,1.50867 -1.05093,1.76026 -0.23798,0.25158 -0.81099,1.02145 -1.27335,1.71082 -0.46237,0.68936 -1.37275,1.60218 -2.02306,2.02847 l -1.1824,0.77508 h -1.74802 c -0.96141,0 -1.84613,0.15875 -1.96604,0.35278 -0.5626,0.9103 -7.92469,0.17384 -7.93475,-0.79375 -0.001,-0.14552 -0.24731,-0.26459 -0.5462,-0.26459 -0.59396,0 -2.47164,-1.22568 -3.37775,-2.20486 -0.3142,-0.33955 -0.90619,-0.61736 -1.31552,-0.61736 -0.42728,0 -1.00676,-0.41316 -1.36064,-0.97014 -0.33902,-0.53357 -0.8983,-1.22688 -1.24285,-1.54068 -0.34456,-0.3138 -0.62646,-0.95345 -0.62646,-1.42143 0,-0.46799 -0.3175,-1.07972 -0.70556,-1.35942 -0.38805,-0.27969 -0.70644,-0.67192 -0.70752,-0.87162 -0.007,-1.21308 -0.79648,-2.95093 -1.41477,-3.11262 l -0.69993,-0.18304 v -1.07476 c 0,-1.21396 -0.65645,-2.87185 -1.13713,-2.87185 -0.17508,0 -0.26866,-0.35544 -0.20796,-0.78988 0.0607,-0.43444 -0.0484,-0.79406 -0.24241,-0.79916 -0.93046,-0.0244 -1.23472,-0.67604 -1.23472,-2.64429 0,-1.14126 -0.15875,-2.17314 -0.35278,-2.29305 -0.19403,-0.11992 -0.35278,-0.81192 -0.35278,-1.53777 0,-0.72585 -0.15807,-1.4778 -0.35126,-1.671 -0.21872,-0.21872 -0.36289,-5.05784 -0.38207,-12.82465 -0.0178,-7.2034 -0.17678,-12.85728 -0.37628,-13.38201 -0.19,-0.49975 -0.23119,-0.79436 -0.0915,-0.65471 0.233,0.233 0.86346,-0.92071 2.40966,-4.40956 0.3214,-0.72522 1.09379,-1.79605 1.71641,-2.37962 l 1.13203,-1.06103 3.26319,-0.002 3.2632,-0.002 v -1.16578 -1.16579 l 1.14653,-1.21714 c 0.63059,-0.66943 1.62277,-1.43335 2.20486,-1.6976 0.58208,-0.26425 1.29645,-0.59486 1.5875,-0.73468 0.29104,-0.13982 2.88729,-0.28333 5.76945,-0.31891 2.88216,-0.0356 5.50153,-0.19946 5.82083,-0.3642 0.3193,-0.16474 3.35164,-0.32399 6.73853,-0.35389 3.49795,-0.0309 6.24855,-0.20092 6.36766,-0.39364 0.11865,-0.19197 2.7292,-0.35808 6.01285,-0.38259 3.19175,-0.0238 6.88212,-0.21845 8.20082,-0.43251 l 2.39765,-0.38919 0.68437,0.4274 c 0.37641,0.23507 1.07403,0.4274 1.55028,0.4274 0.47626,0 0.96403,0.15875 1.08395,0.35277 0.11991,0.19403 0.76428,0.35278 1.43193,0.35278 0.66764,0 1.2139,0.1786 1.2139,0.39689 0,0.24975 0.37913,0.32105 1.02273,0.19232 l 1.02273,-0.20454 0.80621,0.69922 c 0.44342,0.38457 1.2135,0.79912 1.7113,0.92121 0.4978,0.12208 1.45719,0.67339 2.13199,1.22511 0.6748,0.55172 1.40426,1.00314 1.62102,1.00314 0.63359,0 1.5618,1.22412 1.5618,2.0597 0,0.42318 0.32943,1.04568 0.73206,1.38333 0.73762,0.61856 2.09016,3.06285 2.09016,3.77729 0,0.21177 0.3175,0.61387 0.70555,0.89356 0.38806,0.2797 0.70556,0.75281 0.70556,1.05136 0,0.29855 0.3175,0.7411 0.70556,0.98344 0.38805,0.24235 0.70555,0.80622 0.70555,1.25306 0,0.44684 0.3175,1.15323 0.70556,1.56976 0.38805,0.41653 0.70555,1.00209 0.70555,1.30125 0,0.29915 0.14074,0.54391 0.31274,0.54391 0.42517,0 0.74593,1.7789 0.87733,4.86549 0.0602,1.41483 0.29336,2.75627 0.51805,2.98097 0.22471,0.22497 0.40855,1.25018 0.40855,2.27853 0,1.02835 0.15257,1.86972 0.33904,1.86972 0.18647,0 0.38491,1.37625 0.44098,3.05834 0.0561,1.68208 0.26067,3.11063 0.4547,3.17454 0.55858,0.18399 2.15801,-1.38239 2.40197,-2.35232 0.122,-0.48507 0.60167,-1.28788 1.06594,-1.78401 1.07406,-1.14779 1.64737,-2.21945 1.64737,-3.07936 0,-0.37204 0.47625,-1.17478 1.05833,-1.78388 0.58209,-0.60909 1.05834,-1.27331 1.05834,-1.47604 0,-0.39952 0.98948,-1.56749 2.61524,-3.08698 0.56526,-0.52831 1.71202,-1.63525 2.54836,-2.45987 0.83633,-0.82462 1.76291,-1.49931 2.05905,-1.49931 0.29615,0 0.53846,-0.15875 0.53846,-0.35277 0,-0.19403 0.30427,-0.35278 0.67616,-0.35278 0.37188,0 0.7377,-0.18465 0.81293,-0.41033 0.0856,-0.25694 0.96471,-0.40252 2.35174,-0.38945 l 2.21496,0.0208 0.51989,0.74224 c 0.28593,0.40823 0.76034,0.74224 1.05424,0.74224 0.74031,0 1.37863,0.711 1.66591,1.85558 0.13343,0.53165 0.47771,0.96664 0.76505,0.96664 0.28735,0 0.52264,0.19844 0.52288,0.44097 2.4e-4,0.24254 0.4016,0.90745 0.8919,1.47757 0.49032,0.57014 0.98592,1.44326 1.10135,1.94028 0.11543,0.49703 0.82532,1.48065 1.57754,2.18585 0.92476,0.86694 1.36767,1.58628 1.36767,2.22126 v 0.93911 l 1.0561,0.60095 c 0.68015,0.38703 1.0569,0.88352 1.05834,1.39471 0.001,0.43656 0.16098,0.79375 0.355,0.79375 0.19403,0 0.3572,0.19843 0.3626,0.44097 0.005,0.24253 0.48164,1.06456 1.05833,1.82673 l 1.04852,1.38576 v 1.34827 1.34827 h 0.52916 c 0.29105,0 0.52917,0.13406 0.52917,0.2979 0,0.16385 0.39668,0.75916 0.88152,1.32292 0.48483,0.56376 0.8817,1.14467 0.88194,1.29092 2.4e-4,0.14624 0.71506,1.01937 1.5885,1.94027 0.87344,0.92091 1.67789,1.95219 1.78766,2.29174 0.10978,0.33955 0.32913,0.61736 0.48745,0.61736 0.15833,0 0.37089,0.3175 0.47237,0.70555 0.10148,0.38806 0.47718,0.71061 0.8349,0.71678 0.80952,0.014 1.53617,0.58584 2.33906,1.84086 0.34135,0.53358 0.78295,0.97014 0.98133,0.97014 0.19837,0 0.75852,0.39785 1.24478,0.8841 l 0.8841,0.8841 0.95194,-0.23495 c 0.52357,-0.12923 1.19008,-0.5137 1.48112,-0.85439 1.37727,-1.61222 1.76389,-2.11179 1.76389,-2.27919 0,-0.0996 0.9525,-1.11317 2.11666,-2.2523 1.16417,-1.13914 2.11667,-2.22835 2.11667,-2.42048 0,-0.19212 0.93436,-1.31915 2.07636,-2.5045 l 2.07636,-2.15518 0.25289,-1.67736 c 0.13909,-0.92254 0.3222,-2.23126 0.40691,-2.90825 0.0847,-0.677 0.30653,-1.38344 0.49298,-1.56987 0.1864,-0.18642 0.33894,-0.62686 0.33894,-0.97874 0,-0.35188 0.15875,-0.95513 0.35278,-1.34055 0.19403,-0.38543 0.51153,-1.01612 0.70556,-1.40154 0.19403,-0.38542 0.35278,-1.0998 0.35278,-1.5875 0,-0.4877 0.15875,-0.88673 0.35277,-0.88673 0.19403,0 0.35278,-0.30813 0.35278,-0.68474 0,-0.3766 0.15875,-0.78285 0.35278,-0.90276 0.19403,-0.11992 0.35278,-0.76429 0.35278,-1.43193 0,-0.66765 -0.15875,-1.21391 -0.35278,-1.21391 -0.196,0 -0.35278,-0.94074 -0.35278,-2.11666 0,-1.16417 -0.13194,-2.11667 -0.29316,-2.11667 -0.39098,0 -0.95754,-1.21777 -1.51821,-3.26319 -0.25263,-0.92164 -0.56416,-1.6757 -0.69229,-1.6757 -0.12813,0 -0.43023,-0.47625 -0.67134,-1.05833 -0.2411,-0.58209 -0.57787,-1.05834 -0.74835,-1.05834 -0.17049,2e-5 -0.30998,-0.24475 -0.30998,-0.5439 0,-0.29915 -0.3175,-0.88471 -0.70556,-1.30124 -0.38805,-0.41653 -0.70555,-0.96552 -0.70555,-1.21997 0,-0.25446 -0.15875,-0.46265 -0.35278,-0.46265 -0.19403,0 -0.35278,-0.24028 -0.35278,-0.53395 0,-0.58608 -0.63341,-1.81415 -1.32239,-2.56388 -0.24224,-0.26361 -0.53438,-0.85357 -0.6492,-1.31103 -0.11481,-0.45747 -0.42423,-0.91444 -0.68759,-1.0155 -0.26336,-0.10106 -0.6453,-0.80193 -0.84875,-1.55748 -0.20345,-0.75555 -0.70366,-1.75592 -1.11159,-2.22303 -0.40793,-0.46711 -0.9814,-1.44462 -1.27439,-2.17222 -0.29298,-0.72761 -0.67421,-1.32292 -0.84717,-1.32292 -0.17296,0 -0.31447,-0.21458 -0.31447,-0.47685 0,-0.55818 -1.96101,-2.69815 -2.47252,-2.69815 -0.19234,0 -0.34971,-0.23813 -0.34971,-0.52917 0,-0.29104 -0.15875,-0.52916 -0.35277,-0.52916 -0.19403,0 -0.35278,-0.39878 -0.35278,-0.88617 0,-0.58109 -0.60601,-1.52234 -1.76026,-2.73403 -1.03539,-1.08691 -1.76176,-2.17473 -1.76389,-2.64161 -0.002,-0.43656 -0.13555,-0.79375 -0.2968,-0.79375 -0.16124,0 -0.51734,-0.43656 -0.79134,-0.97014 -0.27399,-0.53357 -0.77707,-1.22688 -1.11794,-1.54069 -0.34088,-0.31379 -0.61977,-0.8165 -0.61977,-1.11712 0,-0.30063 -0.11906,-0.5995 -0.26459,-0.66418 -0.14552,-0.0647 -0.63941,-0.85742 -1.09753,-1.76166 l -0.83294,-1.64407 v -2.6543 -2.65429 l 0.9051,-0.90511 c 0.49781,-0.49781 1.03738,-0.90511 1.19905,-0.90511 0.16168,0 0.84358,-0.46979 1.51534,-1.04399 0.67177,-0.5742 1.56922,-1.05045 1.99433,-1.05834 0.42511,-0.008 0.88025,-0.18799 1.01143,-0.40023 0.342,-0.55337 5.07363,0.17633 5.50661,0.84922 0.27614,0.42916 3.21719,0.51765 4.61528,0.13885 l 0.97014,-0.26284 v -1.1986 c 0,-0.65923 -0.16375,-1.25319 -0.36389,-1.3199 -0.20197,-0.0673 -0.39818,-1.41399 -0.44097,-3.02654 -0.0424,-1.59789 -0.19615,-2.90591 -0.34167,-2.90672 -0.14552,-7e-4 -0.26458,-0.23959 -0.26458,-0.53063 0,-0.29104 -0.15875,-0.52917 -0.35278,-0.52917 -0.20358,0 -0.35278,-1.11018 -0.35278,-2.62501 0,-1.44376 -0.15875,-2.72313 -0.35277,-2.84304 -0.19403,-0.11992 -0.35278,-0.60554 -0.35278,-1.07916 0,-0.47362 -0.15875,-0.86112 -0.35278,-0.86112 -0.19403,0 -0.35278,-0.39205 -0.35278,-0.87121 0,-0.47917 -0.32991,-1.4586 -0.73314,-2.17652 l -0.73314,-1.30529 0.43803,-0.81846 0.43803,-0.81847 -0.41179,-1.32655 c -0.39679,-1.27825 -0.67344,-2.56996 -0.90588,-4.22959 -0.0606,-0.43251 -0.33076,-1.05363 -0.60042,-1.38029 l -0.4903,-0.59391 0.44097,-0.14842 c 0.68542,-0.23069 0.5193,-1.44585 -0.26458,-1.93538 l -0.70556,-0.44063 v -2.031808 c 0,-1.11935 -0.15842,-2.0318 -0.35277,-2.0318 -0.19403,0 -0.35278,-0.34592 -0.35278,-0.76871 0,-0.42278 -0.18883,-1.29089 -0.41962,-1.92912 l -0.41961,-1.16043 0.6842,-0.63348 c 0.37631,-0.34841 0.85355,-0.93813 1.06055,-1.31049 0.207,-0.37235 0.68325,-0.84637 1.05833,-1.05336 0.87192,-0.48118 1.16217,-0.87354 1.45016,-1.96036 0.12802,-0.48315 0.43278,-1.07846 0.67724,-1.32292 0.47313,-0.47313 3.66986,-0.62782 3.66986,-0.17758 0,0.14678 0.67469,0.47675 1.49931,0.73326 1.99097,0.61932 2.73402,1.34792 2.73402,2.68082 0,0.69747 0.25907,1.28889 0.70556,1.6107 0.45357,0.3269 0.70555,0.91323 0.70555,1.64161 v 1.13306 l 0.70556,0.22394 c 0.38806,0.12316 0.70556,0.37199 0.70556,0.55294 0,0.18095 0.27781,0.33024 0.61736,0.33176 0.64579,0.003 1.4993,1.44714 1.4993,2.53702 0,0.34937 0.15875,0.63522 0.35278,0.63522 0.19403,0 0.35278,0.87313 0.35278,1.940278 0,1.06716 0.15875,1.94028 0.35278,1.94028 0.19402,0 0.35277,0.90031 0.35277,2.00069 v 2.0007 l 0.59581,0.65836 c 0.3683,0.40696 0.65405,1.4637 0.74835,2.76744 0.0839,1.16 0.29206,2.19529 0.46252,2.30066 0.1705,0.10536 0.30999,0.80783 0.30999,1.56104 0,0.75321 0.15875,1.46758 0.35278,1.5875 0.19403,0.11992 0.35278,0.92304 0.35278,1.78471 0,0.86167 0.15875,1.56668 0.35277,1.56668 0.19403,0 0.35278,0.55778 0.35278,1.23951 0,0.68173 0.14559,1.51516 0.32353,1.85208 0.17794,0.33692 0.51121,1.8032 0.74059,3.25841 0.22938,1.45521 0.53883,2.96333 0.68767,3.35139 0.52074,1.35782 1.07043,4.07776 1.07043,5.29673 0,0.67631 0.15875,1.22966 0.35278,1.22966 0.19403,0 0.35278,0.20647 0.35278,0.45883 0,0.75377 0.85365,2.35768 1.25638,2.36064 0.20595,0.001 0.71526,0.32025 1.13178,0.70831 0.41653,0.38805 0.92273,0.70555 1.12487,0.70555 0.20214,0 0.36752,0.15875 0.36752,0.35278 0,0.1956 0.93381,0.35278 2.09586,0.35278 1.1527,0 2.19396,0.15875 2.31387,0.35277 0.11991,0.19403 0.46245,0.35278 0.76122,0.35278 0.29877,0 0.9881,0.47625 1.53183,1.05834 0.54374,0.58208 1.24245,1.05833 1.55265,1.05833 0.3102,0 0.56402,0.15875 0.56402,0.35278 0,0.19402 0.23812,0.35277 0.52917,0.35277 0.29104,0 0.52916,0.15875 0.52916,0.35278 0,0.19403 0.38749,0.35278 0.86113,0.35278 0.47361,0 0.95924,0.15875 1.07915,0.35278 0.11991,0.19403 0.67553,0.35278 1.23472,0.35278 0.55919,0 1.11482,0.15875 1.23472,0.35277 0.11991,0.19403 0.73265,0.35278 1.36162,0.35278 1.19867,0 3.04063,0.69348 3.04536,1.14653 0,0.14552 0.2522,0.26458 0.5571,0.26458 1.10039,0 3.61421,3.59962 3.73165,5.34349 l 0.0808,1.20038 -0.83591,0.9614 c -0.45977,0.52877 -1.19482,0.9614 -1.63343,0.9614 -0.43864,0 -0.89563,0.15875 -1.01554,0.35278 -0.12636,0.20445 -2.05458,0.35278 -4.58611,0.35278 -2.53153,0 -4.45975,-0.14833 -4.58611,-0.35278 -0.1246,-0.20161 -1.93135,-0.35278 -4.2164,-0.35278 h -3.99838 l -0.21414,0.55802 c -0.30688,0.79972 -0.26497,4.73312 0.0504,4.7364 0.44767,0.005 1.14652,1.8406 1.14652,3.01199 0,0.61062 0.22882,1.57115 0.50846,2.13454 0.27965,0.56338 0.67257,2.29434 0.87316,3.84656 0.56953,4.4072 0.78807,5.46806 1.12642,5.46806 0.43046,0 0.39843,1.31739 -0.0386,1.5875 -0.64558,0.39899 -0.39554,1.84681 0.35278,2.04249 l 0.70555,0.18451 v 1.5997 c 0,0.87984 0.13815,1.6851 0.30702,1.78946 0.16884,0.10436 0.38647,1.42342 0.48356,2.93124 0.19826,3.07859 1.05844,5.99465 2.01115,6.81812 0.34925,0.30187 0.74866,0.90686 0.88752,1.34442 0.13889,0.43756 0.6356,0.97012 1.10384,1.18346 l 0.85136,0.38791 v 1.81309 c 0,0.9972 0.19843,2.02344 0.44097,2.28053 l 0.44097,0.46743 -0.41945,0.15451 c -0.2746,0.10116 -0.35677,0.66617 -0.23791,1.63648 l 0.18146,1.48196 -1.25793,1.58262 c -0.69187,0.87045 -1.25949,1.7229 -1.26136,1.89436 -0.005,0.46518 -1.86411,1.97605 -2.47286,2.00978 -0.29105,0.0161 -1.43112,0.006 -2.53348,-0.0235 -1.36878,-0.0361 -2.29577,0.13812 -2.92354,0.54945 l -0.91923,0.6023 -0.86882,-0.81622 c -0.47784,-0.44892 -0.86882,-0.95864 -0.86882,-1.1327 0,-0.69352 -1.19648,-1.44892 -2.35589,-1.48739 l -1.22562,-0.0407 0.15632,0.81785 c 0.0987,0.51608 -0.28191,1.54567 -1.03145,2.79039 -0.65328,1.0849 -1.18781,2.09392 -1.18781,2.24226 0,0.65852 -1.95823,3.60653 -3.61597,5.44368 -0.33955,0.37629 -0.61736,1.0297 -0.61736,1.45202 0,0.85217 -0.7832,1.96678 -3.16541,4.5049 -0.87841,0.9359 -1.66144,1.88305 -1.74011,2.10479 -0.0787,0.22174 -0.9121,1.15226 -1.85209,2.06783 -0.93998,0.91557 -1.70906,1.8431 -1.70906,2.06117 0,0.21808 -0.15875,0.29839 -0.35278,0.17847 -0.19402,-0.11991 -0.35277,-0.0692 -0.35277,0.11277 0,0.18194 -0.44608,0.51557 -0.99129,0.74141 -0.54521,0.22583 -1.21989,0.74752 -1.4993,1.15932 -1.01248,1.49219 -1.76251,2.04345 -2.78026,2.04345 -0.57063,0 -1.13527,0.15817 -1.25474,0.35148 -0.13838,0.2239 -0.56211,0.17563 -1.16735,-0.13298 -0.52257,-0.26645 -1.42637,-0.42341 -2.00845,-0.34881 -1.44279,0.18492 -4.108,-0.5608 -4.80388,-1.34412 -0.3138,-0.35324 -0.88973,-0.64225 -1.27983,-0.64225 -0.99296,0 -2.8947,-0.88684 -4.14685,-1.9338 -0.58208,-0.4867 -1.25677,-0.8857 -1.4993,-0.88667 -0.24254,-9.6e-4 -0.44098,-0.1605 -0.44098,-0.35453 0,-0.19402 -0.24946,-0.35277 -0.55436,-0.35277 -0.64716,0 -1.5623,-0.82802 -1.5623,-1.41357 0,-0.2231 -0.67469,-1.02183 -1.49931,-1.77496 -1.6786,-1.53307 -1.97628,-1.82822 -3.66301,-3.63184 -0.65322,-0.6985 -1.18768,-1.41726 -1.18768,-1.59723 0,-0.17998 -0.45848,-0.81804 -1.01885,-1.41791 -0.56036,-0.59987 -1.1093,-1.4501 -1.21986,-1.88939 -0.11056,-0.43929 -0.76334,-1.3944 -1.4506,-2.12245 -0.68727,-0.72806 -1.24958,-1.56149 -1.24958,-1.85208 0,-0.29059 -0.12074,-0.52835 -0.26831,-0.52835 -0.14756,0 -0.82222,-1.0581 -1.49922,-2.35134 -1.21035,-2.31206 -3.83599,-5.40977 -4.58535,-5.40977 -0.46037,0 -2.11379,1.60219 -2.11379,2.0483 0,0.17408 -0.47625,0.81485 -1.05833,1.42394 -0.58208,0.60909 -1.05833,1.43664 -1.05833,1.83899 0,0.40234 -0.45849,1.11732 -1.01885,1.58884 -0.58914,0.49573 -1.21971,1.53759 -1.49511,2.47031 -0.26194,0.88715 -0.71628,1.88034 -1.00962,2.20709 -0.29336,0.32674 -0.86612,1.22891 -1.27281,2.00483 -0.40668,0.77591 -1.08137,2.01089 -1.4993,2.7444 -0.41793,0.73351 -0.75987,1.64632 -0.75987,2.02847 0,0.38216 -0.13891,0.69483 -0.30868,0.69483 -0.16977,0 -0.4001,0.45711 -0.51184,1.01581 -0.11174,0.55869 -0.44908,1.26173 -0.74966,1.5623 -0.30057,0.30057 -0.54649,0.94723 -0.54649,1.43703 0,0.83325 -0.63052,2.64475 -1.05827,3.04041 -0.10488,0.097 -0.74072,1.28764 -1.41297,2.64584 -0.67225,1.35819 -1.50845,2.68105 -1.85821,2.9397 -0.34976,0.25864 -1.01963,0.85395 -1.48859,1.32291 -0.57561,0.57561 -1.2523,0.85266 -2.0826,0.85266 -0.67647,0 -1.32187,0.14876 -1.43424,0.33057 -0.32512,0.52606 -2.94806,0.34835 -3.43003,-0.2324 z m 4.18066,-0.68613 c -0.12936,-0.12935 -0.34102,-0.12935 -0.47038,0 -0.12935,0.12935 -0.0235,0.23519 0.23519,0.23519 0.2587,0 0.36453,-0.10584 0.23519,-0.23519 z m 66.43981,-12.50256 c 0,-1.25128 -0.7906,-1.35965 -1.3272,-0.18192 l -0.38213,0.83867 0.36849,0.36849 c 0.61399,0.61399 1.34084,0.0582 1.34084,-1.02524 z m -122.61166,-7.98795 c 0.68511,-0.92163 1.41604,-1.87737 1.62429,-2.12386 0.96164,-1.13824 -0.37785,-14.89767 -1.45029,-14.89767 -0.18095,0 -0.32901,-0.705 -0.32901,-1.56668 0,-0.86167 -0.15875,-1.66479 -0.35278,-1.78471 -0.19402,-0.11991 -0.35277,-0.52616 -0.35277,-0.90276 0,-0.37661 -0.15875,-0.68474 -0.35278,-0.68474 -0.19403,0 -0.35278,-0.55562 -0.35278,-1.23472 0,-0.6791 -0.15875,-1.23472 -0.35278,-1.23472 -0.19402,0 -0.35277,-0.39553 -0.35277,-0.87896 0,-0.49689 -0.30669,-1.07048 -0.70556,-1.31958 -0.38806,-0.24234 -0.70556,-0.71994 -0.70556,-1.06132 0,-0.34139 -0.13326,-0.6207 -0.29615,-0.6207 -0.51506,0 -1.11496,-1.7424 -1.11496,-3.23841 v -1.44133 l -0.71777,-0.62252 c -0.39477,-0.34238 -1.01243,-0.54546 -1.37257,-0.45128 l -0.65481,0.17123 -0.24777,2.64416 c -0.13628,1.45428 -0.13934,3.72398 -0.007,5.04377 0.16049,1.59806 0.11254,2.479 -0.14354,2.63726 -0.47062,0.29087 -0.52133,5.1349 -0.0537,5.1349 0.18193,0 0.4001,1.70656 0.48484,3.79236 0.0847,2.0858 0.34158,4.58611 0.57075,5.55625 0.22918,0.97014 0.4971,2.31952 0.59537,2.99861 0.23689,1.63689 0.81941,2.8079 1.93083,3.88142 0.50268,0.48555 1.10693,1.46748 1.34276,2.18208 0.73461,2.22586 1.72323,2.2323 3.36635,0.0219 z m 297.15904,19.6891 c -1.55588,-0.77741 -2.39182,-1.55296 -2.39182,-2.21904 0,-0.2661 -0.17474,-0.65854 -0.38831,-0.87209 l -0.38826,-0.38829 0.37606,-1.18157 c 0.20679,-0.64987 0.4566,-1.58887 0.55506,-2.08666 0.0985,-0.4978 0.51481,-1.29155 0.92526,-1.76389 0.41041,-0.47235 1.0046,-1.29537 1.32037,-1.82895 0.31577,-0.53357 0.77248,-0.97014 1.01484,-0.97014 0.24239,0 0.61062,-0.3175 0.8183,-0.70555 0.20768,-0.38806 0.61013,-0.70556 0.89436,-0.70556 0.2842,0 0.51675,-0.15875 0.51675,-0.35278 0,-0.19402 0.46725,-0.35277 1.03833,-0.35277 0.5781,0 1.24266,-0.27365 1.49931,-0.61736 0.25354,-0.33955 0.89753,-0.84263 1.43111,-1.11795 0.53358,-0.27532 0.97014,-0.63251 0.97014,-0.79375 0,-0.16124 0.34593,-0.29317 0.7687,-0.29317 0.81114,0 3.16512,-0.73553 3.46463,-1.08257 0.097,-0.11241 0.97014,-0.4083 1.94028,-0.65753 2.66517,-0.68468 6.52639,-2.39226 6.52639,-2.8862 0,-0.17192 0.27933,-0.31259 0.62071,-0.31259 0.34138,0 0.81897,-0.3175 1.0613,-0.70555 0.2697,-0.43183 0.82271,-0.70556 1.42543,-0.70556 1.50615,0 2.64658,-1.78616 1.40469,-2.20012 l -0.42675,-0.14225 0.36946,-1.61446 0.36943,-1.61447 -0.64826,-0.46723 c -0.35652,-0.25697 -0.64823,-0.64676 -0.64823,-0.86619 0,-0.43171 -1.95563,-2.60302 -2.38432,-2.64727 -1.24799,-0.1288 -2.51471,-0.67856 -1.56355,-0.67856 0.22169,0 -0.64537,-1.07156 -1.92684,-2.38125 -1.28143,-1.30969 -2.48376,-2.81782 -2.67183,-3.35139 -0.18806,-0.53358 -0.55552,-0.97014 -0.81657,-0.97014 -0.26106,0 -0.69635,-0.31649 -0.96729,-0.70331 -0.27093,-0.38682 -0.59742,-0.59849 -0.72555,-0.47037 -0.12813,0.12812 -0.23294,0.0405 -0.23294,-0.19467 0,-0.55676 -1.62447,-2.18124 -1.90285,-1.90286 -0.11762,0.11759 -0.21382,0.008 -0.21382,-0.24459 0,-0.25211 -0.27781,-0.71683 -0.61736,-1.0327 -0.72041,-0.67019 -1.36162,-1.75453 -2.56152,-4.33193 -0.24144,-0.5186 -1.05371,-1.68683 -1.80506,-2.59605 l -1.36606,-1.65312 v -4.72409 c 0,-2.91421 0.13515,-4.72409 0.35278,-4.72409 0.19403,0 0.35278,-0.62522 0.35278,-1.38938 0,-0.88004 0.38798,-2.09635 1.05833,-3.31781 0.58208,-1.06063 1.05833,-2.25167 1.05833,-2.64674 0,-0.39508 0.13826,-0.80376 0.3072,-0.90819 0.16898,-0.10442 0.40083,-0.65784 0.51523,-1.22981 0.11437,-0.57198 0.73904,-1.57102 1.38811,-2.22009 0.64904,-0.64906 1.28535,-1.45439 1.41401,-1.78961 0.12862,-0.33522 0.4373,-0.61309 0.6859,-0.61748 0.24864,-0.004 0.99822,-0.63939 1.66575,-1.41111 0.66753,-0.77172 1.43041,-1.40312 1.69524,-1.40312 0.26483,0 1.41644,-0.9525 2.55912,-2.11667 1.14268,-1.16417 2.26391,-2.11667 2.49163,-2.11667 0.22776,0 0.83185,-0.4604 1.34246,-1.02312 1.22224,-1.34692 2.90097,-1.68935 6.13188,-1.25081 1.12095,0.15216 1.6757,0.0991 1.6757,-0.16042 0,-0.21333 0.30811,-0.38787 0.68474,-0.38787 0.37659,0 0.78285,-0.15875 0.90276,-0.35278 0.1199,-0.19403 0.77674,-0.35278 1.45958,-0.35278 h 1.24156 l 1.29526,1.36519 c 2.00738,2.11576 2.87288,3.33715 2.87803,4.06149 0.004,0.3653 0.34781,0.96174 0.76716,1.32542 0.41931,0.36368 0.79484,1.09668 0.83446,1.62888 0.0396,0.5322 0.19046,1.56295 0.33517,2.29055 l 0.26314,1.32292 h -0.41286 c -0.22708,0 -0.31475,0.15875 -0.19484,0.35278 0.11991,0.19403 0.0697,0.35278 -0.11148,0.35278 -0.18122,0 -0.41754,0.43656 -0.52514,0.97013 l -0.19562,0.97015 -1.4304,0.44098 c -0.78673,0.24253 -2.78892,0.44097 -4.44934,0.44097 h -3.0189 l -0.75734,0.70555 c -0.41653,0.38806 -1.04489,0.70556 -1.39637,0.70556 -0.35147,0 -0.63902,0.15875 -0.63902,0.35278 0,0.19402 -0.26458,0.35277 -0.58797,0.35277 -0.32336,0 -0.49192,0.096 -0.37455,0.21342 0.23725,0.23722 -1.43577,1.90325 -1.91121,1.90325 -0.1657,0 -0.30127,0.25919 -0.30127,0.57598 0,0.31679 -0.3114,0.84607 -0.69204,1.17618 -0.95808,0.83096 -1.42463,2.22181 -1.42463,4.24721 0,0.94606 -0.15875,1.81822 -0.35277,1.93813 -0.19403,0.11992 -0.35278,0.76429 -0.35278,1.43193 0,0.66765 0.15875,1.21391 0.35278,1.21391 0.19402,0 0.35277,0.23794 0.35277,0.52876 0,0.29082 0.61708,1.16462 1.37129,1.94178 0.7542,0.77717 1.45767,1.84891 1.56326,2.38166 0.10555,0.53274 0.3278,1.52425 0.49385,2.20335 l 0.30191,1.23472 0.86886,0.12377 c 0.47791,0.0681 0.94826,0.23048 1.04528,0.36092 0.28984,0.38973 2.25965,1.59901 2.72697,1.67413 0.23866,0.0383 0.68658,0.32238 0.99533,0.63115 0.30878,0.30878 0.6701,0.56142 0.80289,0.56142 0.13282,0 0.46855,0.51307 0.74616,1.14016 0.6714,1.51686 2.04438,2.85142 2.68185,2.6068 0.42375,-0.1626 0.76602,0.58436 0.42527,0.92814 -0.21809,0.22004 4.05564,4.14435 4.5134,4.14435 0.28254,0 0.51368,0.14805 0.51368,0.329 0,0.18096 0.3175,0.42978 0.70556,0.55294 0.42541,0.13502 0.70556,0.53377 0.70556,1.00423 0,0.42916 0.3175,1.00913 0.70555,1.28883 l 0.70556,0.50853 v 1.33324 c 0,0.73327 0.15875,1.33323 0.35277,1.33323 0.19403,0 0.35278,0.28245 0.35278,0.62767 0,0.34523 0.30427,0.84699 0.67617,1.11503 l 0.67617,0.48735 -0.14676,4.08845 c -0.16954,4.72267 -0.39535,6.3815 -0.86878,6.3815 -0.18524,0 -0.3368,0.29199 -0.3368,0.64887 0,0.35688 -0.55562,1.15448 -1.23472,1.77244 -0.6791,0.61797 -1.23472,1.27848 -1.23472,1.4678 0,0.18932 -0.39688,0.34422 -0.88195,0.34422 -0.48507,0 -0.88194,0.15875 -0.88194,0.35278 0,0.19403 -0.23813,0.35278 -0.52917,0.35278 -0.29104,0 -0.52916,0.15875 -0.52916,0.35278 0,0.19402 -0.24751,0.35277 -0.54999,0.35277 -0.3025,0 -0.45229,0.15808 -0.33288,0.35128 0.11938,0.1932 -0.18873,0.53619 -0.68474,0.76218 -0.496,0.226 -0.90184,0.70293 -0.90184,1.05984 0,0.69103 -1.19987,0.92334 -1.58133,0.30616 -0.23047,-0.37295 -2.48454,-0.29506 -2.87909,0.0995 -0.1338,0.1338 -0.61369,0.24328 -1.06644,0.24328 -0.45272,0 -0.82314,0.15875 -0.82314,0.35277 0,0.19403 -0.35719,0.36532 -0.79375,0.38063 -0.43656,0.0153 -0.59997,0.10637 -0.36311,0.20235 l 0.43063,0.17449 -0.43063,0.46783 -0.43064,0.46784 -0.49833,-0.4056 -0.49834,-0.40559 -0.14845,0.44097 c -0.0816,0.24253 -0.49237,0.44602 -0.91274,0.45219 -0.4204,0.006 -1.07354,0.24504 -1.4514,0.53082 -0.37789,0.28578 -0.97663,0.4277 -1.33057,0.31537 -0.67539,-0.21437 -2.74489,0.53399 -2.74489,0.9926 0,0.14666 -1.20308,0.26666 -2.67349,0.26666 h -2.67349 l -1.3558,1.41111 -1.35579,1.41111 h -1.05266 c -1.0105,0 -3.99178,1.30364 -4.23552,1.85209 -0.0647,0.14552 -1.49345,0.25825 -3.175,0.25052 l -3.05742,-0.014 -1.31233,-0.6557 z m 26.79633,-26.37088 c -0.32801,-0.328 -0.71462,-0.47812 -0.85912,-0.33359 -0.14453,0.14452 -0.0293,0.41045 0.25619,0.59096 0.85883,0.54316 1.24054,0.38024 0.60293,-0.25737 z m 1.5035,-44.03003 c 0,-0.097 -0.0794,-0.17639 -0.17639,-0.17639 -0.097,0 -0.17639,0.0794 -0.17639,0.17639 0,0.097 0.0794,0.17639 0.17639,0.17639 0.097,0 0.17639,-0.0794 0.17639,-0.17639 z m -507.9118,67.05457 c -0.43656,-0.20376 -0.79375,-0.49159 -0.79375,-0.63961 0,-0.14802 -0.33268,-0.26912 -0.73929,-0.26912 -0.59272,0 -1.86997,-0.67787 -3.11593,-1.65371 -0.0831,-0.0651 -0.11492,-0.91023 -0.0708,-1.87813 0.0496,-1.08658 -0.0672,-1.75983 -0.30519,-1.75983 h -0.38549 l 0.0775,-5.13293 c 0.0426,-2.82311 0.20826,-5.21373 0.36805,-5.31248 0.15979,-0.0988 0.29053,-1.51957 0.29053,-3.15735 0,-1.75001 0.14545,-2.97779 0.35278,-2.97779 0.19402,0 0.35277,-0.70501 0.35277,-1.56668 0,-0.86168 0.15875,-1.6648 0.35278,-1.78471 0.19403,-0.11992 0.35278,-0.84366 0.35278,-1.60832 0,-0.76466 0.15875,-1.39029 0.35278,-1.39029 0.19403,0 0.35278,-0.39904 0.35278,-0.88674 0,-0.4877 0.15875,-1.20207 0.35277,-1.5875 0.19403,-0.38542 0.51288,-1.01826 0.70855,-1.40632 l 0.35577,-0.70556 h -0.42633 -0.42632 l 0.42333,-0.42333 c 0.24389,-0.24389 0.42334,-1.41201 0.42334,-2.7557 v -2.33237 l 0.70555,-0.75733 c 0.38806,-0.41653 0.70556,-0.99271 0.70556,-1.28042 0,-0.2877 0.15875,-0.62121 0.35278,-0.74112 0.19402,-0.11992 0.35277,-0.59617 0.35277,-1.05834 0,-0.46216 0.15875,-0.93841 0.35278,-1.05833 0.19403,-0.11992 0.35278,-1.00414 0.35278,-1.96494 0,-1.73434 1.16651,-4.91423 1.80274,-4.91423 0.92431,0 -0.4191,-3.31506 -1.87526,-4.62749 -0.66739,-0.60151 -0.88703,-2.78084 -0.28026,-2.78084 0.19403,0 0.35278,-0.64029 0.35278,-1.42287 v -1.42287 l 1.16878,-1.13477 c 1.30451,-1.26655 2.47624,-2.01671 3.15004,-2.01671 0.41524,0 1.32416,-1.56873 1.29298,-2.23158 -0.008,-0.16022 0.31423,-0.57571 0.71503,-0.92333 0.4008,-0.34761 0.72872,-1.04059 0.72872,-1.53997 0,-0.49937 0.15875,-1.00605 0.35278,-1.12597 0.19403,-0.11991 0.35278,-0.59616 0.35278,-1.05833 0,-0.46217 0.15875,-0.93842 0.35278,-1.05833 0.19403,-0.11992 0.35278,-0.8343 0.35278,-1.5875 0,-0.75321 0.13789,-1.4547 0.30644,-1.55887 0.16854,-0.10416 0.40752,-0.82155 0.53107,-1.59419 0.1271,-0.79482 0.60676,-1.78693 1.10467,-2.28484 0.89571,-0.8957 1.17652,-1.97044 0.51485,-1.97044 h -0.36519 l 0.36519,-0.68236 c 0.20085,-0.3753 0.36519,-1.16905 0.36519,-1.76389 0,-0.59484 0.1199,-1.08153 0.26645,-1.08153 0.14656,0 0.47648,-0.59531 0.73316,-1.32291 1.14342,-3.24113 1.30474,-3.61598 1.55615,-3.61598 0.14655,0 0.26646,-0.30427 0.26646,-0.67615 0,-0.37189 0.15738,-0.72908 0.34974,-0.79375 0.19235,-0.0647 0.38573,-0.55416 0.42972,-1.08773 0.044,-0.53358 0.20411,-0.97014 0.35582,-0.97014 0.15171,0 0.27583,-0.30427 0.27583,-0.67616 0,-0.37189 0.156,-0.72907 0.34667,-0.79375 0.19067,-0.0647 0.38911,-0.71259 0.44097,-1.4398 0.0519,-0.72722 0.21337,-1.32253 0.35889,-1.32292 0.14552,-3.5e-4 0.26458,-0.20718 0.26458,-0.45954 0,-0.64902 0.82971,-2.35734 1.14653,-2.36064 0.14552,-0.001 0.26458,-0.54023 0.26458,-1.19715 0,-0.65691 0.23,-1.63772 0.51112,-2.17956 0.28111,-0.54185 0.42982,-1.1167 0.33047,-1.27746 -0.0994,-0.16075 0.14689,-0.75227 0.54722,-1.31447 0.40032,-0.56221 0.72786,-1.12339 0.72786,-1.24707 0,-0.12368 0.3175,-0.56567 0.70556,-0.9822 0.38805,-0.41653 0.70555,-0.96552 0.70555,-1.21997 0,-0.25446 0.13327,-0.46265 0.29615,-0.46265 0.50686,0 1.12839,-1.76394 0.91754,-2.60403 -0.1252,-0.49883 0.007,-0.97202 0.35113,-1.2577 0.30352,-0.2519 0.55185,-0.82606 0.55185,-1.27592 0,-0.44986 0.13855,-0.90356 0.3079,-1.00822 0.16934,-0.10466 0.3223,-0.90821 0.33992,-1.78566 0.0212,-1.05564 0.26291,-1.8432 0.71449,-2.32792 0.68596,-0.73629 0.99783,-1.76933 1.32255,-4.38083 0.17526,-1.40946 1.27543,-3.81836 2.14647,-4.69982 0.27104,-0.27429 0.37241,-0.81934 0.24602,-1.32292 -0.11822,-0.47103 -0.0633,-0.85642 0.12209,-0.85642 0.18538,0 0.64358,-0.27782 1.01824,-0.61736 l 0.68119,-0.61737 0.0395,-3.118528 c 0.0223,-1.76068 0.21002,-3.28904 0.43111,-3.51014 0.21539,-0.21538 0.39161,-0.74736 0.39161,-1.18217 0,-0.43481 0.15875,-0.88868 0.35278,-1.0086 0.19402,-0.11991 0.35277,-0.60553 0.35277,-1.07915 0,-0.47362 0.3175,-1.17863 0.70556,-1.56668 l 0.70556,-0.70556 v -1.69333 c 0,-0.93133 0.19843,-1.90368 0.44097,-2.16076 l 0.44097,-0.46744 -0.44097,-0.16168 c -0.29378,-0.10772 -0.44097,-0.96357 -0.44097,-2.564 v -2.4023 l 0.56658,-0.21742 0.56659,-0.21742 -0.20982,-0.83598 -0.20982,-0.83599 1.45354,-1.1892 c 2.81242,-2.30097 3.86942,-2.90873 5.51768,-3.17259 0.91512,-0.14651 2.49769,-0.44212 3.51681,-0.65693 l 1.85296,-0.39057 1.23385,0.5855 c 0.67861,0.32203 1.23385,0.72617 1.23385,0.89809 0,0.17191 0.3175,0.31258 0.70555,0.31258 0.38806,0 0.70556,0.15875 0.70556,0.35278 0,0.19402 0.23447,0.35277 0.52103,0.35277 0.80065,0 1.70656,1.62671 1.45782,2.61775 -0.13575,0.54088 -0.0195,1.05509 0.31389,1.38848 0.29122,0.29122 0.52948,1.09645 0.52948,1.78941 0,0.69296 0.15875,1.25992 0.35278,1.25992 0.19403,0 0.35278,0.47491 0.35278,1.05534 0,0.67329 0.25543,1.21487 0.70555,1.49597 0.38806,0.24235 0.70556,0.79449 0.70556,1.22699 0,0.43249 0.3175,1.35163 0.70555,2.04253 0.38806,0.6909 0.70556,1.72761 0.70556,2.30379 0,0.57618 0.15875,1.0476 0.35278,1.0476 0.19939,0 0.35277,1.00794 0.35277,2.31826 v 2.31825 l 0.52917,0.52917 c 0.29104,0.29104 0.52917,0.81594 0.52917,1.16643 0,0.35051 0.22717,1.18097 0.50481,1.84547 0.28002,0.67019 0.37949,1.41099 0.22336,1.6636 -0.27966,0.452498 0.28245,2.928708 0.77712,3.423368 0.14223,0.14223 0.2586,0.78776 0.2586,1.43453 0,0.64675 0.15875,1.17592 0.35277,1.17592 0.47214,0 0.45237,3.74086 -0.0245,4.63185 -0.25705,0.4803 -0.26267,0.84298 -0.0177,1.13821 0.19778,0.23831 0.40723,1.29972 0.46545,2.3587 0.0582,1.05897 0.23955,2.02319 0.40295,2.14271 0.16341,0.11952 0.0916,0.54628 -0.15946,0.94837 l -0.45655,0.73107 0.40072,0.81552 c 0.2204,0.44853 0.58945,1.45052 0.82012,2.22663 0.23068,0.77611 0.55867,1.68676 0.72888,2.02368 0.17021,0.33692 0.30947,1.64661 0.30947,2.91042 0,1.26381 0.14024,2.29784 0.31163,2.29784 0.52355,0 0.83069,1.44831 0.95379,4.49753 l 0.11748,2.91003 0.71966,0.77246 0.71966,0.77247 v 2.20571 c 0,1.21315 0.15875,2.30383 0.35278,2.42375 0.19403,0.11991 0.35278,0.59616 0.35278,1.05833 0,0.46217 0.15875,0.93842 0.35278,1.05833 0.19403,0.11992 0.35278,1.45427 0.35278,2.96523 0,1.74787 0.19448,3.13707 0.53465,3.81895 0.29406,0.58946 0.66061,2.37459 0.81454,3.96697 l 0.27989,2.89524 -0.46177,0.89005 c -0.64768,1.2484 -0.60472,1.41869 0.68477,2.71434 0.63059,0.6336 1.52038,1.57544 1.9773,2.09297 0.45693,0.51754 1.09987,0.94098 1.42875,0.94098 0.32889,0 0.79511,0.19713 1.03605,0.43808 l 0.43808,0.43808 4.30678,-0.084 c 6.0137,-0.11726 9.42208,0.59103 9.42208,1.95796 0,0.50355 2.71035,2.18875 3.52022,2.18875 h 0.71312 v 1.05833 c 0,0.58208 -0.15875,1.05833 -0.35278,1.05833 -0.19403,0 -0.35316,0.19844 -0.35362,0.44097 -3.5e-4,0.24254 -0.90168,0.91171 -2.0027,1.48705 l -2.00188,1.04608 -1.87098,-0.0271 c -1.02904,-0.0149 -2.10205,-0.21881 -2.38447,-0.45319 l -0.51347,-0.42615 -0.70492,0.37726 c -0.3877,0.20749 -0.97778,0.37725 -1.3113,0.37725 -0.33351,0 -1.61437,0.47625 -2.84636,1.05834 -1.23198,0.58208 -2.40963,1.05833 -2.617,1.05833 -1.42681,0 -1.72897,1.9612 -0.67941,4.40972 0.40386,0.94217 0.70555,2.42985 0.70555,3.47915 v 1.83315 l 0.70556,0.50854 0.70555,0.50853 v 1.33324 c 0,0.73327 0.14343,1.33323 0.31874,1.33323 0.17529,0 0.3948,0.75406 0.48779,1.67569 0.093,0.92163 0.36393,2.3107 0.60211,3.08681 0.67232,2.1908 0.83196,4.36449 0.36213,4.9306 l -0.41829,0.50401 0.73487,0.7888 c 0.40418,0.43384 0.73488,1.20865 0.73488,1.72181 0,0.51316 0.11658,1.04961 0.25908,1.1921 0.4667,0.4667 1.09404,4.25248 0.76282,4.60337 -0.17399,0.18433 -0.31635,0.61955 -0.31635,0.96715 0,0.34761 -0.3175,0.83029 -0.70555,1.07264 l -0.70556,0.44063 v 1.85542 c 0,1.02048 -0.15875,1.85541 -0.35278,1.85541 -0.19402,0 -0.35277,0.54755 -0.35277,1.21677 v 1.21677 l -1.14653,0.82939 c -0.63059,0.45616 -1.75108,1.03348 -2.48998,1.28293 l -1.34345,0.45355 -1.65516,-0.39706 c -0.91034,-0.21839 -1.78625,-0.38033 -1.94646,-0.35987 -0.16022,0.0205 -0.56003,-0.27264 -0.88846,-0.65132 -0.32843,-0.37869 -1.34829,-1.0416 -2.26634,-1.47314 -0.91805,-0.43152 -1.66918,-0.92586 -1.66918,-1.09852 0,-0.17266 -0.3085,-0.31393 -0.68555,-0.31393 -0.90523,0 -1.80753,-1.33143 -1.59795,-2.35791 0.0918,-0.4494 0.24645,-1.20286 0.34375,-1.67437 0.0973,-0.4715 0.37512,-1.07295 0.61736,-1.33655 1.40861,-1.53283 1.60942,-2.96204 0.90736,-6.45783 l -0.41502,-2.06657 0.41502,-0.13834 c 0.48278,-0.16092 0.5691,-1.49065 0.0968,-1.49065 -0.49423,0 -1.09284,-2.05782 -1.09284,-3.75681 0,-0.84417 -0.15875,-1.53486 -0.35278,-1.53486 -0.19883,0 -0.35278,-0.99596 -0.35278,-2.28232 0,-1.53141 -0.2085,-2.66309 -0.63371,-3.43959 -0.34854,-0.63649 -0.84026,-1.87163 -1.09271,-2.74476 -0.25245,-0.87312 -0.60363,-1.86531 -0.78039,-2.20486 -0.20423,-0.3923 -0.19169,-0.61736 0.0344,-0.61736 0.19567,0 0.35577,-0.56499 0.35577,-1.25554 0,-0.72213 -0.14552,-1.16561 -0.34252,-1.04386 -0.18839,0.11643 -0.70433,-0.21891 -1.14653,-0.7452 -0.44221,-0.52629 -1.08182,-1.24718 -1.42137,-1.60198 l -0.61737,-0.64509 h -3.72736 c -2.19063,0 -4.04505,0.17144 -4.49792,0.41582 -0.52273,0.28209 -2.80839,0.39687 -7.10687,0.35689 -5.91132,-0.055 -7.21262,0.0842 -9.53868,1.02004 -1.14086,0.45901 -3.5945,0.72982 -8.20209,0.90526 -2.37684,0.0905 -4.32153,0.31422 -4.32153,0.49715 0,0.18294 -0.25919,0.33262 -0.57598,0.33262 -0.77001,0 -1.89808,1.34603 -2.13944,2.55282 -0.10725,0.53623 -0.3339,0.97496 -0.50367,0.97496 -0.16978,0 -0.30868,0.52569 -0.30868,1.1682 0,0.64251 -0.27782,1.47595 -0.61736,1.85208 -0.8235,0.91223 -2.55368,6.36762 -2.57313,8.11323 -0.009,0.76456 -0.24425,2.0251 -0.52385,2.80121 -0.2796,0.77611 -0.51076,1.85534 -0.51368,2.39829 -0.003,0.54295 -0.32282,1.64433 -0.71087,2.44752 -0.38806,0.80318 -0.70556,1.9172 -0.70556,2.47559 0,0.55839 -0.14162,1.28264 -0.31471,1.60943 -0.27928,0.52729 -0.69399,2.70237 -0.7303,3.8303 -0.007,0.22765 -0.38876,0.86265 -0.84764,1.41111 l -0.83432,0.99721 -0.21264,2.82222 c -0.11695,1.55222 -0.30339,4.01285 -0.41431,5.46806 -0.26398,3.46339 -1.49662,7.38266 -2.60052,8.26849 -0.46865,0.37608 -1.33051,1.20952 -1.91523,1.85209 -0.58473,0.64257 -1.36557,1.1683 -1.7352,1.1683 -0.36964,0 -0.93944,0.12908 -1.26624,0.28683 -0.333,0.16076 -0.94305,0.12399 -1.38792,-0.0837 z m 35.54237,-68.30365 c 1.64923,-0.0117 4.40483,0.0783 6.12355,0.19995 1.94955,0.138 3.4755,0.0777 4.05695,-0.1602 0.5126,-0.20976 1.9243,-0.43369 3.13712,-0.49763 1.21282,-0.0639 2.31084,-0.22196 2.44005,-0.35118 0.1292,-0.12921 1.31412,-0.23492 2.63315,-0.23492 h 2.39824 l 0.38167,-0.71315 0.38166,-0.71315 -0.37194,-2.02088 c -0.20458,-1.11149 -0.62353,-2.78069 -0.93102,-3.70935 l -0.55907,-1.68847 0.43055,-0.51878 0.43055,-0.51878 -0.38249,-1.49692 c -0.21037,-0.8233 -0.4848,-2.76691 -0.60982,-4.31914 -0.12503,-1.55222 -0.44949,-3.35754 -0.72102,-4.01183 -0.27153,-0.65428 -0.49369,-1.61119 -0.49369,-2.12646 0,-0.51526 -0.3175,-1.2087 -0.70556,-1.54096 -0.72937,-0.62451 -1.00137,-2.72769 -0.35277,-2.72769 0.45769,0 0.45895,-1.86938 10e-4,-2.32677 -0.19317,-0.19316 -0.40411,-0.82022 -0.46876,-1.39347 -0.0647,-0.57324 -0.21005,-1.28039 -0.32312,-1.57143 -0.11307,-0.29104 -0.39001,-1.79916 -0.61541,-3.35139 -0.41482,-2.85766 -1.01582,-4.7625 -1.50246,-4.7625 -0.14667,0 -0.26666,-0.9525 -0.26666,-2.11666 0,-1.17593 -0.15679,-2.11667 -0.35278,-2.11667 -0.19403,0 -0.35337,-0.75406 -0.3541,-1.67569 -7e-4,-0.96827 -0.26522,-2.1225 -0.62642,-2.73403 l -0.62511,-1.05834 -0.10212,-3.35139 c -0.0956,-3.13566 -0.58471,-5.29166 -1.20059,-5.29166 -0.14666,0 -0.26666,0.23314 -0.26666,0.51809 0,0.31429 -0.20699,0.43867 -0.52619,0.31618 -0.32109,-0.12322 -0.60822,0.053 -0.73664,0.45204 -0.11573,0.35968 -0.51395,1.23121 -0.88491,1.93672 -0.37097,0.70552 -0.67448,1.54145 -0.67448,1.85764 0,0.88673 -0.84458,3.386 -1.14423,3.386 -0.14679,0 -0.26688,0.28575 -0.26688,0.635 0,0.34925 -0.12978,0.78581 -0.2884,0.97013 -0.15861,0.18433 -0.49661,1.20827 -0.7511,2.27542 -0.25449,1.06715 -0.75972,2.56541 -1.12272,3.32946 -0.363,0.76405 -0.66001,1.57631 -0.66001,1.80504 0,0.62029 -1.51782,4.19587 -1.83879,4.3317 -0.15283,0.0647 -0.27787,0.49377 -0.27787,0.95354 0,0.94175 -0.68722,2.63304 -1.06988,2.63304 -0.13808,0 -0.3508,0.62374 -0.4727,1.38608 -0.12191,0.76234 -0.45969,1.62413 -0.75064,1.91508 -0.29095,0.29095 -0.52901,0.82609 -0.52901,1.1892 0,0.36311 -0.16203,0.82223 -0.36006,1.02026 -0.44613,0.44613 -1.7566,3.97979 -1.7566,4.73663 0,0.3057 -0.3175,0.89662 -0.70556,1.31315 -0.38805,0.41653 -0.70555,1.00424 -0.70555,1.30603 0,0.30178 -0.14836,0.82436 -0.32967,1.16127 -0.18132,0.33692 -0.53758,1.12852 -0.79168,1.75911 -0.2541,0.63059 -0.55328,1.14652 -0.66484,1.14652 -0.11156,0 -0.22397,1.13942 -0.24979,2.53205 -0.0452,2.43523 -0.57364,4.52351 -1.14477,4.52351 -0.15011,0 -0.36288,0.59531 -0.47283,1.32292 -0.46763,3.09461 -0.67539,3.98621 -0.97151,4.16923 -0.17259,0.10666 -0.3138,0.70844 -0.3138,1.33728 0,0.62884 -0.17732,1.32067 -0.39405,1.53739 l -0.39404,0.39405 0.48224,0.56014 0.48224,0.56013 3.35139,-0.17463 c 1.84326,-0.096 4.70076,-0.18418 6.35,-0.19586 z m 20.46111,-48.66899 c 0,-0.19402 -0.47625,-0.35277 -1.05834,-0.35277 -0.58208,0 -1.05833,0.15875 -1.05833,0.35277 0,0.19403 0.47625,0.35278 1.05833,0.35278 0.58209,0 1.05834,-0.15875 1.05834,-0.35278 z m 385.74433,114.97616 c -0.10993,-0.17785 -1.06362,-0.32336 -2.11931,-0.32336 -1.05572,0 -1.91947,-0.15875 -1.91947,-0.35278 0,-0.19403 -0.20948,-0.35278 -0.46556,-0.35278 -0.25604,0 -0.78905,-0.35719 -1.18448,-0.79375 -1.03121,-1.13848 -2.17855,-2.02847 -2.61497,-2.02847 -0.42495,0 -3.14332,-2.7297 -3.14332,-3.15642 0,-0.15215 -0.85467,-1.16614 -1.89928,-2.25332 -1.04461,-1.08719 -1.99736,-2.3674 -2.1172,-2.84492 -0.11984,-0.47753 -0.45579,-1.10611 -0.74655,-1.39686 -0.29076,-0.29075 -0.52864,-0.75089 -0.52864,-1.02252 0,-0.53007 -2.0967,-3.8885 -2.54956,-4.08383 -0.14996,-0.0647 -0.27266,-0.49187 -0.27266,-0.94932 0,-0.45745 -0.15875,-0.92984 -0.35278,-1.04976 -0.19402,-0.11991 -0.35277,-0.52616 -0.35277,-0.90276 0,-0.37661 -0.12753,-0.68474 -0.28335,-0.68474 -0.15586,0 -0.6718,-0.79128 -1.14653,-1.7584 -0.47477,-0.96712 -0.97677,-1.76087 -1.11563,-1.76389 -0.13882,-0.003 -0.35972,-0.81449 -0.49089,-1.80328 -0.15801,-1.19112 -0.51925,-2.07857 -1.0705,-2.6298 -0.45759,-0.4576 -0.83199,-1.0046 -0.83199,-1.21556 0,-0.21097 -0.3175,-0.72436 -0.70556,-1.14089 -0.38805,-0.41653 -0.70555,-1.05954 -0.70555,-1.42891 0,-0.36938 -0.3175,-1.07523 -0.70556,-1.56856 -0.38806,-0.49333 -0.70556,-1.41802 -0.70556,-2.05487 0,-0.63684 -0.3175,-1.89859 -0.70555,-2.80389 -0.38806,-0.9053 -0.70556,-1.9465 -0.70556,-2.31378 0,-0.36728 -0.3169,-1.18756 -0.70425,-1.82283 -0.38731,-0.63528 -0.70481,-1.75253 -0.70555,-2.48276 0,-1.27425 -0.0923,-1.57713 -1.00457,-3.34182 -0.2243,-0.43393 -0.40785,-1.25962 -0.40785,-1.83487 0,-0.57525 -0.26151,-1.96647 -0.58113,-3.09159 -0.31965,-1.12513 -0.65179,-2.83944 -0.73808,-3.80958 -0.0863,-0.97013 -0.30106,-1.9147 -0.4772,-2.09902 -0.17615,-0.18433 -0.32414,-1.13683 -0.32886,-2.11667 -0.005,-0.97984 -0.15272,-2.41653 -0.32879,-3.19264 -0.17607,-0.77612 -0.39518,-2.28425 -0.48694,-3.3514 -0.25524,-2.96939 -0.4559,-3.72727 -1.79264,-6.77109 -0.31475,-0.71667 -0.56184,-1.74855 -0.54906,-2.29306 0.0215,-0.91731 -0.1971,-2.55752 -1.00027,-7.50574 -0.17226,-1.06128 -0.23506,-2.22847 -0.13952,-2.59375 0.0955,-0.36527 -0.0462,-0.80003 -0.31493,-0.96611 l -0.48863,-0.30198 0.43804,-0.43802 c 0.49738,-0.4974 0.59898,-3.33079 0.12982,-3.62075 -0.30804,-0.19038 -0.46979,-1.88664 -1.0959,-11.49283 -0.18334,-2.81341 -0.44058,-6.18891 -0.57164,-7.50114 l -0.23827,-2.38585 0.69053,-0.61276 c 0.37977,-0.33701 0.79357,-0.89057 0.91952,-1.23011 0.12597,-0.33955 0.44753,-0.61737 0.71458,-0.61737 0.26706,0 0.7729,-0.3175 1.12409,-0.70555 l 0.63853,-0.70556 2.32657,0.005 c 3.07322,0.007 6.38351,1.18748 6.38351,2.27638 0,0.27114 0.3175,0.59375 0.70556,0.71692 0.38806,0.12316 0.70556,0.45136 0.70556,0.72933 0,0.27796 0.15875,0.50539 0.35277,0.50539 0.50913,0 0.43487,2.94686 -0.0882,3.50132 l -0.44097,0.46743 0.44097,0.16169 c 0.27107,0.0994 0.44097,0.83001 0.44097,1.89618 0,0.95397 0.14785,1.73449 0.32858,1.73449 0.18069,0 0.39402,1.46844 0.47406,3.2632 0.08,1.79475 0.34385,3.89819 0.58628,4.6743 0.24247,0.77611 0.51756,2.35714 0.61137,3.5134 0.0938,1.15627 0.31711,2.37614 0.49625,2.71084 0.17914,0.3347 0.32568,1.73023 0.32568,3.10118 0,1.42658 0.15089,2.49264 0.35278,2.49264 0.46405,0 0.45854,2.02261 -0.006,2.17744 -0.20919,0.0697 -0.0622,0.70117 0.35278,1.5151 0.82212,1.61256 1.00044,5.30364 0.27051,5.59982 l -0.44097,0.17893 0.38816,0.29144 c 0.77026,0.57833 1.19934,1.86586 1.19934,3.59881 0,0.97145 0.14249,1.85432 0.31662,1.96194 0.17413,0.10763 0.27876,0.79168 0.23251,1.52013 -0.12523,1.97242 0.47255,5.44038 1.10497,6.41034 l 0.55591,0.85256 -0.58198,0.42554 c -0.57897,0.42335 -0.45208,1.57352 0.17361,1.57352 0.17325,0 0.31503,0.5258 0.31503,1.16846 0,0.64265 0.3175,1.82561 0.70555,2.62879 0.84155,1.74183 0.89348,2.76798 0.17639,3.48509 -0.93832,0.93833 -0.6429,1.6668 1.19151,2.9379 0.46574,0.32274 0.74877,0.89771 0.74877,1.52121 0,1.54802 1.00475,4.25935 1.96028,5.28984 l 0.86194,0.92958 v 2.30845 c 0,1.30379 0.15353,2.30845 0.35278,2.30845 0.19403,0 0.35278,0.3175 0.35278,0.70556 0,0.38806 0.15875,0.70556 0.35277,0.70556 0.19403,0 0.35278,0.31003 0.35278,0.68895 0,0.71482 0.69896,2.5304 1.09287,2.83882 0.36245,0.28378 1.72935,3.26401 1.72935,3.77043 0,0.2546 0.15875,0.46291 0.35278,0.46291 0.19403,0 0.35278,0.47625 0.35278,1.05833 0,0.58208 0.11934,1.05833 0.26518,1.05833 0.14588,0 0.64569,0.71725 1.11076,1.59389 0.46503,0.87664 0.91458,1.52487 0.99892,1.44051 0.27644,-0.27643 1.53681,1.21596 1.32137,1.56458 -0.11987,0.19392 0.3339,0.33991 1.05653,0.33991 h 1.26662 l 0.19106,-0.61736 c 0.10509,-0.33955 0.33821,-0.89302 0.51809,-1.22993 0.17985,-0.33692 0.32703,-1.08161 0.32703,-1.65488 0,-0.57326 0.15875,-1.14041 0.35277,-1.26033 0.19403,-0.11991 0.35278,-0.68491 0.35278,-1.25554 0,-0.57063 0.15875,-1.03751 0.35278,-1.03751 0.19403,0 0.35278,-0.3175 0.35278,-0.70556 0,-0.38805 0.15875,-0.70555 0.35277,-0.70555 0.19403,0 0.35278,-0.53103 0.35278,-1.18005 0,-0.73202 0.26787,-1.42247 0.70556,-1.81857 0.38805,-0.35118 0.70555,-0.93391 0.70555,-1.29495 0,-0.95055 0.83058,-3.46755 1.14424,-3.46755 0.14679,0 0.26687,-0.4412 0.26687,-0.98045 0,-0.57576 0.29122,-1.19036 0.70556,-1.48899 l 0.70556,-0.50854 v -2.01796 c 0,-1.10989 0.15875,-2.11608 0.35277,-2.236 0.19403,-0.11992 0.35278,-0.81191 0.35278,-1.53777 0,-0.72585 0.14178,-1.47054 0.3151,-1.65487 0.50278,-0.53474 1.09601,-3.88707 1.09601,-6.19351 0,-2.09773 0.47047,-4.77192 1.0795,-6.13607 0.75205,-1.68449 1.67937,-6.00128 1.36942,-6.37475 -0.17936,-0.21613 -0.21548,-0.5036 -0.0803,-0.63884 0.35094,-0.35094 0.80811,-5.84484 1.0154,-12.20257 0.11536,-3.5388 0.31993,-5.54556 0.58176,-5.70738 l 0.40379,-0.24956 -0.42093,-0.92381 c -0.48214,-1.05839 -0.55584,-2.30173 -0.13631,-2.30173 0.15649,0 0.22235,-0.99219 0.14636,-2.20486 -0.076,-1.21268 -0.14329,-2.36361 -0.14961,-2.55764 -0.006,-0.19403 0.0981,-1.14653 0.23209,-2.11667 l 0.24356,-1.76389 -0.97797,-0.44097 c -1.29755,-0.58508 -2.18327,-0.55648 -2.83118,0.0914 -0.29284,0.29282 -0.66033,0.45336 -0.81665,0.35674 -0.15635,-0.0966 -0.36682,0.14005 -0.46771,0.52593 l -0.18348,0.70159 h -1.26774 -1.26774 v -0.5452 c 0,-0.29987 -0.39688,-0.94208 -0.88195,-1.42715 -0.48507,-0.48507 -0.90456,-1.15254 -0.93218,-1.48327 -0.0275,-0.33073 -0.0932,-1.11727 -0.1457,-1.74786 -0.0525,-0.63059 0.0495,-1.14652 0.22663,-1.14652 0.17713,0 0.32208,-0.62563 0.32208,-1.39029 0,-0.76466 0.15875,-1.48841 0.35278,-1.60833 0.19403,-0.11991 0.35278,-0.64746 0.35278,-1.17232 0,-0.52487 0.31002,-1.80251 0.68894,-2.83921 0.37895,-1.03669 0.72362,-2.74102 0.76595,-3.78738 0.0423,-1.04636 0.20853,-1.90247 0.36936,-1.90247 0.16083,0 0.29242,-1.11125 0.29242,-2.46945 0,-1.41111 0.1512,-2.46944 0.35277,-2.46944 0.19403,0 0.35278,-0.2082 0.35278,-0.46265 0,-0.25446 0.3175,-0.80344 0.70556,-1.21997 l 0.70555,-0.75733 v -1.69044 c 0,-2.85546 1.88408,-5.859948 3.96974,-6.324878 0.53358,-0.11895 0.97014,-0.35517 0.97014,-0.52494 0,-0.60266 2.7776,-0.29691 4.2,0.46232 0.79445,0.42405 1.44444,0.881038 1.44444,1.015528 0,0.1345 0.47625,0.44181 1.05834,0.68291 0.60776,0.25175 1.05833,0.70214 1.05833,1.05794 0,0.34075 0.22811,0.80886 0.50687,1.04022 0.27877,0.23136 0.61676,1.30033 0.7511,2.37548 l 0.24423,1.95481 -0.48652,0.34041 -0.48651,0.34041 0.44097,0.17893 c 0.24253,0.0984 0.44097,0.4832 0.44097,0.85509 0,0.37189 0.15875,0.67616 0.35278,0.67616 0.19403,0 0.35278,0.28575 0.35278,0.635 0,0.34925 0.14478,0.78581 0.32173,0.97013 0.17695,0.18433 0.40986,1.20827 0.51753,2.27542 0.10766,1.06715 0.29753,2.70895 0.42192,3.64843 0.14227,1.0747 0.0812,1.8531 -0.16475,2.09902 -0.62106,0.62107 -0.45459,1.59312 0.31468,1.83727 0.72799,0.23106 1.03875,1.94028 0.35278,1.94028 -0.49485,0 -0.44454,4.35323 0.056,4.85385 0.24398,0.24396 0.37874,1.33943 0.33415,2.71639 -0.0424,1.30816 0.0736,2.30754 0.26776,2.30754 0.18835,0 0.39518,1.11161 0.4596,2.47024 l 0.11716,2.47024 -0.44097,-7e-4 c -0.24353,-5.3e-4 -0.44196,0.31661 -0.44196,0.70467 0,0.38805 -0.15875,0.70555 -0.35278,0.70555 -0.66636,0 -0.39173,2.80993 0.35278,3.60905 0.77283,0.82955 0.93144,1.9013 0.31192,2.10781 -0.25932,0.0864 -0.40407,1.63111 -0.42418,4.52731 -0.0183,2.62858 -0.17914,4.50032 -0.40012,4.65529 -0.24162,0.16946 -0.21692,0.26105 0.0714,0.26459 l 0.44098,0.005 v 2.29784 c 0,1.26381 -0.1439,2.5735 -0.31976,2.91042 -0.17586,0.33691 -0.49975,1.28726 -0.7197,2.11188 -0.22,0.82461 -0.55235,1.4993 -0.73858,1.4993 -0.55552,0 -0.3834,0.96567 0.2129,1.1945 0.30332,0.1164 0.46108,0.35795 0.35059,0.53678 -0.11052,0.17883 0,0.39822 0.24222,0.48756 l 0.44316,0.16242 -0.44097,0.46743 c -0.24254,0.25709 -0.44097,0.91193 -0.44097,1.45521 0,0.54328 -0.15875,0.98778 -0.35278,0.98778 -0.19403,0 -0.35278,0.24749 -0.35278,0.54999 0,0.30249 0.15875,0.45187 0.35278,0.33195 0.21865,-0.13514 0.35278,0.51111 0.35278,1.69988 0,1.30545 0.17536,2.06344 0.54916,2.37366 l 0.54914,0.45576 -0.90191,0.77501 c -0.49608,0.42625 -0.90195,1.11078 -0.90195,1.52116 0,1.12594 -0.75311,5.77687 -1.0655,6.58009 -1.06373,2.73507 -1.13453,3.06612 -0.81466,3.80826 0.46598,1.08117 0.2227,1.8617 -0.78635,2.52284 l -0.86127,0.56433 v 1.95297 c 0,1.07413 -0.1428,1.86471 -0.31736,1.75683 -0.17452,-0.10787 -0.40816,0.47808 -0.51918,1.3021 -0.26296,1.95172 -0.83901,5.73256 -1.12857,7.40725 -0.1258,0.72761 -0.37014,1.32292 -0.54293,1.32292 -0.90674,0 -1.72529,0.74122 -1.72529,1.5623 0,0.3049 -0.15875,0.55437 -0.35278,0.55437 -0.19403,0 -0.35278,0.30813 -0.35278,0.68473 0,0.37661 -0.15875,0.78285 -0.35277,0.90277 -0.19403,0.11991 -0.35278,0.85154 -0.35278,1.62584 0,0.77429 -0.22451,1.84197 -0.49894,2.37261 -0.27439,0.53065 -0.60956,1.55464 -0.74482,2.27554 -0.13522,0.7209 -0.38696,1.31073 -0.5594,1.31073 -0.17243,0 -0.31351,0.3175 -0.31351,0.70555 0,0.38806 -0.15875,0.70556 -0.35278,0.70556 -0.19402,0 -0.35277,0.52795 -0.35277,1.17323 0,0.80173 -0.28512,1.44108 -0.9004,2.01911 l -0.90039,0.84588 0.1961,0.78149 c 0.10788,0.42983 0.0368,0.87997 -0.1579,1.00032 -0.19473,0.12036 -0.35408,0.49703 -0.35408,0.83705 0,0.34002 -0.3175,0.95901 -0.70556,1.37554 -0.38805,0.41653 -0.70555,0.93302 -0.70555,1.14776 0,0.21474 -0.79375,1.16357 -1.76389,2.10851 -0.97014,0.94494 -1.76389,2.02181 -1.76389,2.39303 0,0.74798 -2.66083,2.03405 -3.01678,1.45811 z m 7.25011,-22.19559 c 0,-0.47036 -0.23519,-0.70555 -0.70555,-0.70555 -0.67988,0 -0.956,0.6903 -0.47036,1.17592 0.4856,0.48563 1.17591,0.2095 1.17591,-0.47037 z m -32.45555,-64.05 c 0,-0.30249 -0.15875,-0.45187 -0.35278,-0.33195 -0.19403,0.11991 -0.35278,0.36741 -0.35278,0.54998 0,0.18258 0.15875,0.33196 0.35278,0.33196 0.19403,0 0.35278,-0.24749 0.35278,-0.54999 z m -399.34445,-7.03473 c 0,-0.097 0.0794,-0.17639 0.17639,-0.17639 0.097,0 0.17639,0.0794 0.17639,0.17639 0,0.097 -0.0794,0.17639 -0.17639,0.17639 -0.097,0 -0.17639,-0.0794 -0.17639,-0.17639 z m 444.85278,-36.33611 c 0,-0.097 0.0794,-0.17639 0.17639,-0.17639 0.097,0 0.17639,0.0794 0.17639,0.17639 0,0.097 -0.0794,0.17638 -0.17639,0.17638 -0.097,0 -0.17639,-0.0794 -0.17639,-0.17638 z"
       id="path314"
       inkscape:export-filename="about.png"
       inkscape:export-xdpi="96"
       inkscape:export-ydpi="96" /></g></svg>
