<?xml version="1.0" encoding="UTF-8" standalone="no"?>
<!-- Created with Inkscape (http://www.inkscape.org/) -->

<svg
   width="379.99341mm"
   height="155.19284mm"
   viewBox="0 0 379.99341 155.19284"
   version="1.1"
   id="svg5"
   xml:space="preserve"
   xmlns:inkscape="http://www.inkscape.org/namespaces/inkscape"
   xmlns:sodipodi="http://sodipodi.sourceforge.net/DTD/sodipodi-0.dtd"
   xmlns="http://www.w3.org/2000/svg"
   xmlns:svg="http://www.w3.org/2000/svg"><sodipodi:namedview
     id="namedview7"
     pagecolor="#ffffff"
     bordercolor="#000000"
     borderopacity="0.25"
     inkscape:showpageshadow="2"
     inkscape:pageopacity="0.0"
     inkscape:pagecheckerboard="0"
     inkscape:deskcolor="#d1d1d1"
     inkscape:document-units="mm"
     showgrid="false" /><defs
     id="defs2"><mask
       maskUnits="userSpaceOnUse"
       id="mask516"><rect
         style="fill:#ffffff;stroke-width:0.792001;stroke-dasharray:0.691999, 1.384"
         id="rect518"
         width="374.32117"
         height="180.65694"
         x="-875.82483"
         y="-384.43796"
         rx="5"
         ry="5" /></mask></defs><g
     inkscape:label="Layer 1"
     inkscape:groupmode="layer"
     id="layer1"
     transform="translate(281.61939,312.03878)"><path
       style="fill:#ffffff;stroke-width:0.352778"
       d="m -545.78261,-212.77427 c -0.11528,-0.10811 -5.02362,-0.64578 -9.82136,-1.07587 -1.26119,-0.11306 -3.56306,-0.43092 -5.11528,-0.70636 -4.2073,-0.74659 -10.34867,-1.3261 -11.53622,-1.08859 -0.57482,0.11497 -1.34613,0.048 -1.71397,-0.1489 -0.36785,-0.19687 -2.33673,-0.51598 -4.37526,-0.70913 -2.03856,-0.19316 -4.14553,-0.5236 -4.68217,-0.73432 -0.53665,-0.21071 -2.24571,-0.51912 -3.79794,-0.68533 -3.0226,-0.32366 -7.92046,-1.04119 -13.05277,-1.9122 -7.57051,-1.28481 -9.31891,-1.54459 -11.81806,-1.75597 -1.45521,-0.12308 -4.07458,-0.46611 -5.82083,-0.76229 -1.74625,-0.29618 -4.7625,-0.67773 -6.70278,-0.84788 -4.64901,-0.40769 -15.02709,-1.65175 -15.69861,-1.88184 -0.29104,-0.0997 -1.95576,-0.26749 -3.69937,-0.37281 -1.74363,-0.10533 -3.96613,-0.34495 -4.93888,-0.53251 -2.86629,-0.55262 -6.52117,-1.05401 -9.35341,-1.28311 -2.39618,-0.19383 -5.19924,-0.52186 -13.05278,-1.52752 -5.02211,-0.64308 -15.03588,-1.55068 -23.63611,-2.14223 -2.23132,-0.15348 -4.69195,-0.44362 -5.46806,-0.64476 -1.79927,-0.4663 -8.73495,-1.01398 -19.05,-1.50431 -4.46263,-0.21213 -8.7243,-0.54242 -9.47035,-0.73398 -0.74605,-0.19155 -2.4923,-0.33382 -3.88056,-0.31615 -1.38825,0.0177 -6.73096,-0.21292 -11.8727,-0.51241 -5.14173,-0.2995 -11.25361,-0.53517 -13.58194,-0.52371 -2.32833,0.0115 -11.13896,-0.0309 -19.57917,-0.094 -8.4402,-0.0632 -17.09208,0.004 -19.22638,0.14958 -11.91596,0.81201 -17.83377,1.0839 -22.54445,1.03579 -2.89207,-0.0295 -8.28957,0.17749 -11.99444,0.46007 -3.70488,0.28257 -10.06987,0.61133 -14.14445,0.73056 -4.07458,0.11924 -8.67833,0.36253 -10.23056,0.54065 -5.66638,0.65021 -8.99583,-0.67391 -8.99583,-3.57766 0,-1.33748 1.75062,-3.116 3.12413,-3.1739 0.51304,-0.0216 5.29844,-0.0819 10.6342,-0.13402 5.33577,-0.0521 11.44764,-0.18937 13.58195,-0.30507 2.1343,-0.1157 9.4368,-0.30538 16.22777,-0.4215 14.19212,-0.24268 17.45094,-0.33652 27.1639,-0.78224 10.16991,-0.46669 44.2988,-0.1399 45.73665,0.43794 0.31958,0.12843 1.81765,0.0615 3.32906,-0.14869 1.79091,-0.2491 3.12437,-0.26512 3.82866,-0.046 0.92329,0.28725 7.35503,0.78112 16.95563,1.30197 1.35819,0.0737 2.94569,0.22339 3.52777,0.33268 1.6982,0.31884 13.52935,0.97111 16.21113,0.89374 1.34902,-0.0389 3.41277,0.16538 4.58611,0.45398 3.37023,0.82899 6.32012,1.22326 6.89582,0.92167 0.63902,-0.33475 10.11537,0.57769 11.1125,1.06998 0.38805,0.19159 3.00743,0.41273 5.82083,0.49143 2.8134,0.0787 5.65383,0.31158 6.31204,0.51751 0.65821,0.20592 1.31572,0.30087 1.46114,0.21099 0.14545,-0.0899 0.95627,0.0644 1.80188,0.34284 0.84557,0.27843 4.22317,0.68374 7.50573,0.90069 4.07247,0.26915 6.19852,0.55571 6.69308,0.90211 0.48489,0.33964 1.66211,0.50729 3.55671,0.50652 1.55755,-7e-4 4.41942,0.23355 6.3597,0.5204 3.21673,0.47555 12.21828,1.54375 18.88483,2.24104 1.46138,0.15286 2.81749,0.37709 3.0136,0.49829 0.54102,0.33435 3.0371,0.66097 7.91128,1.03523 6.13887,0.47136 6.40119,0.50472 7.53315,0.95792 0.55369,0.22169 1.74431,0.38401 2.64583,0.3607 0.90149,-0.0233 2.2624,0.22631 3.02419,0.55471 0.98425,0.42427 1.833,0.52993 2.93247,0.36505 0.851,-0.12762 1.73584,-0.0815 1.96624,0.10251 0.40375,0.32239 2.38559,0.6034 6.69068,0.9487 1.12109,0.0899 2.32089,0.31468 2.66615,0.49946 0.34526,0.18479 2.04738,0.44834 3.78245,0.58568 1.73506,0.13733 3.55155,0.39892 4.03662,0.5813 0.48507,0.18238 2.06421,0.39631 3.50922,0.4754 1.44502,0.0791 3.16788,0.32219 3.82856,0.54024 0.66068,0.21805 1.78163,0.30364 2.491,0.19022 0.70933,-0.11343 2.14873,0.0204 3.19863,0.29732 1.04987,0.27696 2.02745,0.43029 2.17237,0.34073 0.14489,-0.0896 2.61829,0.0523 5.49642,0.31515 2.87814,0.26289 7.53484,0.45161 10.34825,0.41938 6.63776,-0.076 7.84588,0.99165 5.68684,5.02584 -0.7608,1.42152 -4.52674,2.83928 -5.39048,2.02935 z M -157.965,-226.7147 c -2.95645,-2.95645 -0.32918,-5.91519 8.93741,-10.06509 0.58209,-0.26067 1.45521,-0.58247 1.94028,-0.71511 0.48507,-0.13264 1.19945,-0.52008 1.5875,-0.86098 0.38806,-0.3409 2.05493,-1.2912 3.70417,-2.11177 1.64923,-0.82057 3.15736,-1.61756 3.35139,-1.77111 0.19402,-0.15354 0.67027,-0.35064 1.05833,-0.438 0.61778,-0.13907 0.57908,-0.21073 -0.31119,-0.57611 -0.55918,-0.22951 -1.29991,-0.32741 -1.64599,-0.21757 -0.34611,0.10985 -0.73194,0.0336 -0.85742,-0.16941 -0.12549,-0.20303 -0.89288,-0.35321 -1.70537,-0.33373 -1.2453,0.0298 -8.73562,-0.4917 -13.82447,-0.9626 -0.77612,-0.0718 -3.87174,-0.28955 -6.87917,-0.48385 -3.00743,-0.1943 -5.83272,-0.51102 -6.27842,-0.70383 -0.44567,-0.1928 -1.30923,-0.35055 -1.91904,-0.35055 -0.60978,0 -1.99136,-0.15208 -3.07019,-0.33795 -1.70237,-0.29329 -7.35969,-0.89423 -11.83929,-1.25762 -0.77612,-0.063 -3.31612,-0.37275 -5.64445,-0.68844 -2.32833,-0.31568 -5.42396,-0.5521 -6.87917,-0.52538 -1.4552,0.0267 -4.37292,-0.10264 -6.4838,-0.28746 -2.11088,-0.18483 -4.33338,-0.2254 -4.93889,-0.0901 -0.66128,0.14771 -1.52354,0.0647 -2.15925,-0.20791 -0.58208,-0.2496 -2.12051,-0.46098 -3.41877,-0.46974 -1.29822,-0.009 -2.44849,-0.1584 -2.55612,-0.33257 -0.10767,-0.17417 -2.41635,-0.30391 -5.13045,-0.28831 -2.71409,0.0156 -5.0431,-0.08 -5.17557,-0.21251 -0.13246,-0.13247 -1.44469,-0.24174 -2.91609,-0.24282 -1.47137,-0.001 -3.29248,-0.17335 -4.04693,-0.38283 -1.08151,-0.30029 -1.43489,-0.28121 -1.67029,0.0902 -0.17717,0.27948 -0.30078,0.31021 -0.30399,0.0755 -0.005,-0.37287 -5.64028,-0.96625 -12.7054,-1.33786 -1.45521,-0.0765 -4.86833,-0.29947 -7.58472,-0.49539 -2.71639,-0.19592 -9.14577,-0.45494 -14.2875,-0.57559 -5.14174,-0.12066 -12.68236,-0.31002 -16.75695,-0.42079 -4.07458,-0.11077 -7.64645,-0.18035 -7.93749,-0.15463 -0.29105,0.0257 -4.15954,0.0365 -8.59667,0.024 -5.21364,-0.0147 -8.50435,0.12139 -9.30237,0.38476 -0.80702,0.26634 -1.31195,0.286 -1.45747,0.0567 -0.14016,-0.22079 -3.16389,-0.3112 -8.16017,-0.24398 -4.36563,0.0587 -13.0175,0.12977 -19.22639,0.15786 -10.64793,0.0482 -14.13016,0.23695 -20.18347,1.09414 -3.71511,0.52609 -14.11309,1.41766 -18.79847,1.61187 -2.23132,0.0925 -4.20776,0.31561 -4.39209,0.49583 -0.18432,0.18022 -0.76267,0.32767 -1.28517,0.32767 -2.07006,0 -1.38401,1.81307 0.85627,2.26291 0.54987,0.11043 1.44751,0.51957 1.99471,0.90921 0.54719,0.38964 1.19726,0.70844 1.44459,0.70844 0.73903,0 2.8539,0.71938 4.73308,1.60998 2.95546,1.40068 4.91179,2.20638 6.00946,2.47497 0.57534,0.14078 1.42469,0.54926 1.88743,0.90773 0.4627,0.35847 1.11182,0.65176 1.4424,0.65176 1.50291,0 11.06456,3.27429 12.05488,4.12806 0.84988,0.73273 1.05226,2.28234 0.39384,3.01569 -0.94481,1.05231 -8.49662,0.67461 -9.77593,-0.48894 -0.18433,-0.16764 -0.73995,-0.30653 -1.23472,-0.30863 -1.17144,-0.005 -3.54796,-0.75238 -6.19125,-1.94713 -1.16417,-0.5262 -3.06917,-1.25083 -4.23334,-1.61029 -1.16416,-0.35946 -4.18041,-1.36943 -6.70277,-2.24438 -2.52236,-0.87495 -4.81179,-1.59349 -5.08759,-1.59677 -0.27584,-0.003 -1.52889,-0.41697 -2.78464,-0.91934 -1.25571,-0.50237 -2.64929,-0.8434 -3.09679,-0.75786 -0.45498,0.087 -0.88833,-0.039 -0.98305,-0.28581 -0.0931,-0.24275 -0.77579,-0.62807 -1.51698,-0.85629 -0.74118,-0.2282 -1.82386,-0.62854 -2.40594,-0.88962 -0.58209,-0.26109 -1.77271,-0.72502 -2.64584,-1.03095 -3.04973,-1.0686 -4.97583,-3.72015 -4.1947,-5.77463 0.86282,-2.26936 8.27595,-8.89422 9.95253,-8.89422 0.13607,0 1.92613,-0.79375 3.97789,-1.76389 2.05179,-0.97014 4.01481,-1.76389 4.36233,-1.76389 0.34749,0 1.80227,-0.44834 3.23286,-0.99632 8.15498,-3.12376 17.91878,-6.14918 19.65406,-6.09004 3.55374,0.12111 1.58506,7.05066 -2.34686,8.26078 -0.90939,0.27988 -2.84402,0.9272 -4.29923,1.4385 -1.45521,0.5113 -3.32532,1.09248 -4.15579,1.29149 -0.83048,0.19902 -1.4157,0.51432 -1.30055,0.70066 0.31245,0.50554 -0.87785,0.8435 -1.3407,0.38066 -0.59175,-0.59174 -1.93982,-0.48452 -2.31397,0.18405 -0.19625,0.35067 -0.55489,0.49608 -0.89842,0.36426 -0.31447,-0.12067 -1.32631,0.16636 -2.24854,0.63784 -2.08431,1.06561 -0.2836,1.24426 7.67186,0.76109 2.03729,-0.12373 5.29167,-0.31464 7.23194,-0.42424 1.94028,-0.1096 5.09087,-0.44507 7.0013,-0.74548 1.91044,-0.30041 3.94148,-0.45261 4.51344,-0.33821 0.572,0.11439 2.19354,0.0475 3.60345,-0.14857 2.58787,-0.35993 9.62724,-0.56872 28.97904,-0.85951 5.82083,-0.0875 10.90083,-0.17447 11.28888,-0.19334 0.38806,-0.0189 5.38868,0.0407 11.11251,0.1324 5.72382,0.0917 16.67757,0.26475 24.34167,0.38458 7.6641,0.11983 15.20472,0.32503 16.75694,0.456 1.55223,0.13097 3.8541,0.19879 5.11528,0.15069 1.26118,-0.0481 3.32493,0.0738 4.58611,0.27077 1.26118,0.19702 3.80118,0.44118 5.64445,0.54258 6.37684,0.35081 13.59207,0.90942 16.05139,1.24272 1.35819,0.18407 4.18528,0.33986 6.2824,0.34621 2.09716,0.006 4.87529,0.16486 6.17361,0.35225 2.11159,0.30475 12.94261,1.06272 17.5301,1.22677 5.45884,0.19522 11.51255,0.61265 13.05277,0.90004 2.59024,0.48332 12.09372,1.43463 13.93473,1.39487 0.87312,-0.0188 2.77812,0.1403 4.23333,0.35365 1.45521,0.21336 3.75708,0.46888 5.11528,0.56783 1.35819,0.0989 3.18382,0.32583 4.05694,0.50419 2.71441,0.55449 5.90811,0.78596 6.11974,0.44354 0.12199,-0.19735 1.00665,-0.20155 2.24427,-0.0107 1.12363,0.17331 3.47168,0.45814 5.21793,0.63294 1.74625,0.17481 3.75155,0.41938 4.45626,0.54349 0.78588,0.13841 1.37361,0.0762 1.52012,-0.16086 0.13137,-0.21258 0.78514,-0.38651 1.45277,-0.38651 2.85496,0 -3.34468,-6.41523 -8.53387,-8.83063 -1.72074,-0.80095 -3.40427,-1.60234 -3.74117,-1.78087 -0.33694,-0.17854 -0.77682,-0.32461 -0.97758,-0.32461 -0.73417,0 -4.92545,-2.2361 -5.66318,-3.02137 -2.6343,-2.80407 0.49516,-7.61398 4.02188,-6.18156 0.61312,0.24903 2.2999,0.843 3.7484,1.31994 1.44847,0.47693 2.80988,1.01344 3.02528,1.19222 0.21544,0.17879 1.77472,1.0486 3.46513,1.93291 1.69037,0.88431 3.80573,2.16682 4.70076,2.85002 0.89503,0.6832 2.19872,1.53469 2.89712,1.8922 2.82166,1.44447 12.30139,11.79576 14.0015,15.28881 2.42955,4.99179 1.84898,6.32655 -3.55953,8.18355 -5.81236,1.99567 -8.41911,3.09232 -13.05277,5.49124 -1.74625,0.90406 -3.61157,1.74864 -4.14514,1.87684 -0.53358,0.1282 -0.97014,0.38881 -0.97014,0.57914 0,0.19033 -0.28219,0.34606 -0.62706,0.34606 -0.34488,0 -0.953,0.2283 -1.35139,0.50733 -0.39836,0.27903 -1.50523,0.93831 -2.45974,1.46506 -5.31157,2.93127 -6.89568,3.22001 -8.55617,1.55954 z m -828.9098,-35.89266 c -0.77611,-0.0521 -2.91923,-0.25452 -4.7625,-0.4499 -1.84326,-0.19538 -6.36764,-0.44838 -10.0542,-0.56222 -3.6865,-0.11384 -8.2109,-0.26793 -10.0541,-0.34242 -1.8433,-0.0745 -4.2245,-0.15544 -5.2917,-0.17988 -1.0671,-0.0245 -2.099,-0.16784 -2.293,-0.31867 -0.3886,-0.30202 -5.53,-0.82447 -13.9348,-1.41598 -3.0074,-0.21165 -6.1824,-0.52841 -7.0555,-0.7039 -0.8731,-0.17549 -3.4131,-0.34076 -5.6445,-0.36725 -6.4736,-0.0769 -18.4463,-0.76719 -21.1666,-1.22045 -0.6791,-0.11315 -3.5366,-0.26924 -6.35,-0.34687 -2.8134,-0.0776 -7.6358,-0.38594 -10.7164,-0.68513 -3.0805,-0.29918 -5.7293,-0.4647 -5.886,-0.36781 -0.1568,0.0969 -0.9701,0.0282 -1.8073,-0.15267 -0.8373,-0.18085 -4.9933,-0.42388 -9.2358,-0.54006 -4.2424,-0.11619 -7.8143,-0.27142 -7.9375,-0.34496 -0.2479,-0.14801 -19.1762,-0.67134 -27.2115,-0.75233 -30.904,-0.31153 -45.6755,-0.53196 -49.2125,-0.73439 -2.3283,-0.13325 -6.932,-0.27351 -10.2305,-0.31168 -7.0065,-0.0811 -7.6889,-0.21963 -8.637,-1.7537 -1.5916,-2.5753 0.7226,-5.40339 4.0509,-4.95035 0.7761,0.10564 5.2211,0.2877 9.8778,0.40458 4.6566,0.11688 12.1179,0.36387 16.5805,0.54888 4.4627,0.18501 9.8601,0.38564 11.9945,0.44586 6.3938,0.1804 22.5288,0.58287 28.7513,0.71719 19.4742,0.42035 23.3002,0.52069 25.0473,0.65685 1.0671,0.0832 5.1152,0.25114 8.9958,0.37324 3.8805,0.1221 8.0874,0.37506 9.3486,0.56214 4.4827,0.66496 8.668,1.16277 10.4069,1.23785 0.9702,0.0419 4.6214,0.1792 8.1139,0.30515 3.4925,0.12594 6.9057,0.32385 7.5848,0.43981 0.679,0.11595 3.1397,0.25288 5.468,0.30428 2.3283,0.0514 6.2971,0.2701 8.8195,0.486 2.5223,0.21591 6.8879,0.54759 9.7013,0.73707 2.8134,0.18948 7.4966,0.53867 10.407,0.77598 2.9104,0.23731 6.7367,0.46231 8.5028,0.49999 1.7662,0.0377 4.3062,0.24504 5.6445,0.46078 3.0351,0.48929 14.0999,1.03695 25.89295,1.28159 11.8273,0.24534 12.34722,0.36368 12.34722,2.81048 0,3.49027 -1.55199,4.02327 -10.05417,3.4529 z m 439.12355,-4.83438 c -1.02849,-0.8654 -2.91384,-4.29289 -2.91384,-5.2972 0,-0.30588 -0.1592,-0.83181 -0.35376,-1.16873 -0.58385,-1.01097 -1.43189,-5.28666 -1.94077,-9.7848 -0.39949,-3.53137 -0.86494,-6.18722 -1.76206,-10.05417 -0.0675,-0.29104 -0.13733,-0.60854 -0.15515,-0.70556 -0.37359,-2.0342 -6.23316,2.73251 -10.42853,8.48354 -0.38806,0.53194 -1.45962,1.92433 -2.38125,3.09419 -0.92164,1.16986 -1.6757,2.30559 -1.6757,2.52385 0,3.43201 -6.05335,0.91335 -7.18389,-2.98907 -0.28106,-0.97014 -1.01756,-3.51014 -1.63665,-5.64444 -2.27407,-7.83979 -2.71797,-8.02319 -4.98072,-2.05776 -0.38026,1.00254 -0.98023,2.19317 -1.33322,2.64584 -0.35299,0.45266 -1.23963,2.05294 -1.9703,3.55617 -2.69886,5.55251 -8.68345,11.27967 -12.88133,12.32717 -2.58607,0.64531 -3.03209,0.66674 -5.45123,0.2619 -10.22102,-1.71046 -14.08461,-11.82245 -10.06178,-26.33409 0.95193,-3.43387 0.74023,-3.98119 -1.53991,-3.98119 -5.61872,0 -10.02002,5.94045 -11.89249,16.0514 -1.19704,6.46377 -6.36199,7.47524 -7.62748,1.49373 -0.6399,-3.02468 -2.74817,-4.03655 -5.47169,-2.62614 -5.03992,2.61 -13.36904,3.3995 -16.21204,1.53669 -3.1574,-2.06882 -5.94893,-2.16356 -5.94893,-0.20191 0,0.96361 -0.50831,3.08006 -1.50308,6.25842 -1.64973,5.27098 -9.78581,4.62382 -9.78581,-0.77839 0,-0.13918 -0.33658,-0.99188 -0.74796,-1.89489 -0.41137,-0.90302 -0.81315,-2.12462 -0.89284,-2.71468 -0.0797,-0.59006 -0.29161,-1.7872 -0.47092,-2.66033 -0.17932,-0.87312 -0.31331,-2.03069 -0.29778,-2.57235 0.0155,-0.54166 -0.0702,-1.08331 -0.19057,-1.20368 -0.3023,-0.30229 -6.28823,2.85591 -8.8652,4.67731 -1.16417,0.82282 -3.06917,1.93059 -4.23334,2.4617 -1.16416,0.5311 -2.38061,1.09565 -2.70323,1.25454 -0.55213,0.27193 -2.26095,0.53168 -5.33784,0.81139 -3.53106,0.321 -8.34097,-1.68348 -9.96848,-4.15424 -0.85182,-1.29312 -1.15122,-1.28041 -4.56822,0.1938 -7.24052,3.1238 -8.61593,4.33729 -8.63773,7.6209 -0.0289,4.36473 -5.82747,7.20603 -9.30039,4.55728 -3.70674,-2.8271 -3.38427,-5.58621 1.15013,-9.84009 1.37527,-1.2902 2.50049,-2.54258 2.50049,-2.78308 0,-0.9835 -2.36273,-4.52711 -4.54844,-6.82176 -1.28189,-1.34579 -2.67423,-2.80777 -3.09411,-3.24885 -1.62295,-1.70503 -2.42481,-1.52256 -5.05368,1.15 -2.53806,2.58022 -4.90583,4.68682 -6.35377,5.65297 -0.48507,0.32365 -1.28009,0.95389 -1.76668,1.4005 -0.84547,0.77597 -2.08146,1.52878 -5.68575,3.46303 -13.19763,7.08252 -30.08729,-2.2484 -24.85567,-13.73188 3.10484,-6.81512 2.96641,-6.60169 6.46085,-9.96123 2.44274,-2.34838 3.71831,-3.32015 4.5672,-3.47941 0.6478,-0.12153 1.58348,-0.54004 2.07927,-0.93002 3.40459,-2.67806 8.33607,2.17101 7.70121,7.57255 -0.35567,3.02622 -7.12509,10.84841 -9.3955,10.85669 -3.87261,0.0141 -5.61957,2.82787 -3.14571,5.06668 1.99284,1.80352 14.02838,0.14608 16.43842,-2.26376 0.18432,-0.18431 0.58896,-0.33511 0.89923,-0.33511 0.71765,0 5.93305,-4.16156 8.40009,-6.70278 3.52683,-3.63282 3.69334,-3.94171 3.76421,-6.98203 0.097,-4.15997 1.69242,-7.46383 4.12327,-8.53854 0.51777,-0.2289 1.65474,-1.20257 2.52663,-2.16369 1.65008,-1.81893 1.63855,-1.8157 4.12799,-1.15718 1.19236,0.3154 0.86766,5.14425 -0.5377,7.99696 -0.68061,1.38152 -1.23747,2.72541 -1.23747,2.98642 0,0.26101 -0.25905,0.86992 -0.5757,1.35316 -0.56409,0.86091 -0.54402,0.9086 0.99635,2.36883 4.15025,3.93441 8.55105,9.99745 9.2353,12.72365 0.31672,1.26198 1.08585,1.20884 4.30283,-0.2973 1.45048,-0.6791 2.8322,-1.24306 3.07047,-1.25325 1.25056,-0.0535 5.03308,-2.32635 5.25304,-3.15647 1.38327,-5.22033 1.88648,-6.6607 2.7814,-7.96146 0.57302,-0.83285 1.04186,-1.65806 1.04186,-1.83381 0,-0.47732 4.52889,-4.73015 6.35,-5.96293 6.97572,-4.72217 11.74835,-2.77376 11.37962,4.6457 -0.18214,3.66504 -0.38213,4.14187 -2.81795,6.71895 -2.6616,2.81596 -5.7216,5.04954 -10.14917,7.40822 -0.83266,0.44357 -0.75978,1.45622 0.17374,2.41414 1.74625,1.79196 7.12499,0.62986 12.12448,-2.61952 1.42367,-0.9253 3.28711,-2.03583 4.14098,-2.46784 1.66416,-0.84198 6.96609,-4.45248 7.54969,-5.14119 0.19403,-0.22897 0.77653,-0.63175 1.29448,-0.89509 0.51795,-0.26333 1.66278,-1.1565 2.54409,-1.98482 1.47035,-1.38192 4.24635,-2.90368 5.29689,-2.90368 0.58921,0 2.1161,1.6766 2.84953,3.12889 0.33016,0.65374 1.12303,1.92374 1.76195,2.82222 0.63891,0.89849 1.49606,2.29787 1.90479,3.10974 0.95623,1.89946 4.24836,4.59934 5.97242,4.89804 0.71853,0.12449 1.86203,0.331 2.54113,0.45891 2.88618,0.54364 7.63054,-0.47463 9.11147,-1.95556 1.74568,-1.74568 2.17498,-2.96238 2.14171,-6.06981 -0.0166,-1.55395 0.0797,-3.00325 0.2141,-3.22069 0.13438,-0.21743 -0.0293,-2.10116 -0.36346,-4.18606 -0.56529,-3.52564 -0.56723,-3.8692 -0.0275,-4.91266 2.0635,-3.99036 5.45056,-1.78078 6.21764,4.05612 1.5943,12.13147 2.46298,14.35106 4.21837,10.77849 3.92786,-7.99393 10.87734,-12.59208 16.21755,-10.73048 0.81319,0.28348 1.86354,0.28309 3.87529,-10e-4 6.04464,-0.85482 7.45759,2.2132 3.87894,8.42271 -0.98355,1.70661 -1.94808,3.89668 -2.14337,4.86682 -0.1953,0.97014 -0.5333,2.39889 -0.7511,3.175 -0.43854,1.56259 -0.44387,1.77688 -0.10118,4.05695 0.39303,2.61485 0.91186,4.26133 1.76653,5.60604 0.85489,1.34504 2.31183,2.81435 2.31183,2.33146 0,-0.15716 0.27781,-0.0441 0.61736,0.25119 5.05647,4.3977 16.12346,-7.18365 19.46321,-20.36783 0.14862,-0.58664 0.43469,-1.38039 0.63574,-1.76389 0.20101,-0.38349 0.63761,-2.04663 0.97017,-3.69586 0.33257,-1.64924 0.73191,-3.31612 0.88745,-3.70417 1.12727,-2.81273 1.51345,-8.28563 0.89101,-12.6269 -0.57422,-4.00492 -1.67308,-22.05902 -1.37227,-22.54578 0.10537,-0.1705 0.26688,-2.01014 0.35885,-4.0881 0.2862,-6.46497 3.66031,-11.11628 5.42773,-7.48226 0.9253,1.90251 1.45944,3.46047 1.61893,4.72202 0.10093,0.79837 0.43349,2.88034 0.73907,4.62659 0.41339,2.36237 0.54381,5.34201 0.50962,11.64166 -0.0254,4.65667 0.12796,11.72104 0.34047,15.69861 0.21255,3.97757 0.34396,7.78757 0.29206,8.46667 -0.22616,2.96058 0.19957,11.37084 0.6852,13.53575 0.21195,0.94474 0.70598,2.23653 1.09788,2.87065 0.3919,0.63411 0.63098,1.36927 0.53129,1.63368 -0.23852,0.63257 1.08271,2.7738 1.71157,2.7738 0.46852,0 2.04237,-1.62153 5.51688,-5.68406 0.87312,-1.02089 2.05521,-2.26306 2.62685,-2.76036 0.57164,-0.49731 1.68289,-1.47129 2.46945,-2.16441 4.73978,-4.17674 7.60444,-4.80289 9.28123,-2.02869 1.25098,2.06968 2.63045,7.73972 3.46075,14.22503 0.79918,6.24186 1.55649,8.49484 3.49497,10.39732 3.9594,3.88586 0.50888,13.54643 -3.60275,10.08674 z m -233.27771,-4.6888 c -0.48507,-0.0781 -1.73408,-0.45407 -2.77555,-0.83547 -1.04151,-0.38141 -2.15276,-0.61208 -2.46945,-0.5126 -0.60134,0.18888 -3.35509,-0.53422 -4.62717,-1.21501 -0.40591,-0.21724 -1.24792,-0.4477 -1.87114,-0.51214 -0.62318,-0.0644 -2.08558,-0.2917 -3.24975,-0.50502 -5.81917,-1.06634 -8.87402,-1.44721 -13.22917,-1.64939 -2.61937,-0.12159 -5.94018,-0.45207 -7.37955,-0.73439 -4.07123,-0.79854 -9.93161,-0.10524 -10.78519,1.27592 -0.92523,1.49703 -3.79434,-0.0895 -4.99505,-2.76218 -1.83145,-4.07653 -1.88503,-4.35904 -1.32666,-6.9948 0.53425,-2.52161 0.43526,-8.48424 -0.21854,-13.16824 -0.17604,-1.26118 -0.48606,-3.48368 -0.68894,-4.93889 -0.20288,-1.45521 -0.38135,-4.46879 -0.39659,-6.69684 -0.0152,-2.22806 -0.26321,-5.24431 -0.55101,-6.70278 -0.28779,-1.45847 -0.57488,-3.72782 -0.63793,-5.04301 -0.063,-1.31519 -0.26892,-2.58519 -0.45751,-2.82222 -0.18856,-0.23704 -0.36933,-1.53664 -0.40168,-2.88802 -0.0324,-1.35137 -0.23071,-3.13977 -0.44083,-3.97422 -0.34907,-1.38624 -0.30212,-1.63793 0.54384,-2.91627 2.24307,-3.38953 4.99633,-1.51481 5.69747,3.87948 0.11349,0.87312 0.34463,2.30187 0.51365,3.175 0.43963,2.27089 1.04051,8.4072 1.22636,12.52361 0.22158,4.90734 0.56614,7.28249 1.0342,7.12884 0.60646,-0.1991 1.96497,-2.79447 1.97725,-3.77745 0.006,-0.48507 0.23252,-1.27882 0.50324,-1.76389 0.27072,-0.48507 1.02245,-1.98966 1.67047,-3.34353 0.64805,-1.35388 1.53942,-3.10013 1.98078,-3.88056 0.44136,-0.78043 1.73464,-3.35087 2.87394,-5.71209 2.20563,-4.57132 3.43111,-6.53589 6.01419,-9.6416 0.88756,-1.06715 1.92776,-2.33394 2.31158,-2.81509 1.16572,-1.46143 3.43577,-3.53491 3.87001,-3.53491 0.22493,0 0.79382,-0.41431 1.26421,-0.92069 3.14279,-3.38333 9.08233,-5.01781 11.67232,-3.21207 4.46384,3.11219 5.50824,6.82851 4.51129,16.05292 -0.3296,3.04967 -1.94733,8.71135 -3.1164,10.90665 -0.18539,0.34811 -0.84731,1.66479 -1.47098,2.92597 -1.12378,2.27257 -4.74225,7.60091 -6.13622,9.03575 -5.1834,5.33553 -7.74386,7.82351 -9.32349,9.05949 -1.04306,0.81615 -2.61236,2.08946 -3.48728,2.82957 -0.87496,0.74011 -3.36371,2.67063 -5.53057,4.29003 -6.82315,5.09936 -8.01035,7.18136 -4.15449,7.28574 0.91479,0.0248 1.98078,0.0975 2.36883,0.16156 0.38806,0.0641 1.97556,0.28611 3.52778,0.49336 1.55222,0.20726 3.05827,0.4615 3.34677,0.56499 0.2885,0.10349 1.95538,0.26739 3.70417,0.36422 1.74879,0.0968 3.73524,0.31308 4.41434,0.48055 0.6791,0.16748 2.98097,0.49222 5.11528,0.72165 2.13431,0.22943 4.59493,0.70084 5.46806,1.04759 0.87312,0.34675 2.54,0.81922 3.70416,1.04996 1.16417,0.23073 3.0002,0.64486 4.08009,0.9203 1.07989,0.27544 2.39589,0.50079 2.92446,0.50079 0.5286,0 1.5834,0.3175 2.34406,0.70556 0.76066,0.38805 1.77208,0.70555 2.24766,0.70555 1.05127,0 2.69123,1.81995 2.69123,2.9866 0,1.65908 -1.75334,2.74424 -3.88055,2.40172 z m -40.39306,-25.3273 c 0.97014,-0.75239 1.92264,-1.54481 2.11666,-1.76093 0.19403,-0.21611 0.94661,-0.79349 1.67238,-1.28306 8.60775,-5.80628 19.32799,-19.59172 21.2204,-27.28786 0.33398,-1.35819 0.75689,-2.95696 0.93987,-3.55282 0.49248,-1.60402 0.41578,-7.77327 -0.10834,-8.71099 -0.83509,-1.49411 -1.43453,-2.02369 -2.29065,-2.02369 -1.36148,0 -5.1023,1.91147 -6.29628,3.21722 -0.59975,0.65588 -1.79038,1.83485 -2.64583,2.61994 -1.88253,1.72763 -3.42995,3.66194 -4.37765,5.47221 -0.38806,0.74125 -1.27582,2.19082 -1.97281,3.22126 -3.06158,4.52626 -6.77545,12.7684 -8.47432,18.80686 -0.3821,1.3582 -1.08501,3.72536 -1.562,5.26037 -0.97292,3.13093 -1.26118,8.35252 -0.42629,7.72233 0.24253,-0.18307 1.23472,-0.94845 2.20486,-1.70084 z m -163.42937,-7.78415 c -2.44045,-1.06384 -4.96568,-4.97933 -5.89448,-9.13968 -0.0436,-0.19538 -0.17377,-0.59336 -0.28923,-0.88441 -0.86719,-2.18595 -1.26374,-11.81758 -0.60413,-14.67357 0.29408,-1.27333 0.62798,-4.43871 0.87099,-8.25698 0.17082,-2.68399 2.59933,-5.66905 5.17671,-6.36307 5.51779,-1.48579 8.91671,1.81543 11.81807,11.47835 1.04149,3.46867 1.92595,10.52619 1.54737,12.34722 -0.16135,0.77611 -0.48073,2.36361 -0.70973,3.52778 -0.68129,3.46341 -5.12116,10.99191 -7.07967,12.0047 -1.18464,0.6126 -3.38007,0.59429 -4.8359,-0.0403 z m 3.12539,-8.172 c 1.98268,-2.46956 3.62667,-8.04693 3.27864,-11.12309 -0.13052,-1.15372 -0.26441,-2.35753 -0.29752,-2.67514 -0.17947,-1.72142 -0.7312,-3.6308 -1.59399,-5.51636 -0.5327,-1.16416 -1.10995,-2.57994 -1.28279,-3.14617 -0.44692,-1.46414 -0.92851,-1.44199 -1.62671,0.0748 -2.94779,6.40393 -1.59672,26.27097 1.52237,22.38595 z m -62.5968,7.5111 c -1.7773,-0.63369 -2.8621,-1.69047 -3.977,-3.8743 -0.5012,-0.9816 -1.2122,-2.35152 -1.5801,-3.04428 -0.3679,-0.69276 -0.7622,-2.28026 -0.8762,-3.52778 -0.1141,-1.24752 -0.2644,-2.45625 -0.3341,-2.68607 -0.1961,-0.64709 -2.2043,0.22866 -3.1827,1.38799 -0.4504,0.53358 -0.9632,0.97014 -1.1397,0.97014 -0.1765,0 -0.5993,0.30761 -0.9395,0.68358 -2.3922,2.64334 -7.8677,3.81505 -10.4269,2.23125 -1.3884,-0.85925 -3.4741,-3.34638 -3.7216,-4.43797 -0.124,-0.54669 -0.4322,-1.0733 -0.6848,-1.17027 -0.2527,-0.097 -0.5701,-0.91967 -0.7054,-1.82824 -0.1352,-0.90858 -0.4075,-1.84837 -0.6051,-2.08844 -0.1976,-0.24006 -0.2728,-0.66171 -0.1671,-0.93699 0.1056,-0.27528 -0.1047,-0.76907 -0.4674,-1.09731 -0.8206,-0.74262 -0.3502,-1.21508 -6.7013,6.73026 -6.9567,8.70286 -13.0827,9.54388 -14.6497,2.01122 -0.112,-0.53846 -0.4241,-1.45528 -0.6935,-2.03736 -1.3225,-2.85764 -1.9693,-4.91175 -2.666,-8.46667 -0.4182,-2.13431 -0.8831,-4.03931 -1.0332,-4.23333 -0.15,-0.19403 -0.3476,-1.57734 -0.4392,-3.07403 -0.2465,-4.0318 -1.1985,-4.78574 -3.1853,-2.52283 -1.5191,1.73009 -4.4867,6.1929 -4.4924,6.75579 0,0.24937 -0.2451,0.82044 -0.5391,1.26905 -0.5653,0.86282 -1.3365,3.57396 -1.7673,6.21323 -0.1424,0.87212 -0.5558,2.13976 -0.9188,2.817 -0.363,0.67724 -0.66,1.66466 -0.66,2.19429 0,4.63478 -5.5783,0.78066 -6.3466,-4.38492 -0.2675,-1.7987 -0.5057,-3.34974 -0.5294,-3.44675 -0.024,-0.097 -0.2611,-1.36701 -0.5277,-2.82222 -0.2666,-1.45521 -0.5955,-2.72521 -0.7308,-2.82223 -0.4734,-0.33949 -1.3905,-7.46768 -1.3976,-10.86204 -0.019,-8.99474 -0.4879,-9.4103 -9.5179,-8.42826 -5.6956,0.61942 -8.4323,-3.82344 -3.815,-6.19347 1.0466,-0.53722 2.0788,-0.6687 5.2916,-0.67405 7.5862,-0.0126 7.1209,0.47836 7.6403,-8.06162 0.6078,-9.99258 1.9074,-14.27518 4.4479,-14.65614 3.0938,-0.46395 7.4148,3.3695 5.0252,4.45825 -1.7642,0.80384 -3.0709,6.03651 -3.0629,12.2652 0.01,6.17103 -0.6027,5.7586 8.5279,5.76064 5.8336,0.001 8.2109,-0.0852 16.3381,-0.59435 8.1799,-0.51246 11.0749,0.0379 9.3062,1.76912 -1.8606,1.82128 -15.2108,4.11676 -26.7687,4.60272 -8.117,0.34128 -7.4293,-0.23729 -7.1908,6.04945 0.2096,5.52443 0.8035,8.33376 1.8842,8.91212 0.6086,0.32572 1.7788,-0.46287 1.7788,-1.19872 0,-0.33424 2.5604,-3.38416 4.281,-5.09953 7.0918,-7.07008 12.0481,-3.99748 14.0349,8.70078 0.7381,4.7174 1.6097,8.39098 2.9056,12.24574 0.7728,2.29911 1.8099,2.1137 4.1785,-0.74704 1.0672,-1.28888 2.3162,-2.75932 2.7757,-3.26763 1.8977,-2.09931 3.1307,-3.81697 3.5754,-4.98117 1.2798,-3.34973 6.3173,-8.63288 8.5991,-9.01839 2.4686,-0.41706 3.4441,1.32858 3.9555,7.07812 0.086,0.97014 0.3163,3.56292 0.5111,5.76173 0.745,8.41095 2.6411,9.29043 8.3267,3.8622 1.6828,-1.60663 3.3521,-3.19897 3.7095,-3.53852 0.3574,-0.33954 0.6498,-0.77082 0.6498,-0.95838 0,-0.18755 0.5159,-0.88879 1.1465,-1.55829 0.6306,-0.6695 1.8795,-1.9915 2.7754,-2.93777 0.8959,-0.94627 1.7316,-2.03097 1.8571,-2.41045 0.3973,-1.20109 2.9025,-2.71659 4.0677,-2.46069 2.311,0.50759 3.2484,4.38535 1.8802,7.77743 -0.3893,0.96493 -0.8726,2.3894 -1.0741,3.16551 -0.2015,0.77612 -0.5377,2.06453 -0.7471,2.86316 -1.2876,4.91081 0.542,11.57138 2.8406,10.34121 0.5877,-0.31449 1.3144,-2.77622 1.0719,-3.63081 -0.048,-0.16733 0.1292,-0.48483 0.3926,-0.70556 0.6145,-0.51483 1.4284,-4.3295 1.5535,-7.2805 0.3332,-7.85902 0.4069,-13.0461 0.1872,-13.18184 -0.1393,-0.0861 -0.1404,-2.19578 0,-4.68808 0.199,-3.59026 0.4085,-20.25381 0.2965,-23.58146 -0.013,-0.38806 0.072,-1.36166 0.1887,-2.16358 0.127,-0.8715 0.063,-1.55038 -0.1591,-1.68762 -0.2318,-0.14326 -0.2967,-1.05425 -0.1726,-2.42254 0.1095,-1.20611 0.022,-3.44824 -0.1949,-4.9825 -0.6202,-4.39249 2.2838,-6.98736 5.2189,-4.66331 1.1223,0.88867 3.1476,7.88614 2.6545,9.17128 -0.1122,0.29237 -0.032,1.37472 0.1774,2.40521 0.2098,1.03049 0.6207,6.24134 0.9131,11.57968 0.7968,14.54387 1.1544,18.51945 1.9315,21.47421 0.3886,1.47751 1.1087,4.43264 1.6004,6.56694 1.87,8.11887 3.3201,9.70168 5.3031,5.78854 0.4762,-0.93948 0.8657,-2.11029 0.8657,-2.60181 0,-0.49152 0.1587,-0.89367 0.3527,-0.89367 0.1941,0 0.3528,-0.41317 0.3528,-0.91816 0,-0.50498 0.6434,-2.29092 1.4298,-3.96875 0.7864,-1.67782 1.5172,-3.68559 1.6242,-4.4617 0.3901,-2.8316 1.1522,-3.84273 3.1072,-4.12238 3.3202,-0.47493 4.393,2.46144 4.9857,13.64738 0.2051,3.86977 0.3233,4.62025 1.3054,8.29028 0.2856,1.06715 0.6316,2.72779 0.769,3.6903 0.1374,0.96251 0.5606,2.58074 0.9405,3.59606 1.4657,3.91735 0.6148,6.42864 -2.2141,6.53499 -2.6783,0.10069 -4.525,-1.65417 -5.078,-4.82552 -0.1354,-0.77611 -0.4664,-1.76272 -0.7357,-2.19245 -0.2692,-0.42974 -0.4895,-1.4225 -0.4895,-2.20614 0,-0.78364 -0.3175,-2.01719 -0.7056,-2.74122 -0.388,-0.72402 -0.7055,-1.54487 -0.7055,-1.8241 0,-0.76542 -1.2868,0.56333 -3.3514,3.46087 -3.6383,5.10586 -7.4628,4.53702 -10.5254,-1.56549 -1.8574,-3.701 -3.3817,-4.68847 -3.4039,-2.20512 0,0.33227 -0.3077,1.44352 -0.6772,2.46944 -0.3695,1.02593 -1.0109,2.95015 -1.4253,4.27605 -2.0425,6.53442 -6.5025,9.59137 -11.4301,7.8344 z m -126.702,-13.6767 c -1.3582,-0.17327 -3.5013,-0.54403 -4.7625,-0.82391 -1.2611,-0.27988 -2.6899,-0.51198 -3.175,-0.51579 -0.485,-0.004 -1.2788,-0.31736 -1.7639,-0.69679 -0.485,-0.37942 -1.0803,-0.69339 -1.3229,-0.69771 -0.2425,-0.004 -0.4417,-0.1269 -0.4426,-0.27242 0,-0.14553 -0.5757,-0.88957 -1.2772,-1.65343 -1.6514,-1.79828 -1.9314,-3.49579 -0.8109,-4.91728 2.6115,-3.31322 9.7909,-2.8491 7.3339,0.47411 -1.33,1.79889 0.2396,2.59991 5.944,3.03355 1.0568,0.0803 2.0705,0.23822 2.2527,0.35085 0.7168,0.44297 8.9897,0.1625 10.9008,-0.36957 1.0672,-0.2971 3.1309,-0.78018 4.5861,-1.07349 2.8251,-0.56943 6.35,-1.87275 6.35,-2.34785 0,-0.15833 0.1985,-0.28924 0.441,-0.29092 0.5225,-0.004 3.0868,-2.36404 3.0868,-2.84139 0,-0.1818 -0.1587,-0.33056 -0.3528,-0.33056 -0.194,0 -0.3527,-0.48557 -0.3527,-1.07905 0,-1.41067 -4.3429,-6.3379 -6.0586,-6.87378 -0.4513,-0.14096 -1.1667,-0.59895 -1.5896,-1.01776 -0.423,-0.41881 -1.1373,-0.93109 -1.5875,-1.13842 -0.4502,-0.20733 -1.8107,-0.82493 -3.0234,-1.37245 -1.2126,-0.54752 -2.2048,-1.11893 -2.2048,-1.2698 0,-0.15088 -0.6165,-0.44033 -1.37,-0.64322 -0.7536,-0.2029 -1.5595,-0.5972 -1.7911,-0.87621 -0.2316,-0.27902 -1.2422,-0.77879 -2.2459,-1.11062 -1.0038,-0.33182 -2.4569,-1.00062 -3.2292,-1.48622 -0.7724,-0.4856 -2.0109,-1.0192 -2.7523,-1.18578 -6.4815,-1.45631 -12.5491,-8.02686 -12.3591,-13.38371 0.1842,-5.19339 3.441,-9.99061 9.9892,-14.71392 3.3171,-2.39261 4.1019,-2.89497 5.6329,-3.60553 0.8668,-0.40227 2.2162,-1.24773 2.9987,-1.87881 1.7803,-1.43594 5.9372,-2.95038 9.2216,-3.35967 1.379,-0.17185 2.837,-0.48891 3.24,-0.70458 1.4728,-0.78824 4.3682,-0.46849 5.6911,0.62849 3.9537,3.2786 1.2446,9.22756 -2.815,6.1816 -2.4597,-1.84549 -8.7049,-0.17406 -14.797,3.96018 -4.9909,3.38688 -5.8811,4.08277 -8.3879,6.55651 -3.756,3.7066 -4.8248,7.41399 -2.955,10.24978 0.5679,0.86118 5.7807,4.48686 6.451,4.48686 0.1387,0 2.6852,1.16145 5.6589,2.58099 2.9736,1.41954 5.9622,2.79334 6.6413,3.05288 13.8642,5.29877 22.5152,18.06121 16.354,24.1265 -4.7349,4.66133 -20.8661,8.18549 -31.3471,6.84834 z m 161.1577,-43.92884 c -0.584,-0.72761 -1.2493,-1.89234 -1.4785,-2.5883 -0.2292,-0.69596 -0.696,-1.56908 -1.0374,-1.94028 -2.5542,-2.77776 -1.8742,-6.20469 1.3939,-7.02494 3.309,-0.8305 7.4475,9.95576 4.6608,12.14774 -1.3727,1.07975 -2.3234,0.92011 -3.5388,-0.59422 z"
       id="path462-5"
       mask="url(#mask516)"
       transform="rotate(-1.9775651,1368.2819,-17560.064)"
       inkscape:export-filename="research.svg"
       inkscape:export-xdpi="96"
       inkscape:export-ydpi="96" /></g></svg>
